<svg xmlns="http://www.w3.org/2000/svg" width="151" height="46" viewBox="0 0 151 46"><path fill="#fe4b00" d="M120 20.3s12.61-6.13 20.76 8.26c6.66 11.75 9.69 16.16 9.69 16.16s-8.92 2.04-14.79-3.75c-3.65-3.6-7.95-12.65-11.33-17.52-2.06-2.97-4.33-3.15-4.33-3.15"/><path fill="#fff" d="M125.44 3.55c-2.01 2.24-4.39 7.87-6.26 10.9l-.13.19-.12-.19c-1.88-3.03-4.25-8.66-6.27-10.9-3.25-3.6-8.18-2.33-8.18-2.33s1.68 2.74 5.36 10.05c1.39 2.75 3 4.3 4.58 5.12-1.72.75-3.53 2.32-5.06 5.35C105.68 29.06 104 31.8 104 31.8s4.93 1.26 8.18-2.34c2.02-2.23 4.39-7.87 6.26-10.9a5.1 5.1 0 0 1 1.18-1.37c2.44.21 5.97-.61 8.64-5.92a166.69 166.69 0 0 1 5.36-10.05s-4.93-1.27-8.18 2.33M18.49 1H3.6c-.85 0-1.55.12-2.09.37-.52.23-.89.6-1.13 1.12A5 5 0 0 0 0 4.59v23.96c0 1.21.27 2.13.81 2.71a2.7 2.7 0 0 0 2.08.87c.85 0 1.53-.28 2.07-.86.53-.58.81-1.49.81-2.72V18.02h5.14c.87 0 1.53-.19 1.96-.57.42-.37.63-.87.63-1.51 0-.65-.2-1.15-.62-1.53-.42-.39-1.09-.57-1.97-.57H5.77V5.31h12.72c.93 0 1.63-.19 2.06-.59.43-.4.64-.91.64-1.57 0-.65-.21-1.16-.64-1.55-.43-.4-1.13-.6-2.06-.6M73.89 0c-.8 0-1.42.26-1.89.81s-.7 1.4-.7 2.53v19.44L58.65 3.66l-1-1.55a7.7 7.7 0 0 0-.9-1.17 3.22 3.22 0 0 0-.98-.69A3.37 3.37 0 0 0 54.43 0a3.44 3.44 0 0 0-3.11 2A6.57 6.57 0 0 0 51 4.29v24.03c0 1.11.25 1.95.74 2.51.49.56 1.12.83 1.94.83.79 0 1.42-.27 1.92-.83.51-.55.77-1.4.77-2.51V9.15l12.35 18.91 1.01 1.45c.33.46.69.86 1.07 1.2a3.62 3.62 0 0 0 2.63.95c2.1 0 3.12-1.25 3.12-3.83V3.34c0-1.13-.24-1.98-.71-2.53A2.43 2.43 0 0 0 73.89 0M41.11 27.13H30.77v-8.29a2.72 2.72 0 1 0 0-4.75V5.31h9.85c.93 0 1.62-.19 2.05-.59a2 2 0 0 0 .65-1.57c0-.65-.21-1.16-.65-1.55-.43-.4-1.12-.6-2.05-.6H28.6c-.85 0-1.55.12-2.09.37-.52.24-.88.6-1.13 1.12a5 5 0 0 0-.38 2.1V28c0 1.28.28 2.21.83 2.76.54.55 1.47.83 2.77.83h12.51c.91 0 1.61-.2 2.05-.61.45-.41.67-.94.67-1.6 0-.69-.22-1.22-.67-1.64-.44-.4-1.14-.61-2.05-.61M99.11 27.13H88.77v-8.29a2.72 2.72 0 1 0 0-4.75V5.31h9.85c.93 0 1.62-.19 2.06-.59.43-.4.64-.91.64-1.57 0-.65-.21-1.16-.64-1.55-.44-.4-1.13-.6-2.06-.6H86.6c-.85 0-1.55.12-2.09.37-.51.24-.88.6-1.13 1.12a5 5 0 0 0-.38 2.1V28c0 1.28.28 2.21.83 2.76.55.55 1.48.83 2.77.83h12.51c.91 0 1.61-.2 2.05-.61.46-.41.67-.94.67-1.6 0-.69-.21-1.22-.67-1.64-.44-.4-1.14-.61-2.05-.61M5.87 43.18c0 .11-.05.21-.13.29a.38.38 0 0 1-.28.12.45.45 0 0 1-.31-.12.4.4 0 0 1-.12-.29v-5.1l-1.69 3.61a.43.43 0 0 1-.41.25.43.43 0 0 1-.4-.25L.84 38.08v5.1c0 .11-.04.21-.13.29a.45.45 0 0 1-.31.12.38.38 0 0 1-.28-.12.4.4 0 0 1-.12-.29v-6.74A.43.43 0 0 1 .44 36c.21 0 .36.09.45.27l2.05 4.38 2.05-4.39a.47.47 0 0 1 .44-.26.4.4 0 0 1 .31.13c.08.09.13.19.13.31zM17.86 42.96a.4.4 0 0 1-.42.42h-2.78a.97.97 0 0 1-.46-.1c-.13-.07-.2-.2-.2-.39v-6.4c0-.12.05-.23.15-.33.09-.11.2-.16.34-.16h2.85a.4.4 0 0 1 .42.42c0 .12-.04.21-.12.29a.44.44 0 0 1-.3.11h-2.5v2.45h2.3c.1 0 .2.04.28.11.08.08.13.18.13.3a.4.4 0 0 1-.12.29.38.38 0 0 1-.29.11h-2.3v2.49h2.6c.11 0 .21.03.3.11.08.08.12.17.12.28M29.72 38.67c0-.26-.03-.5-.1-.73a1.45 1.45 0 0 0-.89-.98c-.23-.1-.52-.14-.86-.14h-1.03v5.76h1.03c.34 0 .63-.05.87-.16.23-.1.43-.24.57-.41.15-.18.25-.39.32-.62.06-.24.09-.49.09-.76zm.84 1.96c0 .35-.05.7-.15 1.04a2.27 2.27 0 0 1-1.36 1.49c-.37.16-.82.23-1.36.23H26.5a.5.5 0 0 1-.5-.5V36.5c0-.14.05-.26.15-.35.09-.1.21-.15.35-.15h1.19c.53 0 .98.07 1.35.22a2.15 2.15 0 0 1 1.37 1.45c.1.32.15.65.15 1zM38 36.42c0-.11.04-.21.12-.3a.4.4 0 0 1 .3-.12.4.4 0 0 1 .3.12c.08.09.12.19.12.3v6.75a.4.4 0 0 1-.42.42.4.4 0 0 1-.42-.42zM47.53 41h2.16l-1.08-3.55zm-.69 2.28a.43.43 0 0 1-.17.22.35.35 0 0 1-.23.09.49.49 0 0 1-.31-.11.39.39 0 0 1-.13-.31l.01-.08.01-.07 2.05-6.47c.05-.16.11-.29.19-.39.08-.11.2-.16.35-.16.16 0 .28.05.36.16.08.1.14.23.2.39l2.04 6.47.02.07v.08c0 .13-.04.23-.12.31a.5.5 0 0 1-.32.11.42.42 0 0 1-.24-.09.38.38 0 0 1-.17-.22l-.45-1.46h-2.65zM69.84 40.91c0 .29.03.56.08.79.05.23.14.44.26.6.12.17.28.3.49.39a2 2 0 0 0 .74.13 1.9 1.9 0 0 0 1.19-.39v-2.25h-1.02a.38.38 0 0 1-.28-.12.38.38 0 0 1-.12-.28c0-.11.04-.21.12-.28a.38.38 0 0 1 .28-.12h1.25a.7.7 0 0 1 .42.12c.12.07.17.19.17.36v2.5a.8.8 0 0 1-.19.55 2.03 2.03 0 0 1-1.16.6c-.24.05-.48.07-.71.07-.41 0-.76-.06-1.05-.19-.3-.13-.55-.3-.74-.54a2.38 2.38 0 0 1-.43-.84 3.8 3.8 0 0 1-.14-1.1v-2.24c0-.41.04-.77.14-1.1.1-.33.24-.61.43-.84.19-.24.44-.42.74-.54a3.1 3.1 0 0 1 2.33.08c.17.08.31.17.42.28.1.11.16.22.16.35 0 .1-.04.18-.11.25a.34.34 0 0 1-.27.12.36.36 0 0 1-.19-.05 2.85 2.85 0 0 0-.19-.13 1.77 1.77 0 0 0-1.05-.33 2 2 0 0 0-.74.13c-.21.09-.37.22-.49.38-.12.17-.21.37-.26.61-.05.23-.08.5-.08.79zM84.69 37.63a.88.88 0 0 0-.22-.4 1.23 1.23 0 0 0-.46-.3c-.2-.07-.44-.11-.74-.11h-1.43v2.51h1.49c.46 0 .81-.1 1.06-.31.24-.21.36-.52.36-.93 0-.15-.02-.3-.06-.46zm.47 1.8c-.29.34-.69.56-1.19.65l1.68 2.76a.6.6 0 0 1 .05.24c0 .11-.05.21-.17.28-.1.08-.2.12-.28.12a.38.38 0 0 1-.35-.2l-1.86-3.14h-1.2v2.91c0 .12-.04.22-.13.31a.38.38 0 0 1-.3.13.37.37 0 0 1-.29-.13.45.45 0 0 1-.12-.31V36.5c0-.14.05-.26.14-.35.1-.1.21-.15.34-.15h1.83c.43 0 .79.06 1.08.18.29.13.53.28.71.48.17.2.3.42.38.67.08.25.11.51.11.76 0 .56-.14 1.01-.43 1.34zM94.68 36.95c-.19.09-.36.22-.48.38a1.5 1.5 0 0 0-.28.58 3 3 0 0 0-.08.76v2.24c0 .55.13 1 .38 1.34.26.35.65.53 1.19.53.54 0 .93-.18 1.19-.53.26-.34.38-.79.38-1.34v-2.24a3 3 0 0 0-.08-.76 1.32 1.32 0 0 0-.76-.96c-.2-.09-.44-.13-.73-.13-.28 0-.53.04-.73.13zm-.32 6.43a2.09 2.09 0 0 1-.76-.57c-.2-.24-.35-.52-.45-.85a3.6 3.6 0 0 1-.15-1.05v-2.24c0-.37.04-.71.13-1.03a2.2 2.2 0 0 1 1.17-1.43c.31-.14.68-.21 1.11-.21.44 0 .8.07 1.11.21.3.15.55.34.75.58.19.24.34.52.42.85.09.32.13.66.13 1.03v2.24c0 .37-.05.72-.15 1.05-.1.33-.25.61-.45.85s-.45.43-.75.57c-.31.14-.66.21-1.06.21s-.75-.07-1.05-.21zM110.48 42.08c-.11.31-.26.57-.46.8-.2.22-.44.4-.73.52a2.3 2.3 0 0 1-.97.19c-.37 0-.7-.06-1-.19a1.9 1.9 0 0 1-.72-.52c-.2-.23-.35-.49-.45-.8-.1-.31-.15-.64-.15-1v-4.64c0-.13.04-.23.13-.32a.4.4 0 0 1 .3-.12c.11 0 .2.04.29.13.08.09.12.19.12.31v4.64c0 .5.12.91.36 1.22.24.32.61.48 1.12.48.25 0 .47-.05.65-.13.19-.09.34-.2.46-.35.11-.15.21-.33.27-.54.06-.21.09-.44.09-.68v-4.64c0-.12.03-.22.11-.31a.36.36 0 0 1 .29-.13c.13 0 .23.04.32.13.08.09.13.19.13.31v4.64c0 .36-.06.69-.16 1M119.84 39.84h1.2c.51 0 .89-.12 1.14-.36.26-.25.39-.63.39-1.14 0-.19-.02-.38-.07-.56a1.3 1.3 0 0 0-.23-.49 1.26 1.26 0 0 0-.46-.34 1.94 1.94 0 0 0-.77-.13h-1.2zm0 .82v2.39c0 .12-.04.22-.12.31a.38.38 0 0 1-.3.13.37.37 0 0 1-.29-.13.42.42 0 0 1-.13-.31V36.5c0-.14.05-.26.15-.35.1-.1.21-.15.35-.15h1.54c.44 0 .81.07 1.1.19a1.93 1.93 0 0 1 1.14 1.27c.08.28.13.58.13.89 0 .74-.22 1.32-.65 1.71-.42.4-1 .6-1.72.6z"/></svg>