<svg xmlns="http://www.w3.org/2000/svg" width="249" height="74" viewBox="0 0 249 74"><path fill="#fe4b00" d="M198 33.13s20.74-10.07 34.14 13.59c10.96 19.34 15.95 26.58 15.95 26.58s-14.68 3.36-24.33-6.16c-6-5.92-13.07-20.81-18.64-28.82-3.39-4.89-7.12-5.19-7.12-5.19"/><path d="M207.27 6.19c-3.32 3.69-7.23 12.95-10.31 17.94l-.2.31-.21-.31c-3.08-4.99-6.99-14.25-10.31-17.94-5.34-5.92-13.45-3.83-13.45-3.83s2.76 4.51 8.82 16.54c2.28 4.52 4.94 7.06 7.53 8.41-2.84 1.23-5.81 3.81-8.32 8.8-6.06 12.03-8.82 16.54-8.82 16.54s8.11 2.09 13.45-3.84c3.32-3.67 7.23-12.95 10.3-17.93a8.58 8.58 0 0 1 1.95-2.25c4.01.35 9.82-1.01 14.2-9.73 6.06-12.03 8.82-16.54 8.82-16.54S212.6.27 207.27 6.19M30.41 1H5.92c-1.4 0-2.56.2-3.44.61-.85.38-1.46.99-1.86 1.84A8.27 8.27 0 0 0 0 6.91v39.41c0 1.99.45 3.49 1.33 4.45a4.46 4.46 0 0 0 3.43 1.43c1.4 0 2.51-.47 3.4-1.42.88-.94 1.33-2.44 1.33-4.46V29h8.45c1.43 0 2.52-.31 3.23-.94a3.13 3.13 0 0 0 1.04-2.49c0-1.07-.34-1.89-1.03-2.52-.69-.63-1.78-.94-3.24-.94H9.49V8.09h20.92c1.54 0 2.68-.32 3.39-.97a3.33 3.33 0 0 0 1.06-2.59c0-1.06-.35-1.9-1.06-2.55-.71-.64-1.85-.98-3.39-.98M120.65 0c-1.32 0-2.33.43-3.1 1.33-.78.9-1.17 2.3-1.17 4.16v31.97L95.57 6.02c-.56-.89-1.1-1.75-1.63-2.55-.51-.79-1-1.44-1.48-1.92-.46-.48-1-.86-1.61-1.14A5.47 5.47 0 0 0 88.63 0a5.5 5.5 0 0 0-3.07.93 5.2 5.2 0 0 0-2.04 2.36c-.35.89-.52 2.16-.52 3.77v39.52c0 1.82.41 3.2 1.22 4.12a4 4 0 0 0 3.19 1.37c1.3 0 2.34-.45 3.16-1.36.83-.91 1.26-2.3 1.26-4.13V15.05l20.31 31.11c.55.79 1.11 1.6 1.67 2.38.54.75 1.13 1.41 1.76 1.97.6.53 1.26.94 1.95 1.18.69.25 1.49.38 2.36.38 3.46 0 5.15-2.06 5.15-6.29V5.49c0-1.86-.4-3.26-1.18-4.16a3.98 3.98 0 0 0-3.2-1.33M67.49 43.97h-17V30.35a4.46 4.46 0 1 0 0-7.83V8.09h16.19c1.54 0 2.68-.32 3.39-.97a3.33 3.33 0 0 0 1.06-2.59c0-1.06-.35-1.9-1.06-2.55-.71-.64-1.85-.98-3.39-.98H46.92c-1.4 0-2.55.2-3.44.61a3.7 3.7 0 0 0-1.86 1.84c-.4.88-.62 2.04-.62 3.46v38.5c0 2.1.47 3.63 1.36 4.54.9.91 2.43 1.37 4.56 1.37h20.57c1.51 0 2.65-.34 3.38-1.02a3.3 3.3 0 0 0 1.1-2.62c0-1.13-.35-2.01-1.1-2.69-.73-.67-1.87-1.02-3.38-1.02M162.5 43.97h-17.01V30.34a4.46 4.46 0 1 0 0-7.82V8.09h16.2c1.53 0 2.67-.32 3.38-.97a3.3 3.3 0 0 0 1.07-2.59c0-1.06-.35-1.9-1.07-2.55-.71-.64-1.85-.98-3.38-.98h-19.76c-1.4 0-2.56.2-3.44.61-.85.39-1.46.99-1.87 1.84-.4.88-.62 2.04-.62 3.46v38.5c0 2.1.47 3.63 1.36 4.54.9.91 2.44 1.37 4.57 1.37h20.57c1.5 0 2.64-.34 3.37-1.02a3.3 3.3 0 0 0 1.1-2.62c0-1.13-.35-2.01-1.1-2.69-.73-.67-1.87-1.02-3.37-1.02M9.65 70.81c0 .19-.07.34-.2.48a.66.66 0 0 1-.48.2.72.72 0 0 1-.5-.2.67.67 0 0 1-.2-.48v-8.39l-2.78 5.93a.69.69 0 0 1-.67.41.68.68 0 0 1-.66-.41l-2.78-5.93v8.39c0 .19-.07.34-.21.48a.74.74 0 0 1-.51.2.61.61 0 0 1-.46-.2.67.67 0 0 1-.2-.48V59.72A.7.7 0 0 1 .73 59c.33 0 .58.15.74.45l3.37 7.19 3.36-7.21c.16-.29.4-.43.72-.43a.7.7 0 0 1 .52.21.7.7 0 0 1 .21.51zM29.35 70.44c0 .19-.07.36-.2.5a.63.63 0 0 1-.49.2h-4.57c-.29 0-.54-.05-.76-.17-.22-.11-.33-.33-.33-.63V59.81c0-.2.08-.38.24-.55a.73.73 0 0 1 .57-.26h4.68a.68.68 0 0 1 .69.69.6.6 0 0 1-.2.47.66.66 0 0 1-.49.18h-4.11v4.03h3.78c.17 0 .33.07.47.2.13.12.21.28.21.48 0 .19-.07.35-.2.48a.62.62 0 0 1-.48.19h-3.78v4.08h4.28c.19 0 .35.06.49.19.13.13.2.28.2.45M48.13 63.39c0-.42-.06-.82-.17-1.19-.11-.38-.29-.7-.53-.98a2.28 2.28 0 0 0-.94-.64 3.7 3.7 0 0 0-1.42-.23h-1.69v9.47h1.69c.56 0 1.04-.09 1.43-.25a2.51 2.51 0 0 0 1.47-1.71c.1-.39.16-.8.16-1.25zm1.38 3.22a6.1 6.1 0 0 1-.25 1.71 3.84 3.84 0 0 1-.79 1.46c-.37.42-.85.75-1.46 1-.6.25-1.35.38-2.23.38h-1.95a.8.8 0 0 1-.59-.24.8.8 0 0 1-.24-.58V59.83a.8.8 0 0 1 .24-.59.8.8 0 0 1 .59-.24h1.95c.87 0 1.61.12 2.22.36.6.24 1.09.57 1.46.98.37.4.64.87.8 1.4.16.53.25 1.08.25 1.65zM62 59.68a.68.68 0 0 1 .69-.68c.2 0 .36.07.49.2.14.14.2.31.2.48v11.11c0 .19-.06.35-.2.49a.64.64 0 0 1-.49.21.65.65 0 0 1-.49-.21.7.7 0 0 1-.2-.49zM78.52 67.23h3.55l-1.77-5.84zm-1.14 3.74a.75.75 0 0 1-.27.37.64.64 0 0 1-.38.15.76.76 0 0 1-.51-.19.64.64 0 0 1-.22-.51l.01-.13c0-.06.01-.1.03-.12l3.36-10.63c.08-.26.19-.48.32-.65.13-.18.32-.26.58-.26.26 0 .45.08.59.26.12.17.23.39.32.65l3.36 10.63a.72.72 0 0 1 .04.25c0 .21-.07.38-.21.51a.77.77 0 0 1-.52.19.66.66 0 0 1-.39-.15.62.62 0 0 1-.28-.37l-.74-2.4H78.1zM114.38 67.08c0 .48.04.91.13 1.3.08.38.23.71.43.99.2.27.47.48.8.63.34.14.74.21 1.22.21a3.24 3.24 0 0 0 1.96-.64v-3.7h-1.68a.63.63 0 0 1-.46-.19.63.63 0 0 1-.19-.47c0-.18.06-.33.19-.46a.63.63 0 0 1 .46-.19h2.05c.28 0 .51.06.7.19.19.13.29.33.29.6v4.12c0 .34-.11.64-.32.9a2.7 2.7 0 0 1-.81.63c-.33.16-.69.28-1.1.36-.4.07-.79.11-1.17.11a4.5 4.5 0 0 1-1.73-.31 3.1 3.1 0 0 1-1.21-.89 3.8 3.8 0 0 1-.71-1.39 6.29 6.29 0 0 1-.23-1.8v-3.69c0-.67.07-1.27.23-1.81.16-.53.39-1 .71-1.39.32-.38.72-.68 1.21-.88a4.31 4.31 0 0 1 1.73-.31 4.8 4.8 0 0 1 2.11.44c.28.13.51.28.68.46a.8.8 0 0 1 .26.58c0 .16-.05.3-.17.42a.61.61 0 0 1-.45.18.56.56 0 0 1-.3-.07l-.32-.22a2.91 2.91 0 0 0-1.73-.54c-.48 0-.88.08-1.22.22-.33.14-.6.36-.8.63-.2.27-.35.6-.43.99-.09.38-.13.82-.13 1.3zM139.07 61.69a1.58 1.58 0 0 0-.37-.67 2 2 0 0 0-.75-.49 3.51 3.51 0 0 0-1.22-.19h-2.35v4.14h2.45c.76 0 1.34-.17 1.74-.52.4-.34.6-.85.6-1.52 0-.25-.03-.5-.1-.75zm.77 2.96c-.48.55-1.13.91-1.96 1.07l2.76 4.53a.8.8 0 0 1 .09.39c0 .19-.09.34-.27.47a.84.84 0 0 1-.47.19.6.6 0 0 1-.57-.33l-3.06-5.17h-1.98v4.79a.7.7 0 0 1-.21.51.63.63 0 0 1-.5.22.6.6 0 0 1-.47-.22.73.73 0 0 1-.2-.51V59.83c0-.23.08-.43.23-.59a.77.77 0 0 1 .56-.24h3.01c.71 0 1.3.1 1.78.3.48.2.86.46 1.16.78a3 3 0 0 1 .63 1.11c.13.41.18.83.18 1.25 0 .92-.23 1.66-.71 2.21zM155.77 60.56a2.18 2.18 0 0 0-1.25 1.58c-.1.37-.14.79-.14 1.25v3.69c0 .9.21 1.64.63 2.21.42.57 1.07.85 1.96.85.88 0 1.53-.28 1.95-.85.42-.57.63-1.31.63-2.21v-3.69c0-.46-.04-.88-.13-1.25a2.66 2.66 0 0 0-.45-.96 2.36 2.36 0 0 0-.8-.62 2.92 2.92 0 0 0-1.2-.22c-.47 0-.88.07-1.2.22zm-.54 10.58a3.52 3.52 0 0 1-1.24-.94 3.99 3.99 0 0 1-.74-1.4 5.68 5.68 0 0 1-.25-1.72v-3.69c0-.6.07-1.16.21-1.7a3.53 3.53 0 0 1 1.93-2.34 4.27 4.27 0 0 1 1.83-.35c.71 0 1.32.11 1.81.35.51.24.92.55 1.24.95.32.39.55.86.7 1.39.14.54.21 1.1.21 1.7v3.69c0 .61-.08 1.18-.25 1.72a3.83 3.83 0 0 1-.74 1.4c-.33.4-.74.71-1.24.94-.5.23-1.08.35-1.73.35-.66 0-1.23-.12-1.74-.35zM181.36 69a3.44 3.44 0 0 1-1.95 2.18c-.47.2-1 .31-1.6.31a4.2 4.2 0 0 1-1.63-.31c-.48-.21-.88-.5-1.2-.87-.32-.36-.57-.8-.73-1.31a5.1 5.1 0 0 1-.25-1.65v-7.63a.7.7 0 0 1 .71-.72c.18 0 .33.07.47.21.13.14.2.31.2.51v7.63c0 .83.2 1.5.59 2.02.4.51 1.01.77 1.84.77.42 0 .78-.07 1.08-.21.3-.13.55-.32.75-.58.19-.24.34-.53.44-.88a4 4 0 0 0 .15-1.12v-7.63c0-.2.06-.37.18-.51a.63.63 0 0 1 .48-.21.7.7 0 0 1 .52.21.7.7 0 0 1 .21.51v7.63c0 .6-.08 1.15-.26 1.65M196.38 65.32h1.98c.83 0 1.45-.2 1.87-.6.42-.4.63-1.03.63-1.88 0-.31-.03-.62-.1-.91-.07-.3-.2-.57-.38-.8a1.83 1.83 0 0 0-.77-.57 3.18 3.18 0 0 0-1.25-.22h-1.98zm0 1.34v3.93c0 .2-.07.37-.2.51a.63.63 0 0 1-.49.22.62.62 0 0 1-.48-.22.7.7 0 0 1-.21-.51V59.83a.8.8 0 0 1 .24-.59.8.8 0 0 1 .59-.24h2.53c.71 0 1.32.11 1.81.32a3.17 3.17 0 0 1 1.87 2.08c.14.47.21.95.21 1.46 0 1.23-.36 2.17-1.06 2.82-.7.66-1.64.98-2.83.98z"/></svg>