<svg xmlns="http://www.w3.org/2000/svg" width="61" height="42" viewBox="0 0 61 42"><path fill="#fe4b00" d="M21.71 1a.5.5 0 0 0-.41.25l-4 6.93a.5.5 0 0 0 .18.68l.64.37h-7.83A2.3 2.3 0 0 0 8 11.53v11.69l-.65.38-1.94 1.12-.3.17-.04.02-.04.03-.64.36-1.69.98a1.67 1.67 0 0 0-.66 2.19l-.6.35a.9.9 0 0 0-.32 1.22l.78 1.36a.9.9 0 0 0 1.22.32l.59-.34c.37.55 1.02.82 1.65.72l.94 3.16h-.8a.5.5 0 0 0-.5.5 5.47 5.47 0 0 0 5.47 5.47h39.06c2.86 0 5.21-2.2 5.45-5h.54c.79 0 1.48-.61 1.48-1.4v-7.19c0-.51-.29-.94-.7-1.19l.65-2.44c.19-.7-.23-1.44-.93-1.63l-3.02-.8v-1.02c0-.61-.43-1.13-1-1.28v-7.75a2.3 2.3 0 0 0-2.29-2.3h-7.83l.64-.37a.5.5 0 0 0 .18-.68l-4-6.93a.52.52 0 0 0-.3-.23.46.46 0 0 0-.38.05l-2.6 1.5a.48.48 0 0 0-.24.3.55.55 0 0 0 .05.38l.08.14-1.38.79-.12-.06-.08-.05a4.16 4.16 0 0 0-1.02-.32l-.05-.01-.33-.04h-.3c-.13 0-.25 0-.37.02h-.07l-.09.02a3.82 3.82 0 0 0-1.35.46h-.01l-.13.08H30l-.16-.08a4.02 4.02 0 0 0-1.44-.46h-.01a3.75 3.75 0 0 0-.67-.02l-.17.02a9 9 0 0 0-.51.08l-.17.05c-.22.06-.43.13-.63.23l-.16.09-1.39-.8.08-.14a.55.55 0 0 0 .05-.38.48.48 0 0 0-.24-.3l-2.6-1.5a.5.5 0 0 0-.27-.07zm.21 1.18l1.73 1-.02.04a.41.41 0 0 0-.12.2l-2.37 4.1a.51.51 0 0 0-.14.26l-.84 1.45h-.03l-1.71-.99zm16.16 0l3.5 6.06-1.71.99h-.03l-.89-1.55-.02-.04-2.58-4.46zM24.19 4.25l1.02.59-.05.06-.14.15c-.15.18-.29.36-.41.57L23.58 7.4l-.03.07c-.1.18-.18.36-.25.55l-.09.29-1.02-.59zm11.62 0l2 3.47-1.03.59a3.5 3.5 0 0 0-.36-.91l-1.03-1.78a3.52 3.52 0 0 0-.3-.45l-.12-.13-.17-.2zm-3.7.45h.15c.22.01.43.05.64.12l.09.03c.16.06.33.14.48.22l.14.09c.14.09.27.2.39.31l.12.11c.15.16.29.34.41.54l1.02 1.78c.34.58.44 1.23.35 1.84l-.16-.12-3.43-1.97c.02-.24-.03-.48-.14-.71a.61.61 0 0 0-.05-.12l-.02-.03a1.53 1.53 0 0 0-2.08-.5L30 6.3l-.13.09-1.89 1.09c-.36.21-.79.08-1.16-.2l1.04-.6 2.4-1.38.01-.01.37-.22h.01a2.18 2.18 0 0 1 .63-.26c.1-.04.21-.06.31-.07a1.55 1.55 0 0 1 .52-.04zm-4.38.01a3 3 0 0 1 1.1.13l.12.06-1.59.92-1.63.94a.5.5 0 0 0-.18.68c.61 1.05 1.92 1.49 2.93.9l1.53-.88 1.02.59.07.05.4.23.02.01 3.72 2.15c.18.1.24.31.14.5l-.05.06a.37.37 0 0 1-.47.09l-4.11-2.38-.44-.25a.5.5 0 0 0-.5.87l.44.25L34.36 12l.42.24.06.07c.14.12.18.3.09.46l-.1.11a.33.33 0 0 1-.27.07.24.24 0 0 1-.14-.05l-.43-.25-4.12-2.37-.43-.25a.5.5 0 0 0-.68.18.5.5 0 0 0 .18.69l.43.24 4.12 2.38.11.1.07.12v.01c.02.09.01.19-.05.28a.3.3 0 0 1-.1.12.35.35 0 0 1-.26.07c-.05-.01-.1-.02-.15-.05l-.87-.5-3.68-2.13-.86-.5a.5.5 0 0 0-.67.2.5.5 0 0 0 .17.67l.86.5 3.68 2.12c.19.11.25.33.14.52l-.1.11a.38.38 0 0 1-.27.08.53.53 0 0 1-.14-.06l-4.28-2.47h-.01l-.26-.15-1.34-.78c-.12-.06-.22-.15-.32-.22a2.92 2.92 0 0 1-.9-1.21l-.01-.03a3.31 3.31 0 0 1-.18-.9V9.2l.02-.28.07-.31.06-.21c.06-.17.13-.34.23-.5l1.02-1.78a2.8 2.8 0 0 1 2.26-1.41zm-7.99 2.67a.5.5 0 0 0-.39.25.5.5 0 0 0 .18.68.5.5 0 0 0 .68-.18.51.51 0 0 0 .06-.38.48.48 0 0 0-.24-.3.48.48 0 0 0-.29-.07zm20.46 0a.39.39 0 0 0-.23.07.48.48 0 0 0-.24.3.56.56 0 0 0 .05.38.5.5 0 0 0 .87-.5.5.5 0 0 0-.45-.25zm-18.51 1.2l1.12.65h-1.5zm16.62 0l.38.65h-1.5zm-28.02 1.65h9.57l.22.13c.22.13.5.07.65-.13h2.45c.17.69.53 1.32 1.05 1.83-.03.06-.07.12-.09.19H11.5a.5.5 0 0 0-.5.5v5.54l-1.22.7a.53.53 0 0 0-.24.31.51.51 0 0 0 .06.38l.14.24c.42.96.11 2.08-.74 2.7V11.53c0-.73.57-1.3 1.29-1.3zm26.44 0h2.54c.15.2.43.26.65.13l.22-.13h9.57c.72 0 1.29.57 1.29 1.3v7.7h-2v-6.48a.5.5 0 0 0-.5-.5H35.86a1.77 1.77 0 0 0-.15-.31l.06-.07c.18-.1.36-.18.47-.37.09-.16.14-.33.17-.5.13-.24.24-.5.32-.77zm-11.68 2.46l.43.25a.36.36 0 0 1-.41-.17c-.02-.03-.01-.05-.02-.08zM12 13.25h12.2v.01c.26.45.74.6 1.22.59 0 .23-.03.47.09.68.34.59 1.06.77 1.68.53.02.16-.03.33.06.49.38.65 1.23.88 1.88.5l.87-.5.87.5c.65.38 1.5.15 1.88-.5.09-.16.04-.33.06-.49.15.06.32.09.47.1.32.01.64-.07.89-.26.12-.1.23-.22.32-.37.12-.21.08-.45.09-.68.48.01.96-.14 1.22-.58v-.02H48v5.98h-1.68c-.73 0-1.32.6-1.32 1.33v1.02l-1.93.51c-.06.01-.13.02-.18.05l-.91.24c-.7.19-1.13.93-.94 1.63l.65 2.44c-.41.24-.69.68-.69 1.19v4.61H12V28.4l.05-.03c1-.57 2.24-.29 2.92.61l.13.22c.11.2.34.29.56.23a.41.41 0 0 0 .21-.1l1.64-.94a.5.5 0 0 0 .18-.69l-1.43-2.48a2.87 2.87 0 0 0 .68-3.63 2.87 2.87 0 0 0-3.49-1.23l-1.26-2.18a.44.44 0 0 0-.19-.19zm14.5.28l.08.04.01.01.66.38-.36.21c-.19.11-.4.05-.51-.14a.36.36 0 0 1 .12-.5zm1.75 1.01l.75.43-.37.21c-.19.11-.4.06-.51-.13a.36.36 0 0 1 .13-.51zm-13.51 1.48l-.79 1.36.87.5.78-1.36zm40.4.35a.5.5 0 0 0-.14.36.5.5 0 0 0-.44.24.52.52 0 0 0 0 .51c.09.15.26.25.44.25 0 .18.09.34.25.43.15.1.35.1.5 0a.48.48 0 0 0 .25-.43c.18 0 .35-.1.44-.25a.52.52 0 0 0 0-.51.5.5 0 0 0-.44-.24.51.51 0 0 0-.15-.37.5.5 0 0 0-.36-.14.47.47 0 0 0-.35.15zm-14.65-.14a.5.5 0 0 0-.49.51v.49h-.49a.5.5 0 1 0 0 1H40v.5c0 .18.09.34.25.43.15.1.35.1.5 0a.48.48 0 0 0 .25-.43v-.5h.49a.5.5 0 1 0 0-1H41v-.49a.48.48 0 0 0-.15-.36.48.48 0 0 0-.36-.15zm-23.4 1.43l-1.11 1.11.71.71 1.11-1.11zm15.07.89a2 2 0 0 0-2 2c0 .18.03.35.08.52l-3.94 1.97a2.25 2.25 0 1 0-1.39 4.01c.51 0 .98-.18 1.35-.47l3.97 1.98a2 2 0 0 0-.07.49c0 1.1.9 2 2 2a2 2 0 0 0 2-2 2 2 0 0 0-2-2c-.57 0-1.09.24-1.45.63l-3.79-1.89a2.2 2.2 0 0 0 .02-1.95l3.8-1.9c.36.37.86.61 1.42.61a2 2 0 0 0 2-2 2 2 0 0 0-2-2zm-20.58.56l5 8.66-.85.49-5-8.66zm20.58.44c.56 0 1 .44 1 1s-.44 1-1 1-1-.44-1-1 .44-1 1-1zm-13.22.31l-1.36.79.5.86 1.36-.78zm27.38.37h.66a.77.77 0 0 1-.22.66c-.18.19-.46.31-.76.34v-.67c0-.19.13-.33.32-.33zm1.66 0h2.03c-.01.46.15.93.49 1.29.39.41.93.65 1.5.69v4.02h-.97v-1.26h-.55v.55c0 .35-.11.57-.28.71h-.25v-1.26h-.54v1.26h-.25c-.17-.14-.29-.36-.29-.71v-.55h-.54v.15l-1.09 1.11H46v-4.02c.56-.04 1.1-.27 1.5-.69.34-.36.49-.83.48-1.29zm3.03 0h.66c.19 0 .33.14.33.33v.67a1.22 1.22 0 0 1-.76-.34.78.78 0 0 1-.23-.66zm-13.51 1a.5.5 0 0 0-.5.5c0 .28.22.5.5.5a.5.5 0 0 0 .5-.5.5.5 0 0 0-.5-.5zm-22.85.06c.57.01 1.11.26 1.42.8.42.72.19 1.53-.35 2.11l-1.64-2.86c.19-.04.38-.06.57-.05zm-3.87.44l3.15 5.45a3.23 3.23 0 0 0-2.38.33l-1.46.84-1.84 1.06-2.24-3.88 1.84-1.06 1.46-.85a3.2 3.2 0 0 0 1.47-1.89zm48.72.5a.5.5 0 0 0-.5.5c0 .28.22.5.5.5a.5.5 0 0 0 .5-.5.5.5 0 0 0-.5-.5zm-39.34.23l-1.52.4.26.97 1.52-.41zm24.84.15v3.62h-2.33l-.21-.78a1.99 1.99 0 0 0 1.3-1.1c.2-.46.21-.96.06-1.43zm8 0l1.24.34a1.98 1.98 0 0 0 1.27 2.58l-.19.7H53zm-10.13.57a1 1 0 0 1-.02.76c-.13.27-.36.47-.65.55l-.19-.74a.31.31 0 0 1 .23-.4zm12.34.03l.55.14c.18.05.28.22.23.4l-.22.82a.99.99 0 0 1-.56-1.36zm-30.3.34c.7 0 1.25.55 1.25 1.25 0 .69-.55 1.25-1.25 1.25s-1.25-.56-1.25-1.25c0-.7.55-1.25 1.25-1.25zm-5.82 1.73v1h1.57v-1zm29.27.58c.03.13.08.26.14.37H48zm-43.22.17l2.25 3.88-.25.15-1.7.98a.66.66 0 0 1-.92-.25l-.18-.31-.02-.03-1.18-2.04-.19-.34a.66.66 0 0 1 .25-.92l1.69-.98zm32.99.34a.5.5 0 0 0-.14.36.5.5 0 0 0-.44.24.52.52 0 0 0 0 .51c.09.15.26.25.44.25 0 .18.09.34.25.43.16.1.35.1.5 0a.48.48 0 0 0 .25-.43c.18 0 .35-.1.44-.25a.52.52 0 0 0 0-.51.5.5 0 0 0-.44-.24.55.55 0 0 0-.14-.37.54.54 0 0 0-.36-.14.5.5 0 0 0-.36.15zm4.35.86h13.04c.29 0 .48.2.48.41v2.19h-4.84a.5.5 0 0 0-.39.19l-.67.85a.5.5 0 0 0-.1.31v1.7c0 .11.03.22.1.31l.67.85a.5.5 0 0 0 .39.19H56v.6c0 .21-.19.4-.48.4H42.48c-.3 0-.48-.19-.48-.4v-7.19c0-.21.18-.41.48-.41zm-10.32.82c.56 0 1 .44 1 1s-.44 1-1 1a.99.99 0 0 1-.92-1.39v-.01a.36.36 0 0 0 .08-.12.99.99 0 0 1 .84-.48zm27.33.18a.5.5 0 0 0-.49.51v.49h-.49a.5.5 0 1 0 0 1H59v.5c0 .18.09.34.25.43.15.1.35.1.5 0a.48.48 0 0 0 .25-.43v-.5h.49a.5.5 0 1 0 0-1H60v-.49a.48.48 0 0 0-.15-.36.48.48 0 0 0-.36-.15zM11 28.98v3.77c0 .27.22.5.5.5H41v1.58c0 .15.03.29.08.43H10l-1-3.42v-1.7l1.59-.92zm-8.47.37l.67 1.17-.49.28-.67-1.17zm48.88 1.48H56v2.4h-4.59l-.41-.52v-1.36zm-43.72.08l1.27 4.35H7.34l-1.05-3.54zm44.77.65a.5.5 0 0 0 .04 1c.13 0 .26-.05.35-.15a.5.5 0 0 0 .15-.35.5.5 0 0 0-.5-.5h-.04zM6.1 36.26H25v.83c0 .99.8 1.82 1.78 1.82h6.43c.99 0 1.79-.83 1.79-1.82v-.83h18.9a4.4 4.4 0 0 1-4.37 3.97H10.47a4.4 4.4 0 0 1-4.37-3.97zm19.9 0h8v.83a.8.8 0 0 1-.79.82h-6.43a.8.8 0 0 1-.78-.82z"/></svg>