<svg xmlns="http://www.w3.org/2000/svg" width="61" height="44" viewBox="0 0 61 44"><path fill="#fe4b00" d="M29.58 0a4.5 4.5 0 0 0-4.5 4.5c0 1.42.67 2.67 1.71 3.5h-.21c-1.48 0-2.78.72-3.6 1.82a3.7 3.7 0 0 0-.83-.11h-.24a3.9 3.9 0 0 0-2.33-7.07 3.9 3.9 0 1 0-2.33 7.07h-.24c-1.58 0-2.94.94-3.56 2.29h-3.6a2.3 2.3 0 0 0-2.29 2.3v7.68a2.16 2.16 0 0 0-3.58 1.62c0 .3.06.58.18.84l-2.28 1.94A1.5 1.5 0 0 0 0 27.81c0 .82.68 1.49 1.5 1.49l.21-.02 2.01 3.31c-.08.17-.14.35-.14.55 0 .71.59 1.29 1.3 1.29a1.3 1.3 0 0 0 1.23-.91l1.45-.48v4.99h-2.5a.5.5 0 0 0-.5.5A5.47 5.47 0 0 0 10.03 44h39.05a5.47 5.47 0 0 0 5.48-5.47.5.5 0 0 0-.5-.5h-2.5v-8.42c.55.35.93.94 1.02 1.62v.27c0 .28.22.5.5.5h2a.5.5 0 0 0 .5-.5v-2.86a2.86 2.86 0 0 0 2.4-2.81 2.87 2.87 0 0 0-2.4-2.81V20.5a.5.5 0 0 0-.5-.5h-2a.5.5 0 0 0-.5.5v.3a2.25 2.25 0 0 1-1.02 1.62V14.3a2.3 2.3 0 0 0-2.29-2.3h-3.56a3.93 3.93 0 0 0-3.56-2.29h-.67a3.9 3.9 0 0 0-2.33-7.07 3.91 3.91 0 1 0-2.31 7.09 3.5 3.5 0 0 0-.66.09A4.48 4.48 0 0 0 32.58 8h-.21a4.5 4.5 0 0 0-2.79-8zm0 1a3.5 3.5 0 0 1 3.5 3.5 3.5 3.5 0 0 1-3.5 3.5 3.5 3.5 0 0 1-3.5-3.5 3.5 3.5 0 0 1 3.5-3.5zm-10 2.64a2.93 2.93 0 1 1 0 5.86 2.93 2.93 0 0 1 0-5.86zm19.57 0a2.93 2.93 0 1 1 0 5.86 2.93 2.93 0 0 1 0-5.86zM26.58 9h6c1.22 0 2.29.61 2.91 1.55l.05.11a3.57 3.57 0 0 1 .42.99c.03.08.04.16.06.25.03.19.06.39.06.6V19h-1.41v-4.06h-1V19h-8v-4.06h-1V19h-1.59v-6.5a2.98 2.98 0 0 1 .12-.87l.07-.24c.09-.26.2-.51.35-.73l.05-.11A3.47 3.47 0 0 1 26.58 9zm-9.57 1.71h5.14c.09 0 .19.03.28.05-.17.4-.26.83-.3 1.27-.03.15-.05.31-.05.47V19h-5.41v-3.06h-1V19h-1.59v-5.36a2.9 2.9 0 0 1 2.93-2.93zm20 0h5.14c1.63 0 2.93 1.3 2.93 2.93V19h-2.41v-3.06h-1V19h-4.59v-6.5c0-.16-.02-.32-.05-.47a4.9 4.9 0 0 0-.3-1.27c.09-.02.18-.05.28-.05zM9.85 13h3.29c-.03.21-.06.42-.06.64v1.38h-2.02a.5.5 0 0 0-.5.5v20c0 .27.22.5.5.5h37a.5.5 0 0 0 .5-.5v-6.26h1.8l.2.02v8.75h-42V14.3c0-.73.56-1.3 1.29-1.3zm36.16 0h3.26c.72 0 1.29.57 1.29 1.3v8.45l-.2.02h-1.8v-7.25a.5.5 0 0 0-.5-.5h-1.98v-1.38c0-.22-.03-.43-.07-.64zm-34.45 3.02h1.52v3.48c0 .28.22.5.5.5h32a.5.5 0 0 0 .5-.5v-3.48h1.48v6.75H43.3c-.88 0-1.61.7-1.66 1.57h-.69a.9.9 0 0 0-.89.89v1.57c0 .49.4.89.89.89h.69c.04.67.47 1.23 1.07 1.46l-1.16 4.91c-.03.14 0 .26.07.35.07.1.19.15.33.15h2.75c.13 0 .27-.05.39-.15.11-.09.2-.21.23-.35l1.13-4.8h1.11v5.76h-36zm47.3 3.89l-1.36.78.5.87 1.36-.79zM53.61 21h.97v10h-.97zM6.15 22.45c.65 0 1.16.51 1.16 1.15 0 .64-.51 1.15-1.16 1.15a1.15 1.15 0 1 1 0-2.3zm53.93.06l-1.52.4.26.97 1.51-.41zm-7.5.36v6.29a3.23 3.23 0 0 0-2.22-.9h-3.81v-4.49h3.81c.86 0 1.64-.35 2.22-.9zm-9.28.9h2.25v4.49H43.3a.66.66 0 0 1-.67-.67v-3.14c0-.38.29-.68.67-.68zm12.33.42c.75.23 1.35.81 1.35 1.64 0 .83-.6 1.41-1.35 1.65zm-42.58.31a.53.53 0 0 0-.35.15.54.54 0 0 0-.14.36v7.92c-.02.15.02.29.12.41.1.11.24.17.39.17h11.98c.19 0 .35-.09.44-.25a.5.5 0 0 0 0-.5.49.49 0 0 0-.44-.25H14.26l2.3-2.3.65.65c.19.19.51.19.71 0l1.64-1.65.65.65c.19.19.51.19.71 0l3.65-3.66v.81a.5.5 0 1 0 1 0v-2a.5.5 0 0 0-.5-.5h-2a.5.5 0 1 0 0 1h.78l-3.29 3.28-.64-.64a.5.5 0 0 0-.71 0l-1.65 1.64-.64-.64a.5.5 0 0 0-.71 0l-2.65 2.64v-6.78a.5.5 0 0 0-.14-.36.51.51 0 0 0-.37-.15zm15 0a.5.5 0 0 0-.49.51v8c0 .27.22.5.5.5h9.99a.5.5 0 1 0 0-1h-1.49v-5.52a.5.5 0 0 0-.14-.36.5.5 0 0 0-.36-.14.45.45 0 0 0-.35.15.47.47 0 0 0-.15.35v5.52h-1v-6.52a.5.5 0 0 0-.14-.36.5.5 0 0 0-.36-.14.45.45 0 0 0-.35.15.47.47 0 0 0-.15.35v6.52h-1v-4.52a.5.5 0 0 0-.14-.36.5.5 0 0 0-.36-.14.45.45 0 0 0-.35.15.47.47 0 0 0-.15.35v4.52h-1v-2.52a.5.5 0 0 0-.14-.36.5.5 0 0 0-.36-.14.45.45 0 0 0-.35.15.47.47 0 0 0-.15.35v2.52h-1v-7.5a.48.48 0 0 0-.15-.36.5.5 0 0 0-.36-.15zm-20.49.71v2.66a1.38 1.38 0 0 0-2.24.21l-2.34-.4a1.5 1.5 0 0 0-.26-.71l2.05-1.73c.37.31.85.51 1.38.51.54 0 1.03-.21 1.41-.54zm51.45.12v1h1.57v-1zm-17.95.01h.57v1.35h-.57zM1.5 27.33c.28 0 .49.21.49.48s-.21.49-.49.49a.49.49 0 0 1-.5-.49c0-.27.21-.48.5-.48zm57.32.45l-.26.97 1.52.41.25-.97zm-52.31.61c.22 0 .39.16.39.38 0 .21-.17.38-.39.38a.38.38 0 0 1-.39-.38c0-.22.17-.38.39-.38zm-3.79.26l2.44.42c.08.33.27.62.55.81l-.89 1.98c-.11 0-.23.02-.34.06L2.6 28.8l.12-.15zm40.98.61h1.73l-1.01 4.31h-1.74zm-36.14.4v2.33l-1.58.52a1.1 1.1 0 0 0-.22-.3l.94-2.08c.34-.05.64-.22.86-.47zM58 30.1l-.5.87 1.36.78.5-.86zM4.88 32.85c.17 0 .3.13.3.29a.3.3 0 0 1-.3.29.3.3 0 0 1-.3-.29.3.3 0 0 1 .3-.29zm.78 6.18h19.9v1.26c0 1 .79 1.83 1.78 1.83h6.43c.99 0 1.79-.83 1.79-1.83v-1.26h17.9A4.41 4.41 0 0 1 49.08 43H10.03a4.4 4.4 0 0 1-4.37-3.97zm20.9.43h8v.83c0 .48-.35.83-.79.83h-6.43c-.43 0-.78-.35-.78-.83z"/></svg>