<svg xmlns="http://www.w3.org/2000/svg" width="53" height="45" viewBox="0 0 53 45"><path fill="#ff4d02" d="M24.02 0a.94.94 0 0 0-.94.93v.11h-5.44c-.84 0-1.55.66-1.55 1.5v9.49H7.36a2.3 2.3 0 0 0-2.29 2.29v4.73h1v-4.73c0-.72.57-1.29 1.29-1.29h8.73v2.01H8.57a.5.5 0 0 0-.5.5v3.5h1v-3h7.02v.99l-.74.54-.03.02v.01l-1.2.9a2 2 0 0 0-.4 2.79l.6.81c.43.57 1.11.83 1.77.78v2.64c0 .83.71 1.49 1.55 1.49h18.88c.84 0 1.55-.66 1.55-1.49v-9.48h7v2.99a.76.76 0 0 0-.73.75v1.01c-.18.05-.35.12-.52.2l-.71-.71a.75.75 0 0 0-1.06 0l-.7.7a.77.77 0 0 0-.01 1.07l.71.71-.21.51h-1.01c-.4 0-.75.35-.75.75v1c0 .41.34.75.75.75h1.01c.06.18.13.35.21.51l-.71.71a.76.76 0 0 0-.01 1.06l.71.71c.29.29.77.29 1.06.01v-.01l.71-.71c.17.09.34.16.52.22l-.01 1c0 .41.34.75.75.76v5.01h-.71v-.08a.86.86 0 0 0-.85-.85h-1.58a5.83 5.83 0 0 0-.41-1l1.11-1.12a.86.86 0 0 0 0-1.21l-1.01-1.01a.86.86 0 0 0-1.21 0l-1.12 1.11a5.13 5.13 0 0 0-1-.41v-1.58a.86.86 0 0 0-.85-.86h-1.43a.87.87 0 0 0-.86.86v1.58c-.34.1-.68.24-1 .41l-1.11-1.11a.86.86 0 0 0-1.21 0l-1.01 1.01a.86.86 0 0 0 0 1.21l1.12 1.12a4.6 4.6 0 0 0-.42 1h-1.58a.86.86 0 0 0-.86.85v.08H10.1c.01-.14.01-.29.03-.42.05-.44.15-.83.27-1.2l.4.83.24-.12.01-.01.52-.3.03-.03.48-.34.02-.02.02-.01.43-.37-.66-.76-.39.35h-.01l-.44.32-.49.3-.12.06c.3-.85.74-1.54 1.22-2.23.69-1.02 1.42-2.1 1.42-3.63a5.47 5.47 0 0 0-5.49-5.44 5.47 5.47 0 0 0-5.49 5.44c0 1.54.74 2.61 1.44 3.64.69 1.02 1.36 2.01 1.52 3.56l.01.97.01.09v1.63c0 .26.09.5.22.7H2.57a.5.5 0 0 0-.5.5 5.47 5.47 0 0 0 5.47 5.48H46.6a5.47 5.47 0 0 0 5.47-5.48.5.5 0 0 0-.5-.5h-2.5V28.8l.04-.02v-.01l.71-.7a.75.75 0 0 0 0-1.06l-.71-.72c.08-.16.15-.33.21-.51h1.01c.41 0 .75-.34.75-.75v-1a.76.76 0 0 0-.75-.75h-1.01a2.87 2.87 0 0 0-.21-.51l.71-.71c.3-.29.29-.77.01-1.06l-.71-.71c-.01-.02-.03-.02-.05-.03v-5.94a2.3 2.3 0 0 0-2.29-2.29h-8.71V2.54c0-.84-.71-1.5-1.55-1.5h-5.44V.93a.93.93 0 0 0-.93-.93zm.05.99h6.02v.43a.49.49 0 0 0 0 .24v1.37h-6.02V1.64a.41.41 0 0 0 0-.22zm-6.43 1.05h.45v13.53l-1 .73V2.54c0-.27.23-.5.55-.5zm1.45 0h3.99v1.05c0 .51.43.94.94.94h6.13c.51 0 .93-.43.93-.94V2.04h3.97v17.04h-2.12c-.81 0-1.36.47-1.58.91-.23.45-.22.87-.22.87v2.17H19.8a.7.7 0 0 1-.71-.69v-1.31l4.12-3h3.86v-1h-2.5l1.37-1h8.13v-1h-6.76l1.37-1h5.39v-1H30l.02-.04.01-.02.01-.01v-.01l.46-.92h3.57v-1H31l.5-1h2.57v-1H32l.03-.06a.5.5 0 0 0-.48-.72l-.06.01-4.21.77h-1.2v.71l-1.76 1.29h-4.25v1h2.88l-1.37 1h-1.51v1h.14l-1.12.81zm16.96 0h.47c.32 0 .55.23.55.5v22.98c0 .27-.23.49-.55.49H17.64c-.32 0-.55-.22-.55-.49v-3.01l.03-.02.97-.73v.58c0 .93.78 1.69 1.71 1.69h12.12c.13 0 .25-.06.35-.15l3.63-3.57c.1-.09.15-.22.15-.35zM20.58 5.03a.5.5 0 0 0-.5.5v4c0 .27.22.5.5.5h4a.5.5 0 0 0 .5-.5v-4a.5.5 0 0 0-.5-.5zm5.5 0v1h7.99v-1zm-4.29 1h1.58l-.79.79zm-.71.7l.79.8-.79.79zm3 0v1.59l-.79-.79zm2 .3v1h7.99v-1zm-3.5 1.2l.79.8h-1.58zm8.11 1.19L29.5 11.8l-1.43-1.9zm-3.61.82l.6.8-10.81 7.79-.55-.73zm1.2 1.6l.6.8-10.76 7.86-.65-.87zm9.79 1.19h8.71c.72 0 1.29.57 1.29 1.29v5.96l-.01.01-.71.71a5.49 5.49 0 0 0-.51-.21v-1.01a.76.76 0 0 0-.75-.75h-.02v-3.49a.5.5 0 0 0-.5-.5h-7.5zM15.52 18.7l1.8 2.4-.8.6a1 1 0 0 1-1.4-.21l-.6-.79a1 1 0 0 1 .2-1.41zm29.82 1.33h.5v1.08c0 .23.16.44.39.49.34.07.67.21.97.4.2.13.46.1.62-.06l.77-.77.35.36-.76.76a.49.49 0 0 0-.07.62c.19.3.32.63.4.97.05.23.25.4.48.4h1.09v.5h-1.09a.5.5 0 0 0-.49.39 2.9 2.9 0 0 1-.4.98c-.12.2-.09.45.07.62l.76.77-.35.35-.77-.77a.5.5 0 0 0-.62-.07c-.3.19-.63.33-.97.41a.5.5 0 0 0-.39.48l-.01 1.09h-.5l.01-1.09a.5.5 0 0 0-.4-.49 2.93 2.93 0 0 1-.97-.4.49.49 0 0 0-.62.07l-.77.76-.35-.35.77-.77a.5.5 0 0 0 .06-.62c-.19-.3-.32-.63-.4-.98a.5.5 0 0 0-.49-.39h-1.08v-.5h1.09a.5.5 0 0 0 .48-.39c.08-.34.22-.67.41-.97.13-.2.1-.46-.07-.62l-.76-.77.35-.36.76.77c.17.17.43.19.63.07.3-.19.63-.33.97-.4a.5.5 0 0 0 .4-.49zm-37.09.04l-.08 1 .15.01.52.09h.01l.55.15h.01l.48.18.02.01.01-.01v.01l.01-.04.44-.85-.06-.03-.02-.02-.03-.01-.55-.19-.04-.02-.58-.15h-.02l-.02-.01-.59-.1h-.04zm24.68.01h1.78l-2.58 2.54v-1.76s.01-.21.11-.41c.1-.21.2-.37.69-.37zm-26.8.07l-.22.04-.02.01h-.02l-.57.15-.06.02-1.07.43-.08.04-.02.02.35.58.12.29 1.05-.42.53-.14.18-.03zm6.01 1.54l-.59.8.17.13.75.77.31.45.82-.57-.33-.48-.02-.04-.03-.03-.81-.83-.03-.02-.03-.03zm33.4.33c-.27.01-.55.06-.82.16l.34.94a1.5 1.5 0 0 1 1.63 2.42 1.5 1.5 0 0 1-2.56-1.41l-.96-.26a2.5 2.5 0 1 0 2.37-1.85zm-43.16.04l-.21.19-.03.02-.03.04-.74.89-.02.03-.01.02-.3.47.84.54.28-.45.7-.83.18-.16zm5.21.96a4.45 4.45 0 0 1 4.49 4.44c0 1.22-.56 2.04-1.25 3.06-.63.93-1.34 2-1.62 3.51H7.75v-2.5a.5.5 0 0 0-.5-.5.5.5 0 0 0-.5.5v2.5h-.78a8.64 8.64 0 0 0-1.61-3.49c-.69-1.03-1.26-1.86-1.26-3.08 0-2.46 2-4.44 4.49-4.44zm-.34 1.01a3.68 3.68 0 0 0-3.67 3.67.28.28 0 1 0 .42.25.27.27 0 0 0 .14-.25 3.12 3.12 0 0 1 3.11-3.11c.1.01.2-.05.26-.14a.3.3 0 0 0 0-.29.28.28 0 0 0-.26-.13zm7.32 1.15l-.95.3.1.31.13.56.07.53v.01l.03.43 1-.06-.03-.43v-.04l-.09-.6v-.02l-.01-.03-.13-.59-.01-.02v-.02zm-14.35.55l-.09.42-.01.02v.02l-.08.6v.02l-.01.02-.03.59v.04l.01.38 1-.03-.01-.35.03-.56.08-.55.09-.4zm47.12 2.33l.71.71.02.02v9.26H9.86c.13-.2.22-.44.22-.7v-1.31h35.49a.5.5 0 0 0 .5-.5v-5.51c.41 0 .75-.35.75-.75l.01-1.01.51-.21zm-11.19.97h1.14v1.76c0 .24.17.44.4.49.52.12 1.01.32 1.46.61.19.13.45.1.62-.07l1.25-1.25.8.81-1.24 1.25a.5.5 0 0 0-.07.62c.29.45.49.94.6 1.46a.5.5 0 0 0 .25.33h-1.34a3.37 3.37 0 0 0-4.6-2.46l.39.92a2.33 2.33 0 0 1 3.17 1.54h-4.52c.03-.09.05-.19.09-.28.12-.28.3-.54.51-.75l-.71-.71a3.54 3.54 0 0 0-.92 1.74h-1.34a.5.5 0 0 0 .24-.33c.12-.52.32-1.01.61-1.46a.49.49 0 0 0-.07-.62l-1.24-1.25.8-.81 1.25 1.25c.16.16.42.19.62.07.45-.29.94-.49 1.46-.6a.5.5 0 0 0 .39-.49zm-22.42.12l-.12.46-.41.98-.16.25.84.54.18-.28.04-.08.45-1.06.02-.04.01-.04.12-.49zm-12.36.47l-.95.32.17.5.01.04.02.04.53 1.02.02.04.03.03.19.25.8-.61-.17-.21-.49-.95zm2.08 3.01l-.1.15-.54.62.02.02.04.02.48.35.02.01.01.02.52.31.52-.86-.48-.29-.01-.01-.47-.33zm2.63 2.4h3v2.32c0 .18-.09.21-.07.21H6.15c.02 0-.07-.03-.07-.21v-.32h2v-1h-2zm-2.91 4.02h18.9v.83c0 1 .8 1.83 1.79 1.83h6.43c.98 0 1.78-.83 1.78-1.83v-.83h18.9a4.4 4.4 0 0 1-4.37 3.98H7.54a4.41 4.41 0 0 1-4.37-3.98zm19.9 0h8v.83c0 .48-.35.83-.78.83h-6.43c-.44 0-.79-.35-.79-.83z"/></svg>