<?xml version="1.0" encoding="UTF-8"?>
<svg width="111px" height="97px" viewBox="0 0 111 97" version="1.1" xmlns="http://www.w3.org/2000/svg" xmlns:xlink="http://www.w3.org/1999/xlink">
    <!-- Generator: Sketch 43.2 (39069) - http://www.bohemiancoding.com/sketch -->
    <title>Shape</title>
    <desc>Created with Sketch.</desc>
    <defs></defs>
    <g id="Page-1" stroke="none" stroke-width="1" fill="none" fill-rule="evenodd">
        <g id="Mobile" transform="translate(-649.000000, -2689.000000)" fill="#FF4D02">
            <path d="M705.47774,2689 C703.756289,2688.99998 702.345634,2690.42733 702.345634,2692.14874 C702.345634,2692.30409 702.36922,2692.4524 702.391388,2692.60213 L695.474135,2696.78659 C695.119318,2696.61368 694.735902,2696.49959 694.317793,2696.49959 C692.824599,2696.49959 691.601615,2697.74108 691.601636,2699.23238 C691.601636,2700.43645 692.405332,2701.46006 693.49837,2701.81543 L694.442578,2704.67301 L660.268096,2704.67301 C657.581587,2704.67301 655.388998,2706.87145 655.388998,2709.56043 L655.388998,2760.04432 L650.064833,2760.04432 C649.476766,2760.04438 649.000059,2760.52109 649,2761.10916 C649,2767.54714 654.208963,2772.82232 660.654929,2772.82232 L661.540904,2772.82232 L660.700685,2774.27814 L658.109314,2778.77041 C656.886352,2780.89111 657.620843,2783.63086 659.739839,2784.85576 C661.858878,2786.08045 664.593912,2785.34579 665.816873,2783.22524 L671.819038,2772.82232 L743.828365,2772.82232 C749.919376,2772.82232 754.902673,2768.10802 755.433379,2762.15735 C755.951104,2762.07751 756.333877,2761.633 756.335993,2761.10916 C756.334822,2758.57481 756.335993,2760.51082 756.335993,2758.81311 C756.335993,2757.10645 754.812366,2755.89837 753.108218,2755.80163 C753.246476,2755.44173 753.33283,2755.05955 753.33283,2754.65361 C753.33283,2752.86539 751.860017,2751.39256 750.071779,2751.39256 L749.718223,2751.39256 C749.738406,2751.3081 749.748184,2751.2215 749.747339,2751.13467 L749.747339,2749.38351 L751.847888,2749.38351 C751.927761,2749.38273 752.007291,2749.37296 752.08498,2749.3544 L757.517291,2749.33776 C758.026367,2749.33719 758.463845,2748.9764 758.561326,2748.47674 C760.549607,2738.29407 757.345887,2726.38451 751.08254,2719.95087 C750.818059,2718.45436 750.116574,2717.06578 749.094296,2715.92031 L749.094296,2709.56043 C749.094296,2706.87145 746.901707,2704.67301 744.215198,2704.67301 L717.843946,2704.67301 C718.45112,2703.89753 718.829747,2702.93698 718.829747,2701.88198 C718.829747,2699.38612 716.798011,2697.33149 714.308368,2697.33149 C713.537329,2697.33149 712.819861,2697.54266 712.182861,2697.88886 L708.031676,2693.95397 C708.394092,2693.43994 708.609846,2692.8186 708.609846,2692.14874 C708.609868,2690.42736 707.199171,2689 705.47774,2689 Z M705.47774,2691.12967 C706.038865,2691.12967 706.480202,2691.56903 706.48018,2692.14874 C706.48018,2692.72848 706.038843,2693.16782 705.47774,2693.16782 C704.916637,2693.16782 704.4753,2692.72848 704.4753,2692.14874 C704.4753,2691.56903 704.916616,2691.12967 705.47774,2691.12967 Z M703.402149,2694.47807 C703.495601,2694.56233 703.590388,2694.64659 703.693315,2694.71932 L702.836456,2699.80223 C701.979059,2700.00098 701.2661,2700.58416 700.881489,2701.35789 L697.029788,2699.29061 C697.03022,2699.27084 697.033947,2699.25225 697.03395,2699.23238 C697.03395,2698.94655 696.975669,2698.67345 696.892525,2698.41296 L703.402149,2694.47807 Z M706.234771,2695.18934 L710.581453,2699.31557 C710.079143,2700.04858 709.782819,2700.93235 709.782828,2701.88198 C709.782817,2702.93662 710.160965,2703.89766 710.768629,2704.67301 L705.560932,2704.67301 C706.069811,2704.14443 706.384522,2703.43008 706.384512,2702.64733 C706.384512,2701.58348 705.797341,2700.64678 704.937005,2700.13499 L705.760588,2695.26837 C705.922549,2695.25326 706.080691,2695.2287 706.234771,2695.18934 Z M694.317793,2698.62925 C694.650638,2698.62925 694.904284,2698.88275 694.904284,2699.23238 C694.904284,2699.58198 694.650638,2699.83135 694.317793,2699.83135 C693.984926,2699.83135 693.731302,2699.58198 693.731302,2699.23238 C693.731281,2698.88275 693.984926,2698.62925 694.317793,2698.62925 Z M714.308368,2699.46115 C715.637684,2699.46115 716.700081,2700.52779 716.700081,2701.88198 C716.700081,2703.23617 715.637684,2704.30282 714.308368,2704.30282 C712.979031,2704.30282 711.912494,2703.23617 711.912494,2701.88198 C711.912494,2700.52779 712.979031,2699.46115 714.308368,2699.46115 Z M696.131335,2701.22478 L700.781661,2703.71632 C700.924244,2704.07357 701.130036,2704.39976 701.393107,2704.67301 L696.688709,2704.67301 L695.652993,2701.54922 C695.820149,2701.45071 695.989106,2701.35553 696.131335,2701.22478 Z M703.477019,2701.85287 C703.914027,2701.85287 704.254846,2702.19109 704.254846,2702.64733 C704.254846,2703.10357 703.914027,2703.4418 703.477019,2703.4418 C703.039991,2703.4418 702.699193,2703.10357 702.699193,2702.64733 C702.699193,2702.19109 703.039991,2701.85287 703.477019,2701.85287 Z M660.268096,2706.80268 L744.215198,2706.80268 C745.756394,2706.80268 746.964631,2708.01178 746.964631,2709.56043 L746.964631,2714.21491 C746.232963,2713.79054 745.449887,2713.43143 744.577075,2713.22079 C744.473748,2713.19535 744.36719,2713.18553 744.260954,2713.19167 C743.857656,2713.21619 743.502969,2713.46683 743.345192,2713.8388 C743.187416,2714.21076 743.253727,2714.63998 743.516401,2714.94698 C743.770066,2715.24595 744.255434,2716.16929 744.498045,2717.20143 C744.505778,2717.23434 744.503299,2717.26413 744.510523,2717.2971 C744.014326,2717.91359 743.406136,2718.42289 742.705299,2718.78621 L742.705299,2712.15596 C742.70524,2711.56789 742.228533,2711.09118 741.640466,2711.09113 L662.842828,2711.09113 C662.254762,2711.09118 661.778054,2711.56789 661.777995,2712.15596 L661.777995,2754.74928 C661.778054,2755.33734 662.254762,2755.81405 662.842828,2755.81411 L669.660255,2755.81411 L667.222786,2760.04432 L657.518664,2760.04432 L657.518664,2709.56043 C657.518664,2708.01178 658.7269,2706.80268 660.268096,2706.80268 Z M663.907661,2713.22079 L740.575633,2713.22079 L740.575633,2719.38933 C740.344634,2719.41321 740.120943,2719.46734 739.885155,2719.4642 C739.438973,2719.45951 739.037171,2719.73346 738.878555,2720.15052 C738.184859,2721.95573 736.301736,2723.42464 733.841397,2723.87328 C731.395844,2724.10322 729.313941,2725.72513 728.721048,2728.0203 C728.118991,2730.35114 729.240465,2732.78433 731.391449,2733.98919 C733.542454,2735.19405 736.249985,2734.98823 738.167281,2733.46094 C738.194782,2733.43869 738.221158,2733.41509 738.246311,2733.39022 C739.56089,2733.81345 740.878919,2734.30323 742.239434,2734.18469 C741.503528,2734.66891 740.829783,2735.15434 738.882715,2735.64467 C736.368921,2736.27778 734.473804,2737.82461 733.271543,2739.7501 C732.294881,2741.29709 732.011143,2742.79669 731.686774,2744.32556 C731.679649,2744.35855 731.674096,2744.39187 731.670135,2744.42539 C731.507854,2745.81367 731.581745,2747.22362 731.890589,2748.56825 C732.002051,2749.05621 732.43828,2749.40069 732.938783,2749.39599 L734.436207,2749.38351 L734.436207,2751.13467 C734.435361,2751.22149 734.445139,2751.3081 734.465321,2751.39256 L734.211593,2751.39256 C732.761874,2751.39256 731.535355,2752.36517 731.116922,2753.68444 L699.795858,2753.68444 C700.517142,2752.82493 701.187665,2751.90298 701.767464,2750.89757 C701.824933,2750.79792 701.865859,2750.69418 701.921364,2750.59393 C701.9435,2750.59601 701.965695,2750.5974 701.987917,2750.59809 L707.869455,2750.59809 L720.647451,2750.59809 C721.031468,2750.60352 721.388661,2750.40176 721.582254,2750.07007 C721.775848,2749.73838 721.775848,2749.32814 721.582254,2748.99645 C721.388661,2748.66475 721.031468,2748.46299 720.647451,2748.46842 L718.022803,2748.46842 L718.022803,2736.60968 C718.026178,2736.32221 717.913186,2736.04559 717.709511,2735.8427 C717.505837,2735.63981 717.228784,2735.52789 716.941334,2735.53237 C716.354883,2735.54155 715.886252,2736.0232 715.893138,2736.60968 L715.893138,2748.46842 L713.763472,2748.46842 L713.763472,2734.48001 C713.766846,2734.19255 713.653854,2733.91593 713.450179,2733.71304 C713.246505,2733.51015 712.969453,2733.39822 712.682002,2733.4027 C712.095551,2733.41188 711.62692,2733.89353 711.633806,2734.48001 L711.633806,2748.46842 L709.50414,2748.46842 L709.50414,2738.73934 C709.507515,2738.45188 709.394522,2738.17526 709.190848,2737.97237 C708.987173,2737.76948 708.710121,2737.65755 708.42267,2737.66203 C707.836219,2737.67121 707.367589,2738.15286 707.374474,2738.73934 L707.374474,2748.46842 L705.244808,2748.46842 L705.244808,2742.99868 C705.251251,2742.46989 704.868686,2742.01648 704.346355,2741.93384 C704.611659,2734.94779 701.10971,2728.04353 694.650553,2724.31003 C685.363485,2718.94193 673.457673,2722.13833 668.096282,2731.43526 C663.897777,2738.71566 664.960694,2747.59331 670.072045,2753.68444 L663.907661,2753.68444 L663.907661,2713.22079 Z M746.577796,2717.02674 C748.338199,2718.51211 749.484743,2720.49337 748.890481,2722.77933 C748.766971,2723.26077 748.992603,2723.76366 749.434337,2723.99149 C749.876072,2724.21933 750.416638,2724.11161 750.7373,2723.73185 C751.994101,2726.29349 752.831613,2729.11279 753.216365,2732.04254 C753.437671,2736.44026 753.146823,2741.84836 751.045104,2747.22473 L750.121694,2747.22889 C750.0392,2747.22768 749.956845,2747.23605 749.876284,2747.25385 L748.682506,2747.25385 C748.628194,2747.25387 748.573962,2747.25804 748.520285,2747.26633 L746.120252,2747.26633 C747.256508,2746.24404 748.636242,2744.74929 749.867964,2742.52033 C750.05723,2742.18899 750.054752,2741.78171 749.861468,2741.4527 C749.668185,2741.12369 749.31364,2740.92324 748.932076,2740.92724 C748.542111,2740.92971 748.184682,2741.14512 748.000347,2741.48878 C746.186915,2744.77044 743.945478,2746.40277 743.204439,2746.87949 C743.053174,2746.97592 742.928702,2747.10898 742.842562,2747.26633 L735.696534,2747.26633 C735.629422,2747.25286 735.561168,2747.2459 735.492719,2747.24553 L733.924586,2747.25801 C733.806177,2746.41785 733.695306,2745.56605 733.791482,2744.71239 C734.113594,2743.19243 734.336108,2742.05094 735.07261,2740.88565 C735.074009,2740.88288 735.075395,2740.88011 735.07677,2740.87733 C736.025216,2739.3583 737.428006,2738.20927 739.402653,2737.71195 C742.136037,2737.0236 743.673749,2736.24234 744.70602,2735.31191 C745.705131,2734.41136 746.131039,2733.51512 746.740017,2732.70391 L747.692544,2731.92608 L747.675905,2731.90944 C747.692942,2731.8924 747.724568,2731.89672 747.742457,2731.88032 C748.162329,2731.4889 748.19642,2730.83513 747.819536,2730.40217 C747.442652,2729.9692 746.790424,2729.91285 746.344864,2730.27476 L746.282473,2730.32467 C744.205536,2732.24816 740.22605,2732.67973 737.489281,2731.17321 C737.152474,2730.98834 736.7422,2730.99922 736.415669,2731.20169 C736.089138,2731.40416 735.896981,2731.76681 735.91283,2732.15069 C734.873435,2732.59223 733.69399,2732.69442 732.660097,2732.21724 C733.63062,2731.69506 734.565384,2731.13983 735.417848,2730.51601 C735.792951,2730.25075 735.955669,2729.77485 735.821492,2729.33547 C735.687315,2728.89609 735.286493,2728.59228 734.827198,2728.58184 C734.587327,2728.57691 734.35282,2728.65312 734.161678,2728.79813 C733.21318,2729.49221 732.156702,2730.11536 731.029572,2730.67823 C730.699561,2730.02428 730.595013,2729.28503 730.784162,2728.55272 C731.140157,2727.17459 732.447154,2726.10413 734.111765,2725.97799 C734.149394,2725.97582 734.186883,2725.97165 734.224071,2725.96551 C737.046048,2725.45096 739.287952,2723.74553 740.442529,2721.45661 C741.92832,2721.36412 743.330797,2720.87396 744.531321,2720.07981 C744.49885,2720.62572 744.885151,2721.10749 745.425072,2721.19444 C745.964992,2721.28138 746.483005,2720.94524 746.623552,2720.41673 C746.916977,2719.41615 746.822069,2718.22719 746.577796,2717.02674 Z M741.781888,2723.45317 C741.193797,2723.48303 740.741265,2723.98399 740.77113,2724.57208 C740.800994,2725.16017 741.301946,2725.6127 741.890037,2725.58283 L743.354182,2725.58283 C743.738199,2725.58827 744.095393,2725.38651 744.288986,2725.05481 C744.48258,2724.72312 744.48258,2724.31288 744.288986,2723.98119 C744.095393,2723.6495 743.738199,2723.44774 743.354182,2723.45317 L741.890037,2723.45317 C741.854011,2723.45134 741.817915,2723.45134 741.781888,2723.45317 Z M685.391498,2723.83168 C688.181606,2723.90519 690.995082,2724.65941 693.58572,2726.15685 C701.875743,2730.94862 704.707387,2741.53228 699.920643,2749.83274 C695.133879,2758.13322 684.568048,2760.96777 676.278026,2756.17598 C667.987982,2751.38421 665.152197,2740.80473 669.938941,2732.50425 C673.229828,2726.79768 679.25326,2723.66996 685.391498,2723.83168 Z M685.341583,2726.06534 C679.988368,2725.92971 674.721368,2728.65419 671.860632,2733.61484 C667.699563,2740.83034 670.176407,2750.08376 677.384453,2754.25013 C684.592499,2758.4165 693.842045,2755.93765 698.003114,2748.72215 C702.164161,2741.50665 699.687317,2732.24907 692.479293,2728.0827 C690.226777,2726.78071 687.774863,2726.12699 685.341583,2726.06534 Z M685.275031,2728.18668 C687.364106,2728.24182 689.473527,2728.80347 691.41446,2729.92536 C697.62546,2733.51542 699.746873,2741.43827 696.160452,2747.65732 C692.574052,2753.87635 684.660265,2755.99754 678.449286,2752.40747 C677.555651,2751.89094 676.756193,2751.27585 676.036773,2750.59809 L692.974274,2750.59809 C693.358291,2750.60352 693.715484,2750.40176 693.909078,2750.07007 C694.102671,2749.73838 694.102671,2749.32814 693.909078,2748.99645 C693.715484,2748.66475 693.358291,2748.46299 692.974274,2748.46842 L674.231549,2748.46842 C674.228776,2748.46841 674.226003,2748.46841 674.22323,2748.46842 C673.629273,2747.5956 673.138542,2746.66516 672.775722,2745.68572 L674.884592,2743.57685 L676.261387,2744.95364 C676.677236,2745.36932 677.351277,2745.36932 677.767126,2744.95364 L681.273589,2741.44718 L682.650384,2742.82398 C683.066233,2743.23965 683.740275,2743.23965 684.156124,2742.82398 L691.938556,2735.04155 L691.938556,2736.75526 C691.933125,2737.13928 692.134885,2737.49647 692.466577,2737.69007 C692.79827,2737.88366 693.208507,2737.88366 693.5402,2737.69007 C693.871893,2737.49647 694.073652,2737.13928 694.068222,2736.75526 L694.068222,2732.49593 C694.068163,2731.90786 693.591455,2731.43116 693.003389,2731.4311 L688.744057,2731.4311 C688.36004,2731.42567 688.002846,2731.62743 687.809253,2731.95912 C687.61566,2732.29081 687.61566,2732.70105 687.809253,2733.03274 C688.002846,2733.36443 688.36004,2733.56619 688.744057,2733.56076 L690.407858,2733.56076 L683.403255,2740.56537 L682.026458,2739.18857 C681.610609,2738.77289 680.936567,2738.77289 680.520718,2739.18857 L677.014258,2742.69503 L675.63746,2741.31824 C675.221611,2740.90256 674.54757,2740.90256 674.131721,2741.31824 L672.139318,2743.31064 C671.660463,2740.44537 672.139135,2737.3992 673.707451,2734.67967 C676.173116,2730.40407 680.67907,2728.06539 685.275031,2728.18668 Z M755.346031,2732.03007 C756.805259,2736.85982 757.326682,2742.26722 756.523169,2747.21225 L753.399382,2747.22057 C755.371942,2741.73999 755.557958,2736.35839 755.346031,2732.03007 Z M750.516847,2737.18785 C750.050917,2737.19403 749.643113,2737.50241 749.510246,2737.94904 C749.391623,2738.32684 749.264303,2738.69255 749.131732,2739.04299 C748.923833,2739.59318 749.201312,2740.20773 749.751499,2740.41563 C750.301685,2740.62352 750.916235,2740.34605 751.124134,2739.79586 C751.271081,2739.40773 751.40913,2739.00659 751.540086,2738.5896 C751.64911,2738.26267 751.593183,2737.90319 751.389988,2737.62483 C751.186793,2737.34647 750.861455,2737.18365 750.516847,2737.18785 L750.516847,2737.18785 Z M703.115142,2747.99008 L703.115142,2748.46842 L702.927966,2748.46842 C702.99235,2748.30957 703.055241,2748.14989 703.115142,2747.99008 Z M736.565872,2749.39599 L747.617673,2749.39599 L747.617673,2751.13883 C747.617165,2751.22426 747.62694,2751.30945 747.646788,2751.39256 L736.536756,2751.39256 C736.557279,2751.30675 736.567059,2751.21873 736.565872,2751.13051 L736.565872,2749.39599 Z M734.211593,2753.52222 L750.071779,2753.52222 C750.717004,2753.52222 751.203164,2754.0084 751.203164,2754.65361 C751.203164,2755.29883 750.717025,2755.78499 750.071779,2755.78499 L734.211593,2755.78499 C733.566368,2755.78499 733.080208,2755.29883 733.080208,2754.65361 C733.080208,2754.00838 733.566368,2753.52222 734.211593,2753.52222 Z M672.122681,2755.81411 L672.139318,2755.81411 C673.074418,2756.63167 674.098072,2757.37408 675.213193,2758.01865 C676.334113,2758.66656 677.492796,2759.18396 678.6739,2759.58678 L675.683216,2764.77784 L669.131998,2760.99269 L672.122681,2755.81411 Z M697.707789,2755.81411 L730.938062,2755.81411 C729.292361,2755.96848 727.851712,2757.15403 727.851712,2758.81311 L727.851712,2759.14587 C727.851709,2759.14726 727.851709,2759.14864 727.851712,2759.15003 C727.852585,2759.46317 727.851797,2759.73303 727.851712,2760.04432 L689.580119,2760.04432 C692.556312,2759.30962 695.348662,2757.87385 697.707789,2755.81411 Z M731.29578,2757.91466 L752.891923,2757.91466 C753.741404,2757.91466 754.206327,2758.41776 754.206327,2758.81311 C754.206327,2759.72295 754.206455,2759.97355 754.206327,2760.04432 L752.891923,2760.04432 L752.068341,2760.04432 L729.981378,2760.04432 C729.981463,2759.73145 729.982251,2759.46289 729.981378,2759.14587 L729.981378,2758.81311 C729.981378,2758.41776 730.446299,2757.91466 731.29578,2757.91466 Z M651.341801,2762.17399 L666.973215,2762.17399 C667.026903,2762.22281 667.08544,2762.26602 667.147914,2762.30293 L667.493154,2762.50259 L665.513229,2765.93418 L662.767958,2770.69265 L660.654929,2770.69265 C655.743409,2770.69265 651.88823,2766.9422 651.341801,2762.17399 Z M679.647223,2762.17399 L691.593318,2762.17399 L691.593318,2763.99585 C691.593318,2766.11555 693.288268,2767.88915 695.395103,2767.88915 L709.088191,2767.88915 C711.195048,2767.88915 712.889976,2766.11555 712.889976,2763.99585 L712.889976,2762.17399 L752.068341,2762.17399 L752.891923,2762.17399 L753.249641,2762.17399 C752.719776,2766.95996 748.752523,2770.69265 743.828365,2770.69265 L673.046092,2770.69265 L675.200713,2766.95742 L675.541794,2767.15707 C675.786637,2767.29854 676.077691,2767.33682 676.350787,2767.26347 C676.623883,2767.19013 676.856595,2767.01118 676.997618,2766.76608 L679.647223,2762.17399 Z M693.722984,2762.23638 L710.760311,2762.23638 L710.760311,2763.99585 C710.760311,2765.00849 710.015234,2765.75948 709.088191,2765.75948 L695.395103,2765.75948 C694.468081,2765.75948 693.722984,2765.00846 693.722984,2763.99585 L693.722984,2762.23638 Z M669.335813,2763.56742 L673.353894,2765.89258 L663.974213,2782.1604 C663.32196,2783.29138 661.933587,2783.66139 660.804672,2783.00894 C659.675715,2782.35633 659.303815,2780.96641 659.956132,2779.83524 L662.547503,2775.34298 L667.36005,2766.99901 L669.335813,2763.56742 Z" id="Shape"></path>
        </g>
    </g>
</svg>