<svg xmlns="http://www.w3.org/2000/svg" width="52" height="45" viewBox="0 0 52 45"><path fill="#fe4b00" d="M30.04.04A2.06 2.06 0 0 0 28 2.08V5H5.29A2.3 2.3 0 0 0 3 7.3v23.73H.5a.5.5 0 0 0-.5.5c0 2.3 1.42 4.25 3.43 5.06L2.1 38.9.92 40.94a2.04 2.04 0 0 0 3.53 2.04L7.9 37h36.63A5.47 5.47 0 0 0 50 31.53a.5.5 0 0 0-.5-.5H47v-2.07h1.96A2.05 2.05 0 0 0 51 26.93V5.6v-.06a.47.47 0 0 0-.15-.39l-5.01-5a.48.48 0 0 0-.36-.15h-.1zM44.99 1v2.85s-.01.52.26 1.05.91 1.1 1.91 1.1H50v20.93c0 .57-.45 1.03-1.04 1.03L30.04 28c-.59 0-1.04-.45-1.04-1.03V2.08c0-.58.45-1.03 1.04-1.04zm1 .71L49.29 5h-2.13c-.67 0-.87-.26-1.02-.55-.15-.29-.15-.6-.15-.6zM30 3v1h1V3zm2 0v1h3V3zm-2 2v1h1V5zm2 0v1h3V5zM5.29 6H28v2.02H6.5a.5.5 0 0 0-.5.5v10.09a8.88 8.88 0 0 0 .57 11.2l-.7 1.22H4V7.3C4 6.57 4.57 6 5.29 6zM30 7v1h1V7zm2 0v1h3V7zm7.05.02a6.5 6.5 0 0 0-4.2 11.01l.03.04.02.03.08.06a6.5 6.5 0 0 0 7 1.35 6.54 6.54 0 0 0 2.28-1.6l.11-.12c.38-.43.7-.91.95-1.41l.09-.19c.11-.24.2-.48.28-.73l.03-.07c.08-.26.13-.53.18-.8l.04-.23c.03-.27.05-.53.06-.8v-.06l-.01-.08a6.5 6.5 0 0 0-6.94-6.4zm.07.99A5.5 5.5 0 0 1 44.96 13H39.5a.5.5 0 0 0-.36.15l-.01.02-3.84 3.84a5.48 5.48 0 0 1 3.83-9zM7 9.02h21v17.95a2 2 0 0 0 .3 1.05h-7.38c.23-.44.43-.88.59-1.33h.89a.5.5 0 1 0 0-1h-.63a8.87 8.87 0 0 0-1.51-7.05l1.56-2.97.09.02a1 1 0 0 0 1-1 1 1 0 0 0-1-1 1 1 0 0 0-.91 1.38l-1.43 2.73A8.8 8.8 0 0 0 9 16.03v-5.52a.48.48 0 0 0-.15-.36.48.48 0 0 0-.36-.15.5.5 0 0 0-.35.15.54.54 0 0 0-.14.36v6.13a8.8 8.8 0 0 0-1 .83zm3 .98v1h1v-1zm2 0v1h3v-1zm-2 2v1h1v-1zm2 0v1h3v-1zm28.71 2h4.14a5.98 5.98 0 0 1-1.18 2.97zm-1.21.21l3.5 3.5c-.41.35-.87.65-1.4.87a5.44 5.44 0 0 1-5.53-.94zM13.33 16a7.78 7.78 0 0 1 5.74 2.75l-.49.93a6.87 6.87 0 1 0 .62.98l.54-1.03A7.84 7.84 0 0 1 9.2 30.67a7.87 7.87 0 0 1-.6-13.23c.13-.03.25-.1.32-.22A7.88 7.88 0 0 1 13.33 16zm-.12 1.98a1 1 0 0 0-.3.71c0 .09.03.17.06.25l-2.09 3.71.08.05-.06-.01a1 1 0 0 0 0 2 1 1 0 0 0 1-1 1 1 0 0 0-.21-.58l.06.03 1.97-3.49c.06.01.12.04.19.04.22 0 .41-.09.58-.22l2.44 2.16-.02.06a1 1 0 0 0 1 1c.36 0 .67-.21.84-.51a5.92 5.92 0 0 1-.04 3.51H9v-5.97-.04a5.89 5.89 0 0 1 4.21-1.7zm1.56.24a5.82 5.82 0 0 1 3.29 2.46l-.02.03-.13-.02a1 1 0 0 0-.42.1l-2.63-2.32a1.06 1.06 0 0 0-.09-.25zM8 20.99v5.2c0 .27.22.5.5.5h9.77l-.06.11c-.26.46-.58.86-.94 1.22h-8.3A5.89 5.89 0 0 1 8 20.99zM30 21v1h5v-1zm0 2v1h18v-1zm0 2v1h18v-1zm16 3.96v2.07H18.31a8.87 8.87 0 0 0 2-2.01h13.78a.5.5 0 0 0 .16-.03zm-35.69.06h5.63c-1.7.93-3.81.99-5.63 0zm-3 1.52a8.95 8.95 0 0 0 2.95 1.7l-1.35 2.33-2.94-1.7zm-6.15 1.49h4.13l-.44.77a.5.5 0 0 0-.05.38c.03.12.12.23.23.3l.15.08-.89 1.55-.36.61a4.41 4.41 0 0 1-2.77-3.69zm15.36 0H20v.83c0 .99.8 1.82 1.79 1.82h6.42c.99 0 1.79-.83 1.79-1.82v-.83h18.9A4.4 4.4 0 0 1 44.53 36H8.48l.23-.4.14.09c.11.06.25.08.38.05a.48.48 0 0 0 .3-.24l1.72-2.98c1.78.38 3.62.19 5.27-.49zm4.48 0h8v.83a.8.8 0 0 1-.79.82h-6.42a.8.8 0 0 1-.79-.82zM6.04 34.06l1.8 1.04-4.25 7.38c-.3.51-.91.68-1.42.38a1.02 1.02 0 0 1-.38-1.42l1.18-2.04 2.18-3.79z"/></svg>