<svg xmlns="http://www.w3.org/2000/svg" width="59" height="34" viewBox="0 0 59 34"><path fill="#ff4d02" d="M1.78 0C.8 0 0 .8 0 1.78v19.19c0 .98.8 1.78 1.78 1.78H4.5v5.28H2a.5.5 0 0 0-.5.5A5.47 5.47 0 0 0 6.97 34h39.06a5.47 5.47 0 0 0 5.47-5.47.5.5 0 0 0-.5-.5h-2.5v-7.2a2.2 2.2 0 0 1 1.61 1.9v.25c0 .27.23.5.5.5h2a.5.5 0 0 0 .5-.5v-2.87a2.85 2.85 0 0 0 0-5.61v-2.52a.5.5 0 0 0-.5-.5h-2a.5.5 0 0 0-.5.5v.28a2.2 2.2 0 0 1-1.61 1.89V4.3A2.3 2.3 0 0 0 46.21 2h-9.39v-.22c0-.98-.8-1.78-1.78-1.78zm0 1h33.26c.45 0 .78.34.78.78V4H1V1.78c0-.44.34-.78.78-.78zM2 2.36c0 .17.07.33.19.45s.28.19.45.19c.35 0 .64-.29.64-.64a.64.64 0 0 0-.64-.64.64.64 0 0 0-.64.64zm3.2-.64a.64.64 0 0 0-.64.64c0 .17.07.33.19.45s.28.19.45.19c.35 0 .64-.29.64-.64a.64.64 0 0 0-.64-.64zm2.56 0a.64.64 0 0 0-.64.64.63.63 0 0 0 .64.64c.35 0 .64-.29.64-.64a.64.64 0 0 0-.64-.64zM36.82 3h9.39c.72 0 1.29.57 1.29 1.3v9.95h-2V5.52a.5.5 0 0 0-.5-.5h-8.18zM1 5h34.82v15.97c0 .44-.33.78-.78.78H1.78a.77.77 0 0 1-.78-.78zm35.82 1.02h7.68v8.23h-3.66c-.89 0-1.61.7-1.67 1.57h-.69a.9.9 0 0 0-.89.89v1.57c0 .48.41.89.89.89h.69c.04.66.47 1.22 1.07 1.45l-1.03 4.4H8.5v-2.27h26.54c.98 0 1.78-.8 1.78-1.78zM15.77 7.2a.5.5 0 0 0-.48.5v5.59c0 .18.09.34.24.43.15.09.33.1.48.02l5.5-2.74h-.12c.23 0 .43-.16.49-.39a.5.5 0 0 0-.27-.56l-5.6-2.8a.39.39 0 0 0-.24-.05zm.52 1.31l3.98 1.99-3.98 1.99v-1.43-.01zm40.1 2.87l-1.36.79.5.86 1.36-.78zm-5.25 1.1h.97v10h-.97zm6.47 1.5l-1.52.41.26.96 1.52-.4zm-7.5.37v6.29a3.2 3.2 0 0 0-2.22-.9h-3.81v-4.49h3.81a3.2 3.2 0 0 0 2.22-.9zm-9.27.9h2.24v4.49h-2.24a.66.66 0 0 1-.68-.68v-3.14c0-.38.29-.67.68-.67zm12.32.41c.75.24 1.35.81 1.35 1.65 0 .83-.6 1.41-1.35 1.64zm3.38 1.15v1h1.57v-1zm-17.95.01h.57v1.35h-.57zm-30 .18c-.82 0-1.5.67-1.5 1.5 0 .82.68 1.5 1.5 1.5h20c.82 0 1.5-.68 1.5-1.5 0-.83-.68-1.5-1.5-1.5zm0 1h5c.29 0 .5.21.5.5 0 .28-.21.5-.5.5h-5a.49.49 0 0 1-.5-.5c0-.08.01-.14.04-.2.07-.18.25-.3.46-.3zM15 18h13.59c.29 0 .5.21.5.5 0 .28-.21.5-.5.5H15c.05-.16.09-.33.09-.5 0-.18-.04-.35-.09-.5zm41.35 1.26l-.26.97 1.52.4.26-.96zm-12.48 1.48h.63v4.28h-1.63zm1.63 0h2v7.29h-42v-5.28h2v2.77c0 .27.22.5.5.5h31.35l.13.01h2.64l.14-.01H45a.5.5 0 0 0 .5-.5zm-4.28 0h1.64l-1 4.28h-1.64zm14.31.84l-.5.87 1.36.78.5-.87zM2.6 29.03h18.9v.83c0 .99.8 1.82 1.79 1.82h6.42c.99 0 1.79-.83 1.79-1.82v-.83h18.9A4.4 4.4 0 0 1 46.03 33H6.97a4.4 4.4 0 0 1-4.37-3.97zm19.9 0h8v.83a.8.8 0 0 1-.79.82h-6.42a.8.8 0 0 1-.79-.82z"/></svg>