<svg xmlns="http://www.w3.org/2000/svg" width="52" height="46" viewBox="0 0 52 46"><path fill="#ff4d02" d="M26.52 0a1.48 1.48 0 0 0-1.45 1.69l-3.25 1.97a1.2 1.2 0 0 0-.54-.14c-.7 0-1.28.58-1.28 1.28 0 .57.38 1.05.89 1.22l.45 1.34H5.29A2.3 2.3 0 0 0 3 9.65v23.71H.5a.5.5 0 0 0-.5.5 5.5 5.5 0 0 0 5.47 5.5h.42l-.4.68-1.21 2.11a2.1 2.1 0 0 0 .76 2.86c1 .57 2.28.23 2.86-.77l2.81-4.88h33.82c2.86 0 5.2-2.21 5.45-5.01a.5.5 0 0 0 .42-.49v-1.08c0-.8-.72-1.37-1.52-1.41.07-.17.11-.35.11-.54 0-.84-.69-1.53-1.53-1.53h-.17l.02-.12v-.83h.98l.11-.01 2.56-.01c.23 0 .44-.17.49-.4.93-4.78-.58-10.38-3.52-13.4a3.83 3.83 0 0 0-.93-1.89V9.65a2.3 2.3 0 0 0-2.29-2.29H32.33a2.14 2.14 0 0 0-1.66-3.45c-.37 0-.7.1-1 .26l-1.95-1.84A1.48 1.48 0 0 0 26.52 0zm0 1c.26 0 .47.21.47.48s-.21.48-.47.48a.47.47 0 0 1-.47-.48c0-.27.21-.48.47-.48zm-.98 1.57l.14.12-.4 2.38c-.4.1-.74.37-.92.73l-1.81-.97V4.8c0-.13-.02-.26-.06-.38zm1.34.34l2.04 1.93A2.12 2.12 0 0 0 29 7.36h-2.44c.24-.25.39-.58.39-.95 0-.5-.28-.94-.68-1.18l.38-2.29c.08 0 .15-.02.23-.03zm-5.6 1.61c.16 0 .27.12.27.28 0 .17-.11.29-.27.29-.16 0-.28-.12-.28-.29 0-.16.12-.28.28-.28zm9.39.39c.62 0 1.12.5 1.12 1.14 0 .63-.5 1.14-1.12 1.14-.63 0-1.13-.51-1.13-1.14 0-.64.5-1.14 1.13-1.14zm-8.54.83l2.18 1.17c.07.17.17.32.29.45h-2.21l-.48-1.47c.07-.04.15-.09.22-.15zm3.45.3c.21 0 .37.15.37.37 0 .21-.16.37-.37.37a.36.36 0 0 1-.37-.37c0-.22.16-.37.37-.37zM5.29 8.36h39.42c.72 0 1.29.57 1.29 1.29v2.19c-.34-.2-.71-.37-1.12-.47l-.15-.01a.5.5 0 0 0-.43.3.51.51 0 0 0 .08.52c.12.14.35.58.46 1.06l.01.05c-.24.29-.52.53-.85.7v-3.12a.5.5 0 0 0-.5-.5h-37a.5.5 0 0 0-.5.5v20c0 .28.22.5.5.5h3.2l-1.14 1.99H4V9.65c0-.72.57-1.29 1.29-1.29zM7 11.37h36v2.9c-.11.01-.21.04-.32.03-.21 0-.4.13-.48.33-.32.84-1.21 1.53-2.36 1.75-1.15.1-2.13.86-2.41 1.94a2.53 2.53 0 0 0 1.26 2.81 2.9 2.9 0 0 0 3.18-.25l.04-.04c.61.2 1.23.43 1.87.38-.34.22-.66.45-1.57.68a4.32 4.32 0 0 0-2.64 1.93c-.46.73-.59 1.43-.74 2.15l-.01.05c-.08.65-.04 1.31.1 1.94a.5.5 0 0 0 .49.39l.71-.01v.83l.01.12h-.12c-.68 0-1.25.45-1.45 1.07H23.85c.34-.4.66-.83.93-1.31l.07-.14h8.79a.5.5 0 0 0 .44-.24.52.52 0 0 0 0-.51.52.52 0 0 0-.44-.25h-1.23v-5.56a.48.48 0 0 0-.15-.36.48.48 0 0 0-.36-.15.5.5 0 0 0-.49.51v5.56h-1v-6.56a.48.48 0 0 0-.15-.36.48.48 0 0 0-.36-.15.5.5 0 0 0-.49.51v6.56h-1v-4.56a.48.48 0 0 0-.15-.36.48.48 0 0 0-.36-.15.5.5 0 0 0-.49.51v4.56h-1v-2.56a.5.5 0 0 0-.42-.5 9.13 9.13 0 1 0-16.1 5.51H7zm38.82 1.79c.82.7 1.36 1.63 1.08 2.7-.05.23.05.46.26.57a.5.5 0 0 0 .61-.12c.59 1.2.98 2.53 1.17 3.9.1 2.07-.04 4.61-1.02 7.13h-.44l-.11.01h-.56l-.08.01H45.6a8.3 8.3 0 0 0 1.76-2.23.5.5 0 0 0 0-.5.52.52 0 0 0-.44-.25.5.5 0 0 0-.43.27 7.24 7.24 0 0 1-2.26 2.53.49.49 0 0 0-.17.18h-3.35l-.1-.01-.73.01c-.06-.4-.11-.8-.07-1.2.16-.71.26-1.25.61-1.8a3.28 3.28 0 0 1 2.03-1.49c1.28-.32 2-.69 2.49-1.12.47-.43.67-.85.95-1.23l.45-.36-.01-.01.04-.02a.5.5 0 0 0-.66-.75l-.03.02c-.98.91-2.84 1.11-4.13.4a.5.5 0 0 0-.5.02.47.47 0 0 0-.24.44c-.49.21-1.04.26-1.53.03.46-.24.9-.5 1.3-.8a.5.5 0 0 0 .19-.55.5.5 0 0 0-.47-.35.45.45 0 0 0-.31.1c-.45.32-.94.62-1.47.88a1.38 1.38 0 0 1-.12-1c.17-.64.78-1.15 1.56-1.21h.06a4.02 4.02 0 0 0 2.92-2.12c.7-.04 1.35-.27 1.92-.65a.5.5 0 0 0 .42.53.5.5 0 0 0 .56-.37c.14-.47.09-1.03-.02-1.59zm-2.25 3.02a.5.5 0 0 0-.48.52c.02.28.25.49.53.48h.68c.19 0 .35-.09.44-.25a.5.5 0 0 0 0-.5.49.49 0 0 0-.44-.25H43.57zm-26.48.18a8.13 8.13 0 1 1 0 0zm-.03 1.04a7.1 7.1 0 0 0-3.73 13.24 7.09 7.09 0 1 0 3.73-13.24zm-.03 1a6.08 6.08 0 1 1-4.33 10.52h7.95a.5.5 0 0 0 .44-.24.52.52 0 0 0 0-.51.52.52 0 0 0-.44-.25h-8.8-.01a5.97 5.97 0 0 1-.68-1.3l.99-.99.65.64c.2.2.51.2.71 0l1.64-1.64.65.64c.2.2.51.2.71 0l3.65-3.65v.8a.5.5 0 1 0 1 0v-2a.5.5 0 0 0-.5-.5h-2c-.18 0-.35.1-.44.25a.52.52 0 0 0 0 .51.5.5 0 0 0 .44.24h.78l-3.29 3.29-.64-.64a.5.5 0 0 0-.71 0l-1.65 1.64-.64-.64a.5.5 0 0 0-.71 0l-.93.93a6.09 6.09 0 0 1 6.16-7.1zm32.91 1.81c.68 2.26.93 4.8.55 7.12l-1.47.01a18.2 18.2 0 0 0 .92-7.13zm-2.74 2.77l-.18.52a.5.5 0 0 0 .29.64c.26.1.55-.03.64-.29l.2-.56a.53.53 0 0 0-.07-.46.48.48 0 0 0-.41-.2.48.48 0 0 0-.47.35zM25.41 27.7v.22h-.09l.09-.22zm15.71.66h5.19v.82l.01.12H41.1a.5.5 0 0 0 .02-.13zm-1.11 1.94h7.45c.3 0 .53.23.53.53 0 .3-.23.53-.53.53h-7.45a.52.52 0 0 1-.53-.53c0-.3.23-.53.53-.53zm-29.15 1.07h.01a8.67 8.67 0 0 0 3.06 1.77l-1.4 2.44-3.08-1.78zm12.01 0h15.6c-.77.08-1.44.63-1.44 1.41v.58H19.05a9.17 9.17 0 0 0 3.82-1.99zm15.77.99h10.14c.4 0 .62.24.62.42v.58H38.03v-.58c0-.18.21-.42.61-.42zm-37.54 2h7.34l.08.06.16.09-.93 1.62-1.29 2.23h-.99a4.43 4.43 0 0 1-4.37-4zm13.29 0H20v.85c0 1 .8 1.83 1.79 1.83h6.42c.99 0 1.79-.83 1.79-1.83v-.85h18.95a4.46 4.46 0 0 1-4.42 4H11.29l1.01-1.75.16.09a.5.5 0 0 0 .38.05.56.56 0 0 0 .31-.23zm6.61.03h8v.82c0 .48-.35.83-.79.83h-6.42c-.44 0-.79-.35-.79-.83zm-11.45.62l1.89 1.1-4.41 7.63c-.31.54-.96.71-1.49.4-.53-.3-.7-.96-.4-1.49l1.22-2.11 2.26-3.91z"/></svg>