<?xml version="1.0" encoding="UTF-8"?>
<svg width="61px" height="44px" viewBox="0 0 61 44" version="1.1" xmlns="http://www.w3.org/2000/svg" xmlns:xlink="http://www.w3.org/1999/xlink">
    <!-- Generator: Sketch 43.2 (39069) - http://www.bohemiancoding.com/sketch -->
    <title>Shape</title>
    <desc>Created with Sketch.</desc>
    <defs></defs>
    <g id="Page-1" stroke="none" stroke-width="1" fill="none" fill-rule="evenodd">
        <g id="Desktop" transform="translate(-867.000000, -1663.000000)" fill="#FE4B00">
            <path d="M896.578125,1663 C894.098769,1663 892.078138,1665.0207 892.078125,1667.5 C892.078129,1668.92057 892.754244,1670.1744 893.787109,1671 L893.578125,1671 C892.10082,1671 890.801035,1671.72205 889.980469,1672.82227 C889.716476,1672.76052 889.44268,1672.71484 889.148438,1672.71484 L888.90625,1672.71484 C889.871187,1671.99809 890.50782,1670.86189 890.507812,1669.57227 C890.507825,1667.40847 888.741906,1665.64453 886.578125,1665.64453 C884.414343,1665.64453 882.650379,1667.40847 882.650391,1669.57227 C882.650383,1670.86189 883.285623,1671.99809 884.25,1672.71484 L884.005859,1672.71484 C882.426342,1672.71484 881.072625,1673.65419 880.449219,1675 L876.847656,1675 C875.586188,1675 874.556641,1676.03427 874.556641,1677.29688 L874.556641,1684.98242 C874.175978,1684.6536 873.686109,1684.44727 873.146484,1684.44727 C871.958968,1684.44727 870.980455,1685.41346 870.980469,1686.59766 C870.980465,1686.89835 871.044619,1687.18302 871.158203,1687.44336 L868.876953,1689.38086 C868.754424,1689.3481 868.62825,1689.32617 868.496094,1689.32617 C867.678594,1689.32617 867.000027,1689.9951 867,1690.8125 C866.999943,1691.63 867.678537,1692.29883 868.496094,1692.29883 C868.570923,1692.29883 868.642787,1692.2862 868.714844,1692.27539 L870.720703,1695.58789 C870.638026,1695.75702 870.582038,1695.94145 870.582031,1696.14062 C870.582054,1696.84902 871.171338,1697.42969 871.878906,1697.42969 C872.452405,1697.42969 872.942068,1697.04518 873.109375,1696.52344 L874.556641,1696.04492 L874.556641,1701.0293 L872.056641,1701.0293 C871.78051,1701.02932 871.556668,1701.25317 871.556641,1701.5293 C871.556641,1704.5523 874.005997,1707 877.029297,1707 L916.083984,1707 C919.107284,1707 921.556641,1704.5523 921.556641,1701.5293 C921.556613,1701.25317 921.332772,1701.02932 921.056641,1701.0293 L918.556641,1701.0293 L918.556641,1692.61133 C919.112143,1692.96059 919.494028,1693.54527 919.578125,1694.23047 L919.578125,1694.5 C919.578153,1694.77613 919.801994,1694.99997 920.078125,1695 L922.078125,1695 C922.354256,1694.99997 922.578097,1694.77613 922.578125,1694.5 L922.578125,1691.63672 C923.933252,1691.41765 924.9785,1690.24701 924.978516,1688.83203 C924.9785,1687.41703 923.933273,1686.24283 922.578125,1686.02344 L922.578125,1683.5 C922.578097,1683.22387 922.354256,1683.00003 922.078125,1683 L920.078125,1683 C919.801994,1683.00003 919.578153,1683.22387 919.578125,1683.5 L919.578125,1683.80273 C919.49422,1684.48846 919.112347,1685.07393 918.556641,1685.42383 L918.556641,1677.29688 C918.556641,1676.03427 917.527093,1675 916.265625,1675 L912.707031,1675 C912.083625,1673.65419 910.729908,1672.71484 909.150391,1672.71484 L908.478516,1672.71484 C909.442892,1671.99809 910.078132,1670.86189 910.078125,1669.57227 C910.078137,1667.40847 908.314172,1665.64453 906.150391,1665.64453 C903.986609,1665.64453 902.222644,1667.40847 902.222656,1669.57227 C902.222649,1670.87033 902.864722,1672.01471 903.839844,1672.73047 C903.608412,1672.74231 903.38732,1672.77263 903.175781,1672.82227 C902.355215,1671.72205 901.05543,1671 899.578125,1671 L899.369141,1671 C900.402006,1670.1744 901.078121,1668.92057 901.078125,1667.5 C901.078112,1665.0207 899.057481,1663 896.578125,1663 Z M896.578125,1664 C898.517043,1664 900.078115,1665.5611 900.078125,1667.5 C900.078119,1669.4389 898.517046,1671 896.578125,1671 C894.639204,1671 893.078131,1669.4389 893.078125,1667.5 C893.078135,1665.5611 894.639207,1664 896.578125,1664 Z M886.578125,1666.64453 C888.201464,1666.64453 889.507822,1667.94897 889.507812,1669.57227 C889.507821,1671.19557 888.201464,1672.5 886.578125,1672.5 C884.954785,1672.5 883.650382,1671.19557 883.650391,1669.57227 C883.650382,1667.94897 884.954785,1666.64453 886.578125,1666.64453 Z M906.150391,1666.64453 C907.77373,1666.64453 909.078134,1667.94897 909.078125,1669.57227 C909.078134,1671.19557 907.77373,1672.5 906.150391,1672.5 C904.527051,1672.5 903.222647,1671.19557 903.222656,1669.57227 C903.222647,1667.94897 904.527051,1666.64453 906.150391,1666.64453 Z M893.578125,1672 L899.578125,1672 C900.802636,1672 901.869682,1672.61305 902.494141,1673.55273 C902.49414,1673.55339 902.49414,1673.55404 902.494141,1673.55469 C902.506538,1673.59027 902.522918,1673.62434 902.542969,1673.65625 C902.681434,1673.87892 902.789362,1674.11825 902.876953,1674.36719 C902.908407,1674.46005 902.941086,1674.55213 902.964844,1674.64844 C902.985915,1674.73011 903.002507,1674.81258 903.017578,1674.89648 C903.051164,1675.09289 903.078125,1675.29331 903.078125,1675.5 L903.078125,1682 L901.667969,1682 L901.667969,1677.93555 L900.667969,1677.93555 L900.667969,1682 L892.667969,1682 L892.667969,1677.93555 L891.667969,1677.93555 L891.667969,1682 L890.078125,1682 L890.078125,1675.5 C890.078125,1675.2947 890.103574,1675.09556 890.136719,1674.90039 C890.153125,1674.80903 890.17374,1674.71957 890.197266,1674.63086 C890.218315,1674.54745 890.24659,1674.46754 890.273438,1674.38672 C890.362243,1674.13057 890.473126,1673.88478 890.615234,1673.65625 C890.636511,1673.62197 890.653563,1673.58525 890.666016,1673.54688 C891.291011,1672.61046 892.356138,1672 893.578125,1672 Z M884.005859,1673.71289 L884.005859,1673.71484 L889.148438,1673.71484 C889.242824,1673.71484 889.335003,1673.74072 889.427734,1673.76172 C889.261762,1674.15744 889.171534,1674.58771 889.125,1675.03125 C889.09575,1675.18224 889.078125,1675.33638 889.078125,1675.49805 L889.078125,1675.5 L889.078125,1681.99805 L883.667969,1681.99805 L883.667969,1678.93555 L882.667969,1678.93555 L882.667969,1681.99805 L881.078125,1681.99805 L881.078125,1676.64062 C881.078125,1675.00942 882.374673,1673.71289 884.005859,1673.71289 Z M904.007812,1673.71484 L909.150391,1673.71484 C910.781577,1673.71484 912.078125,1675.01138 912.078125,1676.64258 L912.078125,1682 L909.667969,1682 L909.667969,1678.93555 L908.667969,1678.93555 L908.667969,1682 L904.078125,1682 L904.078125,1675.5 C904.078125,1675.33835 904.060314,1675.18224 904.03125,1675.03125 C903.984716,1674.58771 903.894488,1674.15744 903.728516,1673.76172 C903.82109,1673.74064 903.913295,1673.71484 904.007812,1673.71484 Z M876.847656,1676 L880.142578,1676 C880.107704,1676.21027 880.078125,1676.42249 880.078125,1676.64258 L880.078125,1678.01562 L878.056641,1678.01562 C877.78051,1678.01565 877.556669,1678.23949 877.556641,1678.51562 L877.556641,1698.51562 C877.556669,1698.79176 877.78051,1699.0156 878.056641,1699.01562 L915.056641,1699.01562 C915.332772,1699.0156 915.556613,1698.79176 915.556641,1698.51562 L915.556641,1692.26367 L915.669922,1692.26367 L917.361328,1692.26367 C917.428175,1692.26367 917.491335,1692.27757 917.556641,1692.2832 L917.556641,1701.0293 L875.556641,1701.0293 L875.556641,1677.29688 C875.556641,1676.56967 876.123984,1676 876.847656,1676 Z M913.013672,1676 L916.265625,1676 C916.989297,1676 917.556641,1676.56967 917.556641,1677.29688 L917.556641,1685.75391 C917.491363,1685.75954 917.428146,1685.77344 917.361328,1685.77344 L915.669922,1685.77344 L915.556641,1685.77344 L915.556641,1678.51562 C915.556613,1678.23949 915.332772,1678.01565 915.056641,1678.01562 L913.078125,1678.01562 L913.078125,1676.64258 C913.078125,1676.42249 913.048546,1676.21027 913.013672,1676 Z M878.556641,1679.01562 L880.078125,1679.01562 L880.078125,1682.5 C880.078153,1682.77613 880.301994,1682.99997 880.578125,1683 L889.578125,1683 L903.578125,1683 L912.578125,1683 C912.854256,1682.99997 913.078097,1682.77613 913.078125,1682.5 L913.078125,1679.01562 L914.556641,1679.01562 L914.556641,1685.77344 L913.439453,1685.77344 L913.097656,1685.77344 C913.080773,1685.77193 913.063824,1685.77127 913.046875,1685.77148 L912.261719,1685.77148 L910.300781,1685.77148 C909.417901,1685.77148 908.694485,1686.47054 908.636719,1687.33984 L907.949219,1687.33984 C907.463617,1687.33984 907.056641,1687.74682 907.056641,1688.23242 L907.056641,1689.80078 C907.056641,1690.28638 907.463617,1690.69336 907.949219,1690.69336 L908.636719,1690.69336 C908.68034,1691.35767 909.111308,1691.91749 909.708984,1692.14648 L908.552734,1697.06445 C908.52167,1697.19575 908.545631,1697.32172 908.619313,1697.41447 C908.692996,1697.50721 908.81032,1697.55908 908.945312,1697.55859 L911.695312,1697.55859 C911.829877,1697.55862 911.971172,1697.50655 912.088048,1697.41386 C912.204924,1697.32116 912.287784,1697.19546 912.318359,1697.06445 L913.445312,1692.26367 L914.556641,1692.26367 L914.556641,1698.01562 L878.556641,1698.01562 L878.556641,1679.01562 Z M925.857422,1682.9082 L924.5,1683.69141 L925,1684.55859 L926.357422,1683.77344 L925.857422,1682.9082 Z M920.605469,1684 L921.578125,1684 L921.578125,1694 L920.605469,1694 L920.605469,1684 Z M873.146484,1685.44727 C873.798297,1685.44727 874.310554,1685.95866 874.310547,1686.59766 C874.310554,1687.23666 873.798297,1687.74805 873.146484,1687.74805 C872.494672,1687.74805 871.980461,1687.23666 871.980469,1686.59766 C871.980461,1685.95866 872.494672,1685.44727 873.146484,1685.44727 Z M927.076172,1685.50586 L925.560547,1685.91211 L925.818359,1686.87891 L927.333984,1686.47266 L927.076172,1685.50586 Z M919.578125,1685.87305 L919.578125,1692.16211 C918.99631,1691.61138 918.221803,1691.26367 917.361328,1691.26367 L915.669922,1691.26367 L913.546875,1691.26367 L913.546875,1686.77344 L915.669922,1686.77344 L917.361328,1686.77344 C918.221796,1686.77344 918.996314,1686.42381 919.578125,1685.87305 Z M910.300781,1686.77148 L912.261719,1686.77148 L912.546875,1686.77148 L912.546875,1691.26172 L912.261719,1691.26172 L910.300781,1691.26172 C909.917343,1691.26172 909.625,1690.96934 909.625,1690.58594 L909.625,1690.19336 L909.625,1687.83984 L909.625,1687.44922 C909.625,1687.06582 909.917343,1686.77148 910.300781,1686.77148 Z M922.626953,1687.18555 C923.378077,1687.42165 923.978507,1687.99913 923.978516,1688.83203 C923.978507,1689.66483 923.378077,1690.24036 922.626953,1690.47656 L922.626953,1688.83203 L922.626953,1687.18555 Z M880.054688,1687.5 C879.922079,1687.50207 879.795723,1687.55673 879.703419,1687.65197 C879.611116,1687.7472 879.560425,1687.8752 879.5625,1688.00781 L879.5625,1695.92969 C879.539359,1696.07589 879.582184,1696.22484 879.679445,1696.33643 C879.776707,1696.44801 879.91841,1696.51077 880.066406,1696.50781 L884.054688,1696.50781 L892.054688,1696.50781 C892.235006,1696.51036 892.402729,1696.41562 892.493632,1696.25988 C892.584535,1696.10413 892.584535,1695.9115 892.493632,1695.75575 C892.402729,1695.6 892.235006,1695.50526 892.054688,1695.50781 L884.054688,1695.50781 L881.263672,1695.50781 L883.5625,1693.20898 L884.208984,1693.85547 C884.404249,1694.05065 884.720751,1694.05065 884.916016,1693.85547 L886.5625,1692.20898 L887.208984,1692.85547 C887.404249,1693.05065 887.720751,1693.05065 887.916016,1692.85547 L891.568359,1689.20312 L891.568359,1690.00781 C891.565809,1690.18813 891.660547,1690.35585 891.816295,1690.44676 C891.972044,1690.53766 892.164674,1690.53766 892.320423,1690.44676 C892.476171,1690.35585 892.570909,1690.18813 892.568359,1690.00781 L892.568359,1688.00781 C892.568331,1687.73168 892.34449,1687.50784 892.068359,1687.50781 L890.068359,1687.50781 C889.888041,1687.50526 889.720318,1687.6 889.629415,1687.75575 C889.538512,1687.9115 889.538512,1688.10413 889.629415,1688.25988 C889.720318,1688.41562 889.888041,1688.51036 890.068359,1688.50781 L890.849609,1688.50781 L887.5625,1691.79492 L886.916016,1691.14844 C886.720751,1690.95325 886.404249,1690.95325 886.208984,1691.14844 L884.5625,1692.79492 L883.916016,1692.14844 C883.720751,1691.95325 883.404249,1691.95325 883.208984,1692.14844 L880.5625,1694.79492 L880.5625,1688.00781 C880.564617,1687.87249 880.511796,1687.7421 880.4161,1687.6464 C880.320404,1687.5507 880.190006,1687.49788 880.054688,1687.5 Z M895.048828,1687.5 C894.916219,1687.50207 894.789864,1687.55673 894.69756,1687.65197 C894.605256,1687.7472 894.554566,1687.8752 894.556641,1688.00781 L894.556641,1696.00781 C894.556669,1696.28394 894.78051,1696.50778 895.056641,1696.50781 L899.048828,1696.50781 L905.048828,1696.50781 C905.229146,1696.51036 905.396869,1696.41562 905.487772,1696.25988 C905.578675,1696.10413 905.578675,1695.9115 905.487772,1695.75575 C905.396869,1695.6 905.229146,1695.50526 905.048828,1695.50781 L903.564453,1695.50781 L903.564453,1689.99414 C903.566571,1689.85882 903.513749,1689.72842 903.418053,1689.63273 C903.322357,1689.53703 903.191959,1689.48421 903.056641,1689.48633 C902.924032,1689.4884 902.797676,1689.54306 902.705372,1689.6383 C902.613068,1689.73353 902.562378,1689.86153 902.564453,1689.99414 L902.564453,1695.50781 L901.564453,1695.50781 L901.564453,1688.99414 C901.566571,1688.85882 901.513749,1688.72842 901.418053,1688.63273 C901.322357,1688.53703 901.191959,1688.48421 901.056641,1688.48633 C900.924032,1688.4884 900.797676,1688.54306 900.705372,1688.6383 C900.613068,1688.73353 900.562378,1688.86153 900.564453,1688.99414 L900.564453,1695.50781 L899.564453,1695.50781 L899.564453,1690.99414 C899.566571,1690.85882 899.513749,1690.72842 899.418053,1690.63273 C899.322357,1690.53703 899.191959,1690.48421 899.056641,1690.48633 C898.924032,1690.4884 898.797676,1690.54306 898.705372,1690.6383 C898.613068,1690.73353 898.562378,1690.86153 898.564453,1690.99414 L898.564453,1695.50781 L897.564453,1695.50781 L897.564453,1692.99414 C897.566571,1692.85882 897.513749,1692.72842 897.418053,1692.63273 C897.322357,1692.53703 897.191959,1692.48421 897.056641,1692.48633 C896.924032,1692.4884 896.797676,1692.54306 896.705372,1692.6383 C896.613068,1692.73353 896.562378,1692.86153 896.564453,1692.99414 L896.564453,1695.50781 L895.556641,1695.50781 L895.556641,1688.00781 C895.558758,1687.87249 895.505937,1687.7421 895.410241,1687.6464 C895.314544,1687.5507 895.184146,1687.49788 895.048828,1687.5 Z M874.556641,1688.21094 L874.556641,1690.87109 C874.301095,1690.57656 873.927817,1690.38672 873.511719,1690.38672 C873.00485,1690.38672 872.560857,1690.66706 872.318359,1691.07812 L869.976562,1690.68359 C869.953235,1690.42242 869.867394,1690.17806 869.724609,1689.97266 L871.767578,1688.23828 C872.144225,1688.55077 872.621998,1688.74805 873.146484,1688.74805 C873.686109,1688.74805 874.175978,1688.53976 874.556641,1688.21094 Z M926.009766,1688.33008 L926.009766,1689.33008 L927.578125,1689.33008 L927.578125,1688.33008 L926.009766,1688.33008 Z M908.056641,1688.33984 L908.625,1688.33984 L908.625,1689.69336 L908.056641,1689.69336 L908.056641,1688.33984 Z M868.496094,1690.32617 C868.777904,1690.32617 868.990225,1690.5403 868.990234,1690.8125 C868.990253,1691.0848 868.777926,1691.29883 868.496094,1691.29883 C868.214261,1691.29883 867.999981,1691.0848 868,1690.8125 C868.000009,1690.5403 868.214283,1690.32617 868.496094,1690.32617 Z M925.818359,1690.7832 L925.560547,1691.75 L927.076172,1692.15625 L927.333984,1691.18945 L925.818359,1690.7832 Z M873.511719,1691.38672 C873.734549,1691.38672 873.898454,1691.55458 873.898438,1691.76758 C873.898429,1691.98058 873.73453,1692.14648 873.511719,1692.14648 C873.288908,1692.14648 873.123055,1691.98058 873.123047,1691.76758 C873.123031,1691.55458 873.288888,1691.38672 873.511719,1691.38672 Z M869.720703,1691.6543 L872.160156,1692.06641 C872.236542,1692.40085 872.434766,1692.69034 872.707031,1692.88477 L871.824219,1694.85547 C871.706237,1694.86058 871.592708,1694.88271 871.484375,1694.91797 L869.597656,1691.80078 C869.640503,1691.75364 869.68409,1691.70656 869.720703,1691.6543 Z M910.695312,1692.26172 L912.261719,1692.26172 L912.433594,1692.26172 L911.419922,1696.57227 L909.681641,1696.57227 L910.695312,1692.26172 Z M874.556641,1692.66016 L874.556641,1694.99219 L872.984375,1695.50977 C872.920291,1695.39996 872.854078,1695.29365 872.761719,1695.20703 L873.695312,1693.12695 C874.037263,1693.08062 874.339601,1692.91007 874.556641,1692.66016 Z M925,1693.10352 L924.5,1693.9707 L925.857422,1694.75391 L926.357422,1693.88867 L925,1693.10352 Z M871.878906,1695.84961 C872.050786,1695.84961 872.175776,1695.97733 872.175781,1696.14062 C872.175776,1696.30383 872.050786,1696.42969 871.878906,1696.42969 C871.707027,1696.42969 871.582037,1696.30383 871.582031,1696.14062 C871.582037,1695.97733 871.707027,1695.84961 871.878906,1695.84961 Z M872.65625,1702.0293 L892.556641,1702.0293 L892.556641,1703.29102 C892.556641,1704.28642 893.352519,1705.11914 894.341797,1705.11914 L900.771484,1705.11914 C901.760768,1705.11914 902.556641,1704.28642 902.556641,1703.29102 L902.556641,1702.0293 L920.457031,1702.0293 C920.20037,1704.2642 918.39304,1706 916.083984,1706 L877.029297,1706 C874.720241,1706 872.912911,1704.2642 872.65625,1702.0293 Z M893.556641,1702.46484 L901.556641,1702.46484 L901.556641,1703.29102 C901.556641,1703.76652 901.20678,1704.11914 900.771484,1704.11914 L894.341797,1704.11914 C893.906515,1704.11914 893.556641,1703.76652 893.556641,1703.29102 L893.556641,1702.46484 Z" id="Shape"></path>
        </g>
    </g>
</svg>