<svg xmlns="http://www.w3.org/2000/svg" width="126" height="56" viewBox="0 0 126 56"><path fill="#18203f" d="M0 45.21h124.79V24H0z"/><path fill="#e16e2b" d="M62.11 21.75C51.57 21.75 43 16.87 43 10.88 43 4.87 51.57 0 62.11 0c1.68.03 3.27.12 4.7.34l.55.08-.45.97-.55-.1c-1.3-.21-2.75-.3-4.25-.32-9.14 0-16.55 4.44-16.55 9.91s7.41 9.9 16.55 9.9 16.55-4.43 16.55-9.9c0-3.26-2.61-6.13-6.64-7.94l-.09-.04.55-1.16c5.26 1.94 8.74 5.31 8.74 9.14 0 5.99-8.56 10.87-19.11 10.87"/><path fill="#e16e2b" d="M51.93 9.57c1.52-3.98 7.99-6.52 14.24-5.26l-.47.98c-3.41-.63-8.65-.12-11.1 4.31l-2.7.06zm10.73 9.33c-4.99-.07-9.5-2.35-10.73-5.59l-.03-.08 2.7.06c2.45 4.42 7.69 4.93 11.1 4.3l.47.99c-1.18.23-2.36.33-3.51.32zm-.17.99c6.5 0 11.85-3.33 12.5-7.58v-.09H64.28l.71-1.56h10v-.08c-.65-4.26-6-7.58-12.5-7.58C56 3 50.65 6.32 50.01 10.58l-.01.1h13.22l-.71 1.56H50l.01.07c.64 4.25 5.99 7.58 12.48 7.58zM70.44 0c.78 0 1.41.64 1.41 1.43 0 .8-.63 1.45-1.41 1.45a1.44 1.44 0 1 1 0-2.88"/><path fill="#fff" d="M12.08 33.36h-3.6v-1.35h3.83V30H6v8.9h6.51v-2.01H8.48v-1.52h3.6v-2.01M15.46 35.18h.65c1 0 1.74.26 1.74 1.01 0 .78-.71 1.08-1.58 1.08-.37 0-.61 0-.81-.02zm0-3.35c.18-.02.43-.05.9-.05.88 0 1.32.29 1.32.79 0 .56-.53.87-1.69.87h-.53zm.08 7.25c1.98 0 3.13-.28 3.84-.75a2.41 2.41 0 0 0 1.1-2.01c0-1.11-.68-1.9-1.8-2.19v-.02c1.09-.39 1.51-1.1 1.51-1.85a2 2 0 0 0-1.36-1.89 7.17 7.17 0 0 0-2.82-.37c-1.18 0-2.48.1-3.01.2v8.72c.49.08 1.33.16 2.54.16zM24.46 31.9c.13-.03.39-.05.82-.05.98 0 1.47.41 1.47 1.07 0 .8-.68 1.23-1.65 1.23-.31 0-.49-.01-.64-.04zm0 7.08V36c.16.02.39.04.67.04 1.37 0 2.44-.29 3.21-.98.58-.49.87-1.3.87-2.16 0-.96-.46-1.75-1.09-2.19-.61-.45-1.54-.71-2.87-.71-1.57 0-2.56.09-3.25.2v8.78zM34.81 37.29c-1.33 0-2.17-1.14-2.17-2.67s.84-2.69 2.17-2.69 2.17 1.16 2.17 2.69-.8 2.67-2.16 2.67zm4.82-2.74c0-2.61-1.78-4.55-4.78-4.55-2.9 0-4.85 1.97-4.85 4.69 0 2.56 1.77 4.53 4.7 4.53h.01c3.04 0 4.92-1.97 4.92-4.67zM48.34 36.87c-.43.18-1.17.31-1.85.31-1.84 0-2.88-1.07-2.88-2.6 0-1.77 1.32-2.57 2.81-2.57.82 0 1.48.18 1.93.36l.51-1.93a6.18 6.18 0 0 0-2.53-.44C43.41 30 41 31.66 41 34.75c0 2.39 1.6 4.47 5.19 4.47a6.4 6.4 0 0 0 2.53-.43l-.38-1.92M50 30v8.9h3.02l1.47-2.58a26.7 26.7 0 0 0 1.65-3.51h.04a32.53 32.53 0 0 0-.16 3.76v2.33h2.29V30h-2.64l-1.6 2.98a78.65 78.65 0 0 0-1.8 3.57h-.05c.07-1.35.08-2.8.08-4.15V30H50M62.46 34.81c.26-.03.48-.06.71-.06.43 0 .95.1 1.3.37.24.18.4.44.4.79 0 .4-.19.71-.45.91-.31.24-.74.36-1.15.36-.27 0-.57-.01-.81-.05zM60 38.84c.48.08 1.3.16 2.51.16 1.42 0 3.06-.25 4.05-1.05.57-.46.93-1.16.93-2.04 0-.97-.4-1.66-1.01-2.12a4.68 4.68 0 0 0-2.8-.82c-.42 0-.86.03-1.21.07v-1.03h4.29V30H60zM68.87 35.49h4.09c-.21 1.13-1.25 1.74-2.61 1.74a6.1 6.1 0 0 1-1.95-.3l-.4 1.86c.4.2 1.45.43 2.46.43 2.95 0 5.23-1.54 5.23-4.61 0-2.56-1.5-4.61-4.98-4.61-1.06 0-2.08.3-2.62.52l.45 1.78a6.47 6.47 0 0 1 2.01-.36c1.45 0 2.27.68 2.42 1.69h-4.1v1.86M77 30v8.9h2.49v-3.53h3.34v3.53h2.48V30h-2.48v3.23h-3.34V30H77M93.08 33.36h-3.6v-1.35h3.83V30H87v8.9h6.51v-2.01h-4.03v-1.52h3.6v-2.01M97.46 31.9c.14-.03.39-.05.82-.05.98 0 1.48.41 1.48 1.07 0 .8-.69 1.23-1.65 1.23-.31 0-.5-.01-.65-.04zm0 7.08V36c.16.02.39.04.67.04 1.37 0 2.45-.29 3.21-.98.58-.49.87-1.3.87-2.16 0-.96-.46-1.75-1.08-2.19a4.85 4.85 0 0 0-2.88-.71c-1.57 0-2.56.09-3.25.2v8.78zM103 30v8.9h2.48v-6.89h3.6V30H103M114.82 37.29c-1.33 0-2.17-1.14-2.17-2.67s.84-2.69 2.17-2.69 2.16 1.16 2.16 2.69-.8 2.67-2.15 2.67zm4.81-2.74c0-2.61-1.78-4.55-4.78-4.55-2.9 0-4.85 1.97-4.85 4.69 0 2.56 1.77 4.53 4.7 4.53h.01c3.04 0 4.92-1.97 4.92-4.67z"/><path fill="#18203f" d="M1.65 53.78c.74 0 1.11-.8 1.11-1.69 0-.8-.34-1.67-1.11-1.67-.76 0-1.12.82-1.12 1.7 0 .86.38 1.66 1.12 1.66zm-.03.43C.66 54.21 0 53.4 0 52.13 0 50.81.71 50 1.68 50c.98 0 1.62.82 1.62 2.07 0 1.44-.76 2.14-1.68 2.14zM4.51 53.69c.11.02.23.03.38.03.31 0 .6-.11.78-.31a.9.9 0 0 0 .21-.6.79.79 0 0 0-.29-.65 1.14 1.14 0 0 0-.72-.21c-.1 0-.24 0-.36.02zm1.61-3.26H4.51v1.14c.12-.02.32-.03.44-.03.38 0 .73.1.99.29.29.2.47.52.47.97 0 .37-.12.66-.32.87-.3.32-.8.45-1.34.45-.34 0-.59-.03-.75-.05V50h2.12zM7.5 50v3.66h1.18V50h.51v3.66h1.18V50h.5v3.67l.33.01-.03 1.35h-.4l-.03-.94H7V50h.5M13.92 52.16h-1.41v1.5h1.58v.43H12V50h2v.43h-1.49v1.31h1.41v.42M17.74 54.03c-.17.09-.51.17-.93.17-1.04 0-1.81-.71-1.81-2.06 0-1.38.84-2.14 1.92-2.14.42 0 .71.09.83.16l-.12.42c-.17-.08-.4-.15-.7-.15-.8 0-1.39.56-1.39 1.68 0 1.08.54 1.65 1.37 1.65.28 0 .56-.06.74-.15l.09.42"/><path fill="#18203f" d="M18.09 50.44H17V50h2.69v.44H18.6v3.65h-.51v-3.65M21.51 53.72c.09.02.21.03.38.03.52 0 .97-.23.97-.8 0-.55-.45-.8-.98-.8h-.37zm0-1.96h.39c.51 0 .83-.29.83-.7 0-.44-.3-.67-.82-.67-.2 0-.32.02-.4.04zm.37-1.76c.48 0 .8.09 1.05.3.2.16.32.4.32.71 0 .4-.26.75-.67.9v.02c.41.1.81.44.81 1.03 0 .35-.13.61-.33.81-.27.26-.7.38-1.31.38-.34 0-.59-.02-.75-.04v-4.02c.22-.05.54-.09.88-.09z"/><path fill="#18203f" d="M24.65 53.78c.74 0 1.11-.8 1.11-1.69 0-.8-.34-1.67-1.11-1.67-.76 0-1.12.82-1.12 1.7 0 .86.38 1.66 1.12 1.66zm-.03.43c-.96 0-1.62-.81-1.62-2.08 0-1.32.71-2.13 1.68-2.13.98 0 1.62.82 1.62 2.07 0 1.44-.76 2.14-1.68 2.14zM30.74 54.03c-.17.09-.51.17-.93.17-1.04 0-1.81-.71-1.81-2.06 0-1.38.84-2.14 1.92-2.14.42 0 .71.09.83.16l-.12.42c-.17-.08-.4-.15-.7-.15-.8 0-1.39.56-1.39 1.68 0 1.08.54 1.65 1.37 1.65.28 0 .56-.06.73-.15l.1.42M34.65 53.78c.74 0 1.11-.8 1.11-1.69 0-.8-.34-1.67-1.11-1.67-.76 0-1.12.82-1.12 1.7 0 .86.38 1.66 1.12 1.66zm-.03.43c-.96 0-1.62-.81-1.62-2.08 0-1.32.71-2.13 1.68-2.13.98 0 1.62.82 1.62 2.07 0 1.44-.76 2.14-1.68 2.14zM38.99 50v.43h-1.48v3.66H37V50h1.99M39.51 52.05c.09.02.21.04.36.04.58 0 .94-.31.94-.88 0-.5-.32-.8-.88-.8-.19 0-.34.02-.42.04zm.4-2.05c.47 0 .84.12 1.07.33.21.2.34.49.34.85 0 .38-.1.66-.3.86-.26.31-.69.46-1.16.46-.13 0-.25-.01-.35-.03v1.65H39v-4.03c.24-.05.53-.09.91-.09zM44.08 52.42l-.35-1.13c-.08-.28-.14-.55-.19-.8h-.02a8.2 8.2 0 0 1-.19.79l-.35 1.14zm-1.56 1.67H42L43.25 50h.6l1.24 4.09h-.53l-.39-1.27h-1.28z"/><path fill="#18203f" d="M45.51 50v1.72h1.72V50h.51v4.09h-.51v-1.92h-1.72v1.92H45V50h.51M49.47 50v1.64c0 .67-.01 1.2-.05 1.77l.02.01c.18-.43.42-.9.68-1.37L51.26 50h.5v4.09h-.47v-1.65c0-.72.01-1.21.05-1.74h-.01c-.19.46-.44.93-.68 1.37l-1.12 2.02H49V50h.47M53.51 50v1.33c0 .51.24.83.76.83.25 0 .52-.09.71-.2V50h.51v4.12h-.51v-1.76h-.02c-.25.14-.55.22-.86.22-.54 0-1.1-.26-1.1-1.16V50h.51M57.92 52.16h-1.41v1.5h1.58v.43H56V50h2v.43h-1.49v1.31h1.41v.42M59.51 50v1.72h1.72V50h.5v4.09h-.5v-1.92h-1.72v1.92H59V50h.51M62.51 50v1.72h1.72V50h.5v4.09h-.5v-1.92h-1.72v1.92H62V50h.51M67.65 53.78c.74 0 1.11-.8 1.11-1.69 0-.8-.34-1.67-1.11-1.67-.76 0-1.12.82-1.12 1.7 0 .86.38 1.66 1.12 1.66zm-.03.43c-.96 0-1.62-.81-1.62-2.08 0-1.32.71-2.13 1.68-2.13.98 0 1.62.82 1.62 2.07 0 1.44-.76 2.14-1.68 2.14zM71.02 49c.03.18.09.36.36.36.26 0 .34-.17.37-.36h.38c-.04.4-.28.63-.76.63-.46 0-.7-.23-.73-.63zm-.55.82H70v4.09h.53l1.12-2.02c.24-.44.49-.91.68-1.37h.01c-.04.53-.05 1.02-.05 1.74v1.65h.47v-4.09h-.5l-1.14 2.05c-.26.47-.5.94-.68 1.37l-.02-.01c.04-.57.05-1.1.05-1.77zM75.65 53.78c.74 0 1.11-.8 1.11-1.69 0-.8-.34-1.67-1.11-1.67-.76 0-1.12.82-1.12 1.7 0 .86.38 1.66 1.12 1.66zm-.03.43c-.96 0-1.62-.81-1.62-2.08 0-1.32.71-2.13 1.68-2.13.98 0 1.62.82 1.62 2.07 0 1.44-.76 2.14-1.68 2.14zM79.09 50.44H78V50h2.69v.44H79.6v3.65h-.51v-3.65M81.51 53.72c.09.02.21.03.38.03.52 0 .97-.23.97-.8 0-.55-.46-.8-.98-.8h-.37zm0-1.96h.39c.5 0 .83-.29.83-.7 0-.44-.3-.67-.82-.67-.2 0-.33.02-.4.04zm.37-1.76c.48 0 .8.09 1.05.3.2.16.31.4.31.71 0 .4-.25.75-.66.9v.02c.41.1.81.44.81 1.03 0 .35-.13.61-.33.81-.27.26-.7.38-1.31.38-.34 0-.59-.02-.75-.04v-4.02c.22-.05.54-.09.88-.09zM85.92 52.16h-1.41v1.5h1.59v.43H84V50h2v.43h-1.49v1.31h1.41v.42"/><path fill="#18203f" d="M87.09 50.44H86V50h2.69v.44H87.6v3.65h-.51v-3.65M91.74 54.03c-.17.09-.51.17-.93.17-1.04 0-1.81-.71-1.81-2.06 0-1.38.84-2.14 1.92-2.14.42 0 .71.09.83.16l-.12.42c-.17-.08-.4-.15-.7-.15-.8 0-1.39.56-1.39 1.68 0 1.08.53 1.65 1.37 1.65.28 0 .56-.06.73-.15l.1.42M93.09 50.44H92V50h2.69v.44H93.6v3.65h-.51v-3.65M95.51 53.72c.09.02.21.03.38.03.52 0 .97-.23.97-.8 0-.55-.45-.8-.98-.8h-.37zm0-1.96h.4c.5 0 .82-.29.82-.7 0-.44-.3-.67-.82-.67-.2 0-.33.02-.4.04zm.37-1.76c.48 0 .8.09 1.05.3.2.16.32.4.32.71 0 .4-.26.75-.67.9v.02c.41.1.81.44.81 1.03 0 .35-.13.61-.33.81-.27.26-.7.38-1.31.38-.34 0-.59-.02-.75-.04v-4.02c.22-.05.54-.09.88-.09zM99.92 52.16h-1.41v1.5h1.58v.43H98V50h2v.43h-1.49v1.31h1.41v.42M101.51 50v1.72h1.72V50h.51v4.09h-.51v-1.92h-1.72v1.92H101V50h.51M105.51 50v1.72h1.72V50h.51v4.09h-.51v-1.92h-1.72v1.92H105V50h.51M109.65 53.78c.74 0 1.11-.8 1.11-1.69 0-.8-.34-1.67-1.11-1.67-.76 0-1.12.82-1.12 1.7 0 .86.38 1.66 1.12 1.66zm-.03.43c-.96 0-1.62-.81-1.62-2.08 0-1.32.71-2.13 1.68-2.13.98 0 1.62.82 1.62 2.07 0 1.44-.76 2.14-1.68 2.14zM114.74 54.03c-.17.09-.51.17-.93.17-1.04 0-1.81-.71-1.81-2.06 0-1.38.84-2.14 1.92-2.14.42 0 .71.09.83.16l-.12.42c-.17-.08-.4-.15-.7-.15-.8 0-1.39.56-1.39 1.68 0 1.08.53 1.65 1.37 1.65.28 0 .56-.06.74-.15l.09.42M116.09 50.44H115V50h2.69v.44h-1.09v3.65h-.51v-3.65M118.51 53.69c.11.02.22.03.37.03.56 0 1-.31 1-.91 0-.6-.45-.87-1-.87l-.37.02zm0-2.13c.11-.02.31-.03.44-.03.81 0 1.47.4 1.47 1.26 0 .37-.12.65-.31.87-.31.32-.81.46-1.36.46-.34 0-.59-.03-.75-.05V50h.51zM124.6 52.09c0-.8-.3-1.67-1.02-1.67-.71 0-1.02.85-1.02 1.7 0 .84.34 1.67 1.02 1.67.69 0 1.02-.81 1.02-1.7zm-3.09-.27h.55c.1-1.15.7-1.82 1.55-1.82.94 0 1.51.82 1.51 2.07 0 1.45-.7 2.14-1.56 2.14-.87 0-1.47-.72-1.5-1.95h-.55v1.89H121v-4.09h.51z"/></svg>