<svg xmlns="http://www.w3.org/2000/svg" width="110" height="47" viewBox="0 0 110 47"><path fill="#fff" d="M17.93 3.72c.23-.54.71-1.3 1.73-2.27C21.6-.39 24.71.05 24.71.05s3.14.24 4.65 2.46c1.51 2.22 1.25 3.29 1.26 3.28a6.48 6.48 0 0 1 3-.62c2.65-.05 4.68 2.39 4.68 2.39s2.17 2.32 1.84 4.99c-.34 2.68-1.24 3.3-1.24 3.3s1.08-.15 3.09 1.62c2.01 1.75 1.91 4.95 1.91 4.95s.1 3.2-1.91 4.96a6.92 6.92 0 0 1-2.38 1.5c.3.45.72 1.27 1.01 2.77.5 2.65-1.52 5.1-1.52 5.1s-1.87 2.57-4.52 2.69c-2.66.12-3.41-.68-3.41-.68s.33 1.05-1.04 3.37c-1.36 2.31-4.48 2.76-4.48 2.76s-3.09.65-5.13-1.06a6.58 6.58 0 0 1-1.98-2.39c0-.01-.45 1-2.99 1.8-2.53.79-5.14-1-5.14-1s-2.72-1.61-3.12-4.28a8.06 8.06 0 0 1-.04-2.59c-.53.04-1.44 0-2.86-.49-2.51-.87-3.61-3.86-3.61-3.86s-1.27-2.93-.06-5.33c1.21-2.41 2.26-2.68 2.26-2.68s-1.06-.23-2.37-2.58C-.68 18.08.48 15.1.48 15.1s.97-3.04 3.45-4a6.1 6.1 0 0 1 3.03-.57c-.01 0-.65-.89-.07-3.53.57-2.63 3.39-4.05 3.39-4.05s2.73-1.61 5.21-.64a7.98 7.98 0 0 1 2.44 1.41"/><path fill="#293171" d="M8.81 34.46a5.38 5.38 0 0 1-4.23-.14 5.86 5.86 0 0 1-2.9-7.69 5.78 5.78 0 0 1 3.05-2.99 5.45 5.45 0 0 1-3.16-2.86 5.86 5.86 0 0 1 2.66-7.77 5.6 5.6 0 0 1 4.24-.31 5.74 5.74 0 0 1 6.36-8.47 5.67 5.67 0 0 1 3.43 2.52 5.56 5.56 0 0 1 2.23-3.65 5.71 5.71 0 0 1 8.02 1.3 5.86 5.86 0 0 1 1.03 4.18 5.4 5.4 0 0 1 4.02-1.35 5.83 5.83 0 1 1 3.47 10.09c1.4-.02 2.79.48 3.93 1.6a5.89 5.89 0 0 1 .12 8.23 5.7 5.7 0 0 1-3.87 1.75 5.81 5.81 0 0 1-3.12 10.17 5.62 5.62 0 0 1-4.08-1.18 5.71 5.71 0 0 1-11.22 2.19 5.45 5.45 0 0 1-3.32 2.66 5.73 5.73 0 0 1-7.09-4.01 5.8 5.8 0 0 1 .43-4.27"/><path fill="#fbd81f" d="M41.58 21.67c.25 1.18.36 1.53-.03 2.74a4.36 4.36 0 0 1-6.85 2.1c-1.34-1.11-2.55-2.58-3.96-2.52-.04.39-.11.78-.19 1.15.78.12 1.56.91 2.26 1.6l.28.25c-.38 0-.76.03-1.15.1-.97.17-1.58.03-1.96-.3-.2.41-.42.81-.66 1.18.96 2.77.05 9.41 5.13 8.79a4.04 4.04 0 0 0 3.23-2.06c-.55 1.06-.69 1.4-1.75 2.08-2.74 1.74-6.08-.14-6.59-2.86-.31-1.65-.31-3.5-1.32-4.41-.24.23-.5.45-.76.65.54.6.64 1.72.74 2.71l.05.39a6.53 6.53 0 0 0-.95-.68c-.85-.51-1.23-1.02-1.31-1.53-.46.22-.95.41-1.46.55-1.01 2.75-5.93 7.24-1.64 10.08 1.26.83 2.47.99 3.79.53-1.1.45-1.43.62-2.67.45-3.2-.45-4.57-4.07-3.23-6.48.82-1.49 2-2.93 1.78-4.29h-.28l-.5-.01c.03.81-.6 1.73-1.16 2.56l-.2.33a6.85 6.85 0 0 0-.3-1.14c-.33-.94-.3-1.58-.03-2.02a7.89 7.89 0 0 1-1.58-.59c-2.44 1.51-9.26 1.68-7.75 6.72a4.09 4.09 0 0 0 2.56 2.87c-1.13-.36-1.48-.44-2.33-1.39a4.49 4.49 0 0 1 1.64-7.07c1.63-.62 3.52-.95 4.14-2.25l-.44-.4c-.49.64-1.56.93-2.51 1.21l-.36.12c.19-.33.36-.69.49-1.07.35-.94.77-1.4 1.25-1.57a9.3 9.3 0 0 1-.83-1.44c-2.76-.23-8.32-4.9-10.41.07a4.18 4.18 0 0 0 .14 3.87c-.63-1.02-.85-1.31-.9-2.58a4.42 4.42 0 0 1 5.74-4.36c1.72.62 3.44 1.66 4.78.9a4.67 4.67 0 0 1-.08-.52c-.78.15-1.77-.31-2.66-.72l-.35-.14c.36-.13.71-.29 1.06-.5.84-.48 1.45-.57 1.92-.4.03-.5.11-.99.23-1.47-2.05-1.75-3.29-9.38-8.16-6.87a4.1 4.1 0 0 0-2.35 3.06c.16-1.2.18-1.57.95-2.57a4.36 4.36 0 0 1 7.15.4c.97 1.65 1.65 3.65 3.27 3.82.09-.17.19-.33.3-.49-.69-.4-1.15-1.39-1.57-2.27a2.21 2.21 0 0 0-.18-.34c.36.13.73.23 1.13.31.94.17 1.46.5 1.71.93.29-.3.61-.58.94-.84-.6-2.6 3.47-9.42-1.93-10.7a4 4 0 0 0-3.73.82c.88-.81 1.13-1.08 2.35-1.35 3.16-.68 5.67 2.24 5.23 4.97-.31 1.91-1.08 3.91.11 5.09.24-.09.48-.18.72-.25-.26-.75.01-1.8.24-2.74l.08-.38c.19.33.41.65.67.97.6.73.8 1.32.73 1.81.26-.02.52-.04.78-.04l.26.01c1.24-2.38 8.6-4.95 5.29-9.42a4.05 4.05 0 0 0-3.38-1.81c1.19-.04 1.56-.09 2.66.51 2.85 1.53 2.92 5.4.85 7.21-1.42 1.24-3.23 2.26-3.14 3.89.31.1.62.21.92.35.28-.75 1.15-1.38 1.93-1.95.11-.08.21-.15.3-.24-.06.38-.1.77-.1 1.17-.01.98-.23 1.55-.61 1.88.27.19.52.39.77.61 2.58-.85 9.58 1.76 9.88-3.71a4.14 4.14 0 0 0-1.45-3.59c.94.74 1.25.94 1.72 2.12a4.45 4.45 0 0 1-3.92 6.08c-1.8.02-3.76-.35-4.77.79.22.32.41.65.58 1 .69-.4 1.77-.31 2.73-.24l.38.01c-.29.25-.57.53-.82.83-.63.75-1.17 1.04-1.67 1.05.09.35.16.7.22 1.07 2.51 1.3 6.11 7.39 9.7 3.5a4.15 4.15 0 0 0 1.17-3.69"/><path fill="#fff" d="M22.12 16a7.1 7.1 0 0 1 7.11 7.08 7.1 7.1 0 0 1-14.23 0c0-3.9 3.2-7.08 7.12-7.08"/><path fill="#293171" d="M49 39.56l2.2-.5c.33.98 1.07 1.48 2.21 1.48 1.45 0 2.17-.5 2.17-1.5 0-.32-.11-.58-.34-.79a1.69 1.69 0 0 0-.79-.42l-1.89-.41c-2.09-.48-3.14-1.67-3.14-3.58 0-1.07.33-1.98.99-2.72.67-.75 1.66-1.12 2.97-1.12 2.18 0 3.52.94 4.01 2.81l-2.08.49c-.22-.91-.84-1.36-1.87-1.36-1.24 0-1.87.45-1.87 1.36 0 .63.51 1.07 1.51 1.3l2.23.54c1.72.42 2.59 1.57 2.59 3.47 0 1.33-.45 2.33-1.33 2.98-.89.66-1.95.99-3.17.99-1.06 0-2-.25-2.81-.75A3.55 3.55 0 0 1 49 39.56M66.99 30l-4.03 13.82a4.85 4.85 0 0 1-1.01 1.98c-.43.46-1.03.7-1.81.7-.31 0-.75-.03-1.34-.08v-2.18l1.12.03c.49 0 .85-.1 1.09-.29a2 2 0 0 0 .56-1c.14-.48.2-.76.2-.84 0-.05-.07-.3-.21-.75L58 30h2.45l2.51 8 2.16-8h1.87M77.57 42.39h-2.34v-7.58c0-.8-.15-1.41-.47-1.81a1.38 1.38 0 0 0-1.13-.61c-.62 0-1.15.32-1.6.94a4.75 4.75 0 0 0-.69 2.82v6.24H69V30.25h2.13v2.82c.75-2.05 1.79-3.07 3.14-3.07.91 0 1.69.34 2.33 1.01.64.67.97 1.85.97 3.54v7.84M86.1 34.87a3.3 3.3 0 0 0-.67-2.13 2.01 2.01 0 0 0-1.63-.83c-.64 0-1.18.26-1.61.78a3.82 3.82 0 0 0-.76 2.18zm2.26 3.94c-.27 1.09-.81 2-1.6 2.71a4.3 4.3 0 0 1-2.98 1.06 4.17 4.17 0 0 1-3.47-1.69c-.87-1.12-1.31-2.64-1.31-4.57a7.4 7.4 0 0 1 1.32-4.52 4.22 4.22 0 0 1 3.59-1.8c1.48 0 2.62.59 3.43 1.77a7.92 7.92 0 0 1 1.2 4.54v.32h-7.11a8 8 0 0 0 .2 1.97c.13.49.4.92.79 1.29.4.37.9.55 1.49.55 1.16 0 1.93-.65 2.34-1.96zM98.05 30l-3.51 12.15H92.6L89 30h2.44l2.42 8.24L96.22 30h1.83M106.16 36.23c0-1.24-.19-2.21-.57-2.92a1.85 1.85 0 0 0-1.73-1.07c-.81 0-1.41.37-1.8 1.1a6.45 6.45 0 0 0-.58 2.94c0 1.31.21 2.32.62 3.01.41.69.98 1.04 1.7 1.04 1.57 0 2.36-1.37 2.36-4.1zm-5.95 4.42A8.07 8.07 0 0 1 99 36.24c0-1.78.44-3.27 1.34-4.46a4.22 4.22 0 0 1 3.53-1.78c1.39 0 2.53.58 3.42 1.74a7.16 7.16 0 0 1 1.33 4.5c0 1.91-.46 3.44-1.38 4.6a4.33 4.33 0 0 1-3.53 1.74c-1.53 0-2.7-.64-3.5-1.93zM106.16 9.23c0-1.24-.19-2.21-.57-2.92a1.84 1.84 0 0 0-1.73-1.08c-.81 0-1.41.38-1.8 1.11a6.45 6.45 0 0 0-.58 2.94c0 1.31.21 2.32.62 3.01.41.7.98 1.04 1.7 1.04 1.57 0 2.36-1.37 2.36-4.1zm-5.95 4.42A8.07 8.07 0 0 1 99 9.24c0-1.78.44-3.27 1.34-4.46A4.2 4.2 0 0 1 103.87 3c1.39 0 2.53.58 3.42 1.73a7.2 7.2 0 0 1 1.33 4.51c0 1.91-.46 3.44-1.38 4.6a4.33 4.33 0 0 1-3.53 1.74c-1.53 0-2.7-.64-3.5-1.93zM53.91 13.44c-.59 0-1.09-.19-1.49-.55-.39-.37-.66-.8-.79-1.29a8 8 0 0 1-.2-1.97V7.87c.08-.95.33-1.67.76-2.19a2.03 2.03 0 0 1 3.24.06c.39.48.6 1.08.65 1.8l2.26-.32a6.98 6.98 0 0 0-1-2.45A3.92 3.92 0 0 0 53.91 3c-1.51 0-2.7.6-3.59 1.79A7.46 7.46 0 0 0 49 9.32c0 1.93.44 3.45 1.31 4.57a4.17 4.17 0 0 0 3.47 1.69c1.19 0 2.19-.36 2.98-1.06a5.32 5.32 0 0 0 1.6-2.7l-2.11-.34c-.41 1.31-1.18 1.96-2.34 1.96M82.45 9.99V8.3h3.73c-.11-2.23-.81-3.34-2.11-3.34-.94 0-1.52.64-1.73 1.93l-2.32-.43C80.52 4.15 81.87 3 84.05 3c1.54 0 2.71.55 3.48 1.65.79 1.1 1.18 2.64 1.18 4.63 0 4.2-1.51 6.3-4.52 6.3-2.37 0-3.77-1.21-4.19-3.63l2.3-.47c.15 1.37.74 2.06 1.75 2.06 1.39 0 2.11-1.19 2.15-3.55h-3.75M70 16.15V4h2.35v4.83h3.4V4h2.36v12.15h-2.36v-5.44h-3.4v5.44H70M62.36 14.91v1.24H60V4h2.36v5.27c0 1.29-.03 2.13-.08 2.52.32-.77.72-1.54 1.19-2.34l2.3-3.87V4h2.36v12.15h-2.36v-4.97c0-1.34.03-2.17.09-2.51-.33.86-.76 1.75-1.32 2.67l-2.18 3.57M98.09 6.04c0-.78-.21-1.49-.63-2.11-.42-.62-1.2-.93-2.34-.93H90v12.39h5.58c.9 0 1.61-.31 2.1-.94a3.8 3.8 0 0 0 .74-2.43c0-1.57-.78-2.61-2.35-3.11 1.34-.58 2.02-1.54 2.02-2.87zm-5.73-1.31h2.11c.49 0 .86.14 1.09.42.23.27.34.74.34 1.41 0 1.16-.48 1.74-1.43 1.74h-2.11zm0 8.72v-3.8h2.27c.99 0 1.48.64 1.48 1.91s-.49 1.89-1.48 1.89zM71 21h.62v1.33l.95-1.33h.61l-.77 1.03.85 1.95h-.66l-.59-1.5-.39.55v.95H71V21"/><path fill="#293171" d="M71.2 22.07l-.59.07c-.03-.26-.08-.44-.15-.52-.07-.09-.17-.13-.3-.13a.4.4 0 0 0-.39.25c-.09.17-.13.46-.13.89 0 .65.18.98.52.98.27 0 .42-.22.45-.65l.59.06c-.08.73-.44 1.1-1.08 1.1-.38 0-.66-.14-.84-.42a1.95 1.95 0 0 1-.28-1.13c0-.51.1-.9.3-1.17.2-.27.48-.4.86-.4.61 0 .96.36 1.04 1.07M66 23.98V21h.61v1.18h.89V21h.62v2.98h-.62v-1.33h-.89v1.33H66M63.62 23.67v.31H63V21h.62v1.29c0 .32-.01.52-.03.62.09-.19.19-.38.32-.57l.6-.95V21h.61v2.98h-.61v-1.22c0-.33 0-.53.02-.62-.08.22-.2.43-.34.66l-.57.87M60 23.98V21h.62v2.51h.81V21h.61v2.51h.38v1.16h-.41l-.07-.69H60"/><path fill="#293171" d="M58.61 23.67v.31H58V21h.61v1.29c0 .32 0 .52-.02.62.09-.19.19-.38.32-.57l.59-.95V21h.62v2.98h-.62v-1.22c0-.33.01-.53.03-.62-.08.22-.2.43-.35.66l-.57.87M48 23.98V21h.9l.62 2.49.6-2.49h.84v2.98h-.56v-2.43l-.64 2.43h-.63l-.63-2.43v2.43H48M52.79 23.45c-.11-.13-.16-.4-.16-.8h1.68a3.41 3.41 0 0 0-.12-.89 1.1 1.1 0 0 0-.36-.55 1 1 0 0 0-.64-.21c-.36 0-.65.14-.87.42A1.9 1.9 0 0 0 52 22.6c0 .5.11.87.32 1.13.22.26.5.39.86.39.58 0 .95-.32 1.1-.95l-.56-.07c-.07.37-.24.56-.52.56a.5.5 0 0 1-.41-.21zm.89-1.22h-1.04c.03-.52.21-.78.53-.78.34 0 .51.26.51.78zM57.27 23.51L56.74 21h-.92l-.6 2.51H55v1.16h.41l.07-.69h1.53l.07.69h.41v-1.16zm-1.09-2.03h.08l.4 2.03h-.9zM76.23 22.21c0-.3-.02-.52-.06-.67a.68.68 0 0 0-.3-.38 1.1 1.1 0 0 0-.64-.16c-.3 0-.55.07-.76.22a.9.9 0 0 0-.36.62l.59.07c.05-.31.21-.46.49-.46.16 0 .27.05.34.16.06.11.09.27.09.48v.12h-.13c-.55 0-.93.09-1.16.28a.96.96 0 0 0-.33.77c0 .26.08.47.23.63.15.15.35.23.6.23.37 0 .65-.19.84-.57 0 .22.01.39.04.5h.58a3.68 3.68 0 0 1-.06-.83zm-.78 1.21c-.12.16-.26.25-.41.25-.27 0-.4-.16-.4-.46 0-.42.27-.63.8-.63.04 0 .1 0 .18.02v.14c0 .29-.06.52-.17.68z"/><path fill="#293171" d="M77.05 21c-.37 0-.62.09-.74.26-.12.18-.18.4-.18.66 0 .36.15.6.44.74L76 23.98h.62l.45-1.19h.54v1.19h.61V21zm.14 1.37c-.19 0-.31-.04-.37-.12a.58.58 0 0 1-.09-.33c0-.18.04-.31.1-.39.07-.08.17-.11.32-.11h.46v.95zM104.61 23.67v.31H104V21h.61v1.29l-.01.62c.08-.19.18-.38.31-.57l.6-.95V21h.61v2.98h-.61v-1.22c0-.33.01-.53.02-.62-.08.22-.2.43-.34.66l-.58.87M96.68 23.98v-2.52H96V21h1.95v.46h-.66v2.52h-.61M80 23.98l.82-2.98h.71l.77 2.98h-.65l-.52-2.38-.58 2.38H80M108.05 21c-.37 0-.62.09-.74.26-.12.18-.18.4-.18.66 0 .36.15.6.44.74l-.57 1.32h.62l.45-1.19h.54v1.19h.61V21zm.14 1.37c-.18 0-.31-.04-.37-.12a.58.58 0 0 1-.09-.33c0-.18.03-.31.1-.39.07-.08.18-.11.32-.11h.46v.95zM102.3 21c-.33 0-.58.18-.74.54v-.49H101v3.98h.61v-1.32c.16.25.38.37.66.37.35 0 .61-.16.78-.46.17-.3.25-.67.25-1.11 0-.48-.09-.86-.27-1.12a.86.86 0 0 0-.73-.39zm-.47 2.5a.59.59 0 0 1-.18-.27 1.82 1.82 0 0 1-.04-.45v-.49c0-.27.05-.48.15-.63.1-.14.22-.21.38-.21.34 0 .51.35.51 1.06 0 .74-.18 1.11-.53 1.11a.4.4 0 0 1-.29-.12zM99.17 21c-.78 0-1.17.52-1.17 1.55 0 .54.1.93.31 1.18.21.26.49.39.85.39.78 0 1.18-.53 1.18-1.59 0-.52-.11-.9-.32-1.15-.2-.25-.49-.38-.85-.38zm0 2.65c-.19 0-.32-.09-.4-.27a2.14 2.14 0 0 1-.12-.83c0-.72.18-1.09.52-1.09.16 0 .28.08.38.23.09.16.14.45.14.86 0 .37-.04.65-.12.83-.09.18-.22.27-.4.27z"/><path fill="#293171" d="M96.23 22.21c0-.3-.02-.52-.06-.67a.68.68 0 0 0-.3-.38 1.13 1.13 0 0 0-.64-.16c-.3 0-.55.07-.75.22a.88.88 0 0 0-.37.62l.59.07c.05-.31.21-.46.48-.46.17 0 .28.05.35.16.06.11.09.27.09.48v.12h-.13c-.55 0-.93.09-1.16.28a.96.96 0 0 0-.33.77c0 .26.08.47.23.63.15.15.35.23.6.23.37 0 .65-.19.84-.57 0 .22.01.39.04.5h.57a4.7 4.7 0 0 1-.05-.83zm-.78 1.21c-.12.16-.26.25-.41.25-.26 0-.4-.16-.4-.46 0-.42.27-.63.8-.63.04 0 .1 0 .18.02v.14c0 .29-.06.52-.17.68zM92.3 21c-.34 0-.58.18-.74.54v-.49H91v3.98h.61v-1.32c.16.25.38.37.66.37.35 0 .61-.16.78-.46.17-.3.25-.67.25-1.11 0-.48-.09-.86-.27-1.12a.86.86 0 0 0-.73-.39zm-.47 2.5a.59.59 0 0 1-.18-.27 1.82 1.82 0 0 1-.04-.45v-.49c0-.27.05-.48.15-.63.1-.14.23-.21.38-.21.34 0 .51.35.51 1.06 0 .74-.18 1.11-.52 1.11a.4.4 0 0 1-.3-.12zM89.18 21c-.79 0-1.18.52-1.18 1.55 0 .54.1.93.31 1.18.2.26.49.39.85.39.78 0 1.17-.53 1.17-1.59 0-.52-.1-.9-.31-1.15a1.05 1.05 0 0 0-.84-.38zm-.01 2.65c-.19 0-.32-.09-.4-.27a2.14 2.14 0 0 1-.12-.83c0-.72.18-1.09.52-1.09.16 0 .28.08.38.23.09.16.14.45.14.86 0 .37-.04.65-.12.83-.09.18-.22.27-.4.27zM86.29 21.24c-.26 0-.49.1-.67.3.03-.2.07-.37.14-.5a.57.57 0 0 1 .21-.26c.09-.05.22-.1.41-.15.29-.08.48-.16.56-.27a.7.7 0 0 0 .14-.36h-.62c-.01.1-.04.17-.09.21a.95.95 0 0 1-.34.12c-.69.19-1.03.96-1.03 2.34 0 .43.05.75.15.99a1.01 1.01 0 0 0 1.03.7 1 1 0 0 0 .86-.42c.2-.27.31-.66.31-1.15 0-.48-.1-.86-.28-1.14a.89.89 0 0 0-.78-.41zm-.13 2.65c-.17 0-.3-.09-.4-.26-.1-.17-.15-.45-.15-.81 0-.75.18-1.12.54-1.12.37 0 .54.37.54 1.12 0 .36-.04.62-.14.8-.09.18-.22.27-.39.27zM84.28 24.05a4.7 4.7 0 0 1-.05-.83v-1.01c0-.3-.02-.52-.06-.67a.68.68 0 0 0-.3-.38 1.13 1.13 0 0 0-.64-.16c-.3 0-.55.07-.76.22a.9.9 0 0 0-.36.62l.59.07c.05-.31.21-.46.48-.46.17 0 .28.05.34.16.07.11.1.27.1.48v.12h-.13c-.55 0-.93.09-1.16.28a.96.96 0 0 0-.33.77c0 .26.08.47.23.63.15.15.35.23.6.23.37 0 .65-.19.84-.57 0 .22.01.39.03.5zm-.83-.63c-.12.16-.26.25-.41.25-.27 0-.4-.16-.4-.46 0-.42.27-.63.8-.63.04 0 .1 0 .18.02v.14c0 .29-.06.52-.17.68z"/></svg>