<svg xmlns="http://www.w3.org/2000/svg" width="142" height="49" viewBox="0 0 142 49"><path fill="#0065a3" d="M0 48.28h131.74V3H0z"/><path fill="#ffe831" d="M65.93 46.93c35.85 0 64.92-9.61 64.92-21.47C130.85 13.61 101.78 4 65.93 4 30.07 4 1 13.61 1 25.46c0 11.86 29.07 21.47 64.93 21.47"/><path fill="#0060a0" d="M30.4 34.15c.31 0 .43-.13.27-.31a5.47 5.47 0 0 1-.35-2.17V19.48c0-1.05.22-2.03.35-2.17.16-.19.04-.31-.27-.31H19.34c-.31 0-.43.12-.27.31.13.14.35 1.12.35 2.17v12.19c0 1.04-.22 2.03-.35 2.17-.16.18-.04.31.27.31H30.4M46.99 23.12l4.02-5.45c.16-.16.08-.38.08-.49 0-.1 0-.18.08-.18h10.92c.14 0 .08.1.02.18l-4.49 6.26c-.21.27-.17.52.04.78l6.17 9.74c.07.08.13.19-.02.19H50.48c-.09 0-.09-.09-.09-.19s.21-.98.05-1.14l-3.45-5.26v4.11c0 1.04.22 2.03.35 2.17.16.18.04.31-.27.31H36.34c-.31 0-.43-.13-.27-.31.13-.14.35-1.13.35-2.17V19.48c0-1.05-.22-2.03-.35-2.17-.16-.19-.04-.31.27-.31h10.73c.31 0 .43.12.27.31a5.43 5.43 0 0 0-.35 2.17v3.64M77.69 27.78c0-.07.03-.3.31-.3h4.25c.44 0 2.02-.06 2.15.08.14.13.31.05.31-.21v-4.11c0-.26-.17-.34-.31-.21-.13.14-1.71.09-2.15.09H78c-.28 0-.31-.24-.31-.31v-.83c0-.07.03-.31.31-.31h6.11c1.03 0 2 .22 2.15.34.18.17.3.04.3-.26V17H67.34c-.31 0-.43.15-.27.33.13.15.35 1.12.35 2.15v12.07c0 1.03-.22 2-.35 2.14-.16.19-.04.31.27.31h19.22v-5.05c0-.31-.12-.43-.3-.26-.15.12-1.12.34-2.16.34H78c-.28 0-.31-.24-.31-.31v-.94M101.43 27.44c-.14-.01-.16-.16-.12-.26l.99-2.35c.04-.07.07-.14.15-.14.09 0 .11.07.15.14l1 2.35c.04.1.02.25-.12.26zm9.81-8.89a1.55 1.55 0 0 1-.02-1.07c.16-.39.02-.48-.25-.48H96.02c-.27 0-.41.09-.25.48.16.39.07.82-.02 1.07L90 33.94h9.19c.22 0 .26-.11.2-.26-.07-.14-.07-.49.03-.74l.49-1.63c.16-.46.39-.52.78-.52h4.04c.39 0 .62.06.78.52l.49 1.63c.1.25.1.6.03.74-.06.15-.02.26.2.26h11.49s-6.39-15.14-6.48-15.39zM133 4.03A4.04 4.04 0 0 1 137.12 0a4.04 4.04 0 1 1 0 8.09A4.05 4.05 0 0 1 133 4.03zm4.12 3.38a3.27 3.27 0 0 0 3.28-3.38 3.27 3.27 0 0 0-3.28-3.35 3.26 3.26 0 0 0-3.3 3.35 3.27 3.27 0 0 0 3.3 3.38zm-.86-1.03h-.71V1.71h1.78c1.11 0 1.66.41 1.66 1.33 0 .83-.53 1.2-1.22 1.28l1.33 2.06h-.79l-1.23-2.03h-.82zM138.24 3c0-.58-.52-.69-1.01-.69h-.97v1.44h.85c.6 0 1.13-.04 1.13-.75z"/></svg>