<svg xmlns="http://www.w3.org/2000/svg" width="155" height="73" viewBox="0 0 155 73"><path fill="#a2afb2" d="M37.23 42H27a31.22 31.22 0 0 0 44.54 16.23V46.74A21.95 21.95 0 0 1 37.23 42M55.9 0A31.21 31.21 0 0 0 26 22.22h9.89a21.93 21.93 0 0 1 36.05-5.96l3.85-9.1A31.09 31.09 0 0 0 55.9 0"/><path fill="#eb8b2d" d="M75.89 43.67c-4.43 0-6.89-1.69-6.89-6.61V29h4.68v8.56c0 1.4.28 2.62 2.21 2.62 1.69 0 2.18-1.08 2.18-2.62V29h4.69v8.08c0 4.58-2.13 6.59-6.87 6.59M93.85 43.29a9.9 9.9 0 0 1-.23-2.5c0-1.86-.32-2.48-2.5-2.48h-1.43v4.98H85V29h6.75c4.77 0 6.35 1.29 6.35 4.07 0 1.65-.75 3.04-2.42 3.49 1.51.56 2.42.92 2.42 3.8 0 2.1.12 2.5.5 2.5v.43zm-4.16-10.95v2.83h1.84c1.45 0 2.23-.35 2.23-1.35 0-1.01-.8-1.48-1.89-1.48zM107.49 44.05c-4.49 0-7.49-2.78-7.49-7.65 0-4.48 3.04-7.4 7.49-7.4 5.1 0 7.5 3.67 7.5 7.44 0 4.87-3.28 7.61-7.5 7.61zm-2.8-7.61c0 1.83.55 4.11 2.8 4.11 2.02 0 2.81-1.74 2.81-4.11 0-1.94-.77-3.95-2.85-3.95-2.13 0-2.76 2.15-2.76 3.95z"/><path fill="#a2afb2" d="M76 61.29V47h11.65v3.33h-6.96v2.05h5.89v3.33h-5.89v2.25h7.24v3.33H76M102.15 61.29v-4.36l.06-2.23.24-2.58h-.04l-2.6 9.17h-3.26l-2.6-9.17h-.04l.2 2.11.1 2.22v4.84H90V47h5.66l2.52 8.91L100.7 47h5.66v14.29h-4.21M110 61.29V47h11.65v3.33h-6.96v2.05h5.89v3.33h-5.89v2.25h7.24v3.33H110M133.41 61.29l-5.1-7.78.18 3.26v4.52H124V47h4.39l5.1 7.8-.18-3.25V47h4.49v14.29h-4.39M149.89 50.75v10.54h-4.68V50.75H141V47h13.1v3.75h-4.21"/><path fill="#eb8b2d" d="M67.81 25.63L70.19 20H9.75L0 42.84h60.53l2.38-5.63h-52.8l1.27-2.98h52.79l2.38-5.62H13.79l1.27-2.98h52.75M76 65h3.64v1.51h-1.56v.43h1.4v1.25h-1.4v.5h1.56v1.5H76V65M82.93 65c1.49 0 1.65.92 1.65 1.32 0 .59-.48.96-.91 1.08v.02c.68.12 1.16.62 1.16 1.33 0 .52-.31 1.44-1.76 1.44H80V65zm-.66 1.97c.36 0 .46-.18.46-.36s-.1-.36-.46-.36h-.19v.72zm.58 1.58c0-.34-.32-.38-.52-.38h-.25v.78h.25c.19 0 .52-.03.52-.4zM86 65h2.71c1.65 0 2.07 1.05 2.07 1.79 0 .75-.42 1.79-2.07 1.79h-.63v1.61H86zm2.31 2.23c.41 0 .5-.23.5-.44 0-.42-.33-.44-.5-.44h-.23v.88zM91 67.75c0-1.4.97-2.75 3.01-2.75 2.03 0 3 1.35 3 2.75s-.97 2.76-3 2.76c-2.04 0-3.01-1.36-3.01-2.76zm3.01-1.09c-.53 0-1.03.37-1.03 1.09 0 .73.5 1.09 1.03 1.09.52 0 1.02-.36 1.02-1.09 0-.72-.5-1.09-1.02-1.09zM98 65h2.08v3.69h1.19V65h2.08v3.69h.62v2.54h-1.76v-1.04H98V65M104 65h3.64v1.51h-1.56v.43h1.4v1.25h-1.4v.5h1.56v1.5H104V65M108.73 65h2.28l.81 2.96.81-2.96h2.28l.73 5.19h-2.02l-.23-2.7-.79 2.7h-1.56l-.78-2.7-.24 2.7H108l.73-5.19M116 65h3.64v1.51h-1.56v.43h1.4v1.25h-1.4v.5h1.56v1.5H116V65M121 65h2.08v1.79h1.04V65h2.07v5.19h-2.07V68.3h-1.04v1.89H121V65"/><path fill="#eb8b2d" d="M127.09 66.51H126V65h4.26v1.51h-1.09v3.68h-2.08v-3.68M133 67h2.65v1.25h-.99v2.33H133V67M137.61 66.16v.38c.33-.45.84-.54 1.16-.54.78 0 1.64.62 1.64 1.94 0 1.04-.6 1.95-1.64 1.95a1.4 1.4 0 0 1-1.11-.46v1.76H136v-5.03zm.57 1.09c-.36 0-.62.28-.62.69 0 .43.26.71.62.71s.62-.28.62-.71c0-.41-.26-.69-.62-.69zM142.87 67l.76 1.56.55-1.56h1.6l-2.18 5.04h-1.67l.93-1.87L141 67h1.87M150.05 67v3.58h-1.66v-2.44h-.73v2.44H146V67h4.05"/></svg>