<svg xmlns="http://www.w3.org/2000/svg" width="97" height="24" viewBox="0 0 97 24"><path fill="#0a0b09" d="M53.38 9.23c2.24 0 2.22-2.95.15-2.95h-3.27l-.15 2.95h3.27zm-.44 8.09c2.32 0 2.47-3.26.24-3.26h-3.33l-.18 3.26zm11.77-5.27c5.54 2.1 4.62 11.38-4.28 11.38H32l.22-3.58 5.06-3.11.57-10.06c-.63-.29-4.84-2.32-4.84-2.32l.23-3.35L61.6 1c7.98 0 8.16 9.08 3.11 11.05zM18.08 14.79c-.05 1.14-.73 2.34-1.99 2.35h-1.26c-1.02-.01-1.45-.84-1.39-2.29l.43-7.54c.03-1.16.9-2.25 1.83-2.25h1.25c1.02 0 1.65.84 1.65 2.12zM10.11 0A9.73 9.73 0 0 0 .26 9.02l-.21 3.37c-.48 3.89 2.79 10.54 9.02 10.54h12.41c6.02.03 9.88-3.62 10.44-10.01l.22-3.31C32.39 6.15 30.55 0 22.63 0zM71.09 1l-.22 3.35 5.67 2.94-.51 8.79c-.54.28-5.86 3.2-5.86 3.2L70 22.83h24.43l.22-3.43s-4.71-3.11-5.23-3.44l.44-8.77 5.66-2.81.17-3.38h-24.6"/><path fill="#e37032" d="M94.5 2l-.09 1.67-5.74 2.81-.5 9.98 5.3 3.43-.12 1.85H71l.09-1.87 5.93-3.19.6-10.05-5.75-2.95.11-1.68H94.5M53.31 10.15c3.32 0 3.63-4.89.04-4.89h-4.13l-.24 4.89zm-.48 8.1c3.6-.01 3.78-5.2.24-5.2h-4.24l-.29 5.2zm10.44-5.75c5.99 1.6 4.67 9.84-2.95 9.84H33l.12-1.92 5.15-3.12.64-11.31-4.92-2.31L34.1 2h27.41c6.69 0 7.27 7.67 1.72 9.64l-1.34.49zM19.47 7.27l-.51 7.53c-.08 1.84-1.36 3.25-2.99 3.27h-1.28c-1.72-.02-2.47-1.49-2.4-3.31l.43-7.53c.05-1.7 1.38-3.18 2.85-3.18h1.24c1.38-.01 2.72 1.11 2.66 3.2zM9.98 1C5.2 1 1.69 4.24 1.26 9.05l-.22 3.36c-.43 4.04 2.68 9.43 7.89 9.43h12.42c7.41.04 9.01-5.66 9.31-9.05l.22-3.29C31.15 6.37 29.62 1 22.5 1z"/><path fill="#0a0b09" d="M93.93 14.48c0-.32-.22-.29-.46-.29h-.24v.72h.23c.25 0 .47.03.47-.32zm-.35.63h-.35v.98H93V14h.54c.35 0 .62.05.62.46v.15c0 .25-.11.4-.34.47l.43 1.01h-.26z"/><path fill="#0a0b09" d="M95.48 14.8h.12a1.8 1.8 0 1 1-3.6 0 1.8 1.8 0 0 1 3.6 0h-.23a1.57 1.57 0 1 0-3.14 0 1.57 1.57 0 1 0 3.14 0h.11"/></svg>