<svg xmlns="http://www.w3.org/2000/svg" width="70" height="66" viewBox="0 0 70 66"><path fill="#15a748" d="M0 65.53h69.51V0H0z"/><path fill="#15a748" d="M40.55 38.82a4.8 4.8 0 0 1-4.77 4.82A4.8 4.8 0 0 1 31 38.82 4.8 4.8 0 0 1 35.78 34a4.8 4.8 0 0 1 4.77 4.82"/><path fill="#fff" d="M55.23 35.68a4.56 4.56 0 0 1 1.83 3.67c0 2.37-.73 3.79-2.03 5.1-1.29 1.31-3.44 2.12-5.98 2.12H37.43V43.2a4.81 4.81 0 0 0 0-9.03V23.43h2.99v2.69h2.96v-5.14H28.16v5.14h2.96v-2.69h2.99v10.73A4.81 4.81 0 0 0 31 38.68a4.81 4.81 0 0 0 3.11 4.52v3.37H14v-9.06h2.39v-2.69H14v-8.86h11.09V18h21.45v7.96h1.49c2.23 0 4.37.53 5.75 1.55a5.87 5.87 0 0 1 2.43 4.98c0 .94-.21 2.33-.98 3.19zm-24.11-6.62h-5.43v5.76h-3.27v-5.76h-5.43v2.82h2.35v8.69h-2.35v2.9h5.43v-5.96h3.27v5.96h5.43v-2.9h-2.27v-8.69h2.27zm18.25 14.41c2.87 0 4.61-1.67 4.61-4.28 0-1.56-.77-2.82-2.18-3.43 1.09-.74 1.33-1.8 1.33-2.9 0-2.53-1.9-3.8-4.57-3.8h-8.14v2.82h2.35v8.69h-2.35v2.9zm-.57-2.9h-2.71v-3.06h2.71c.89 0 1.58.66 1.58 1.51 0 .94-.65 1.55-1.58 1.55zm-.4-5.75h-2.31v-2.94h2.35c.73 0 1.37.65 1.37 1.43 0 .9-.68 1.51-1.41 1.51zm-15.14 1.47c0 .5.4.91.89.91.5 0 .9-.41.9-.91a.9.9 0 0 0-.9-.91.9.9 0 0 0-.89.91z"/></svg>