<svg xmlns="http://www.w3.org/2000/svg" width="77" height="72" viewBox="0 0 77 72"><path fill="#006fac" d="M13.02 10.67c.05-.95-.06-2.29-.28-3.33a14.57 14.57 0 0 0-1.33-3.59c-.46.77-1.02 2.27-1.31 3.58a17.1 17.1 0 0 0-.3 3.36 14.15 14.15 0 0 1 .25-6.21 16.02 16.02 0 0 1 1.36-3.25c.12.19.95 1.65 1.38 3.2.42 1.55.51 3.03.49 3.89-.02.88-.13 1.8-.26 2.35zm-2.29 1.5a5.8 5.8 0 0 1 .7-2.79 6.1 6.1 0 0 1-.01 5.62 6.16 6.16 0 0 1-.69-2.83zM11.42 0c-.29.43-1.33 2.07-1.86 3.89a14.04 14.04 0 0 0 .48 9.19c.4.96 1 1.98 1.39 2.48.57-.73 1.88-2.94 2.28-5.82.23-1.61.24-3-.28-5.29S11.6.31 11.42 0z"/><path fill="#006fac" d="M12.48 16.51H8.52v2.65a2.4 2.4 0 0 1 3.39 0c.94.94.94 2.45 0 3.39l-.01.01-.02.02a4.77 4.77 0 1 1-3.36-8.18V8a8.51 8.51 0 1 0 6.21 14.33v-5.82h-2.25M16 16h3.25v1.06H17.7v7.46H16V16M19 24.52h1.67l.16-2.26h.8l.16 2.26h1.67L22.57 16h-2.68zm2.18-7.46h.1l.29 4.26h-.68zM25.7 21.54v1.6c0 .22.17.28.27.28.16 0 .27-.13.27-.28v-1.98c0-.26-.05-.56-.68-.56h-.7v-.93h.72c.49 0 .66-.12.66-.64v-1.69a.27.27 0 0 0-.27-.28c-.1 0-.27.06-.27.28v1.39H24v-1.21c0-.59.07-1.52 1.27-1.52h1.41c1.19 0 1.26.93 1.26 1.52v1.37c0 .92-.64 1.17-1.15 1.15v.09c1.14-.03 1.15.85 1.15 1.15V23c0 .59-.07 1.52-1.26 1.52h-1.41c-1.2 0-1.27-.93-1.27-1.52v-1.46h1.7M29 16h3.95v8.52h-1.71v-7.46h-.53l-.01 7.46H29V16M34 24.52h1.71v-2.9h.97c1.19 0 1.26-.92 1.26-1.52v-2.58c0-.6-.07-1.52-1.26-1.52H34zm1.71-7.46h.21c.19 0 .32.15.32.42v2.78c0 .27-.13.42-.32.42h-.21zM39 23c0 .59.07 1.52 1.26 1.52h1.42c1.19 0 1.26-.93 1.26-1.52v-5.48c0-.59-.07-1.52-1.26-1.52h-1.42c-1.19 0-1.26.93-1.26 1.52zm1.97.42a.26.26 0 0 1-.26-.28v-5.8c0-.22.17-.28.26-.28.16 0 .27.13.27.28v5.8c0 .15-.11.28-.27.28zM48.43 16h2.22v8.52h-1.71v-5.34h-.06L48 24.52h-1.36l-.87-5.34h-.07v5.34H44V16h2.21l1.11 5.99L48.43 16"/><path fill="#0099ce" d="M52 16h1.7v3.58h.54V16h1.71v8.53h-1.71v-4.01h-.54v4.01H52V16M57 16h3.46v.94h-1.75v2.64h1.6v.94h-1.6v3.07h1.82v.94H57V16M64.94 23.01v-5.52h.24c.19 0 .32.16.32.43v4.66c0 .27-.13.43-.32.43zm-1.7 0H63c-.32 0-.32-.34-.32-.43v-4.66c0-.09 0-.43.32-.43h.24zm0 .93v.59h1.7v-.59h.98c1.19 0 1.27-.92 1.27-1.52v-4.34c0-.6-.08-1.53-1.27-1.53h-.98V16h-1.7v.55h-.97c-1.2 0-1.27.93-1.27 1.53v4.34c0 .6.07 1.52 1.27 1.52zM69.02 16.94H68V16h3.75v.94h-1.02v7.59h-1.71v-7.59M73.92 23.59c.19 0 .32-.16.32-.43v-2.64c0-.27-.13-.43-.32-.43h-.21v3.5zM73.71 16v3.15h.97c1.19 0 1.27.93 1.27 1.53V23c0 .6-.08 1.53-1.27 1.53H72V16zM39.67 62.83C38.42 64.38 33 70.62 33 70.62h5.23c4.68 0 8.16-1.25 11.05-4.83A599.9 599.9 0 0 1 55.94 58h-5.22c-4.68 0-8.17 1.25-11.05 4.83M60.33 53.42c-.62.77-3.33 3.89-3.33 3.89h2.61c2.34 0 4.08-.62 5.53-2.41.62-.78 3.33-3.9 3.33-3.9h-2.61c-2.34 0-4.09.63-5.53 2.42"/><path fill="#006fac" d="M73.86 33c-2.34 0-4.08.62-5.53 2.41-.62.78-3.33 3.9-3.33 3.9h2.61c2.34 0 4.08-.62 5.53-2.42.62-.77 3.33-3.89 3.33-3.89h-2.61M58.57 40.04c-4.63 0-8.07 1.23-10.92 4.77-.66.82-4 4.7-4 4.7-1.21 1.33-2.67 1.81-4.57 1.81H35.2c-.9 0-1.77.03-2.62.09l.25-.3c1-1.25 4.16-4.92 6.27-7.36l.01.01a5.18 5.18 0 0 1 3.91-1.72c2.95-.01 5.16-.81 6.99-3.08.79-.98 4.24-4.96 4.24-4.96h-3.33c-2.97 0-5.19.8-7.03 3.08-.45.56-1.76 2.08-2.8 3.29-.75.77-1.64 1.04-2.79 1.04l-3.68.01c-5.82 0-10.15 1.55-13.74 6.01-1.55 1.92-8.29 9.68-8.29 9.68h6.73c-.59.58-1.15 1.21-1.71 1.9C15.63 61.48 7 71.41 7 71.41h8.33c7.44 0 12.99-1.99 17.59-7.69 1.27-1.59 8.02-9.4 8.02-9.4a5.38 5.38 0 0 1 4.07-1.79h1.21c4.63 0 8.08-1.24 10.93-4.79 1.23-1.53 6.6-7.7 6.6-7.7h-5.18M8.86 58c-2.34 0-4.08.63-5.53 2.42-.62.77-3.33 3.9-3.33 3.9h2.61c2.34 0 4.09-.63 5.53-2.42.62-.78 3.33-3.9 3.33-3.9H8.86"/><path fill="#0099ce" d="M18.86 41c-2.34 0-4.08.62-5.53 2.42-.62.78-3.33 3.89-3.33 3.89h2.61c2.34 0 4.08-.62 5.53-2.41.62-.78 3.33-3.9 3.33-3.9h-2.61"/><path fill="#006fac" d="M45.48 13.17c-.43 0-.8-.15-1.08-.44-.4-.4-.4-.86-.4-1.64 0-.79 0-1.25.4-1.65A1.5 1.5 0 0 1 45.48 9c.75 0 1.31.44 1.46 1.26h-.64c-.09-.41-.37-.7-.82-.7a.8.8 0 0 0-.61.25c-.2.22-.25.45-.25 1.28 0 .82.05 1.06.25 1.27a.8.8 0 0 0 .61.25c.45 0 .73-.29.83-.7h.63c-.14.82-.72 1.26-1.46 1.26M49 14.1V10h2.63v.56h-2.01v1.2h1.71v.55h-1.71v1.23h2.01v.56H49M54.75 10.56v3.54h-.62v-3.54H53V10h2.88v.56h-1.13M57.62 12.17v1.37h.9c.46 0 .73-.26.73-.68 0-.42-.27-.69-.73-.69zM57 14.1V10h.62v1.61h.95c.79 0 1.3.51 1.3 1.25 0 .73-.52 1.24-1.3 1.24zM63.77 10.93l-.65 1.82h1.28zm.79 2.35h-1.61l-.29.82H62l1.5-4.1h.5l1.5 4.1h-.65zM67 11.92h.62c.1.41.39.7.84.7.46 0 .77-.26.77-.67 0-.42-.25-.65-.72-.65h-.53v-.52h.54c.41 0 .65-.23.65-.63 0-.39-.28-.61-.71-.61-.45 0-.73.3-.83.71H67c.14-.81.72-1.25 1.47-1.25.76 0 1.33.43 1.33 1.11 0 .42-.21.73-.57.91.4.16.63.48.63.96 0 .72-.6 1.19-1.41 1.19-.74 0-1.31-.44-1.45-1.25M72.47 13.17c-.42 0-.79-.15-1.07-.44-.41-.4-.4-.86-.4-1.64 0-.79-.01-1.25.4-1.65.28-.28.65-.44 1.07-.44.76 0 1.32.44 1.47 1.26h-.64c-.09-.41-.37-.7-.83-.7a.8.8 0 0 0-.6.25c-.2.22-.25.45-.25 1.28 0 .82.05 1.06.25 1.27a.8.8 0 0 0 .6.25c.46 0 .74-.29.84-.7h.63a1.42 1.42 0 0 1-1.47 1.26"/></svg>