<svg xmlns="http://www.w3.org/2000/svg" width="127" height="20" viewBox="0 0 127 20"><path fill="#3a3b3a" d="M53.84 1.68h.62c.93 0 1.12.55 1.12 1.39 0 .87-.25 1.45-1.22 1.45h-.52zm0 5.77V5.14h.57c1.36 0 2.12-.74 2.12-2.1 0-1.34-.55-1.97-1.92-1.97h-1.69v6.38zm6.29-2.1h-1.78l.9-3.32zm1.55 2.1l-1.85-6.38h-1.02l-1.89 6.38h.84l.42-1.48h2.12l.42 1.48zm8.62 0V1.07h-.92v2.6h-2.05v-2.6h-.92v6.38h.92V4.29h2.05v3.16zm14.38-2.1h-1.79l.9-3.32zm1.55 2.1l-1.86-6.38h-1.01l-1.89 6.38h.84l.42-1.48h2.12l.42 1.48zm1.65-5.77h.61c.94 0 1.12.55 1.12 1.39 0 .87-.24 1.45-1.21 1.45h-.52zm0 5.77V5.14h.57c1.36 0 2.12-.74 2.12-2.1 0-1.34-.55-1.97-1.92-1.97h-1.69v6.38zm-36.34.02c.27 0 .43-.02.57-.04v-.62l-.31.01c-.31 0-.39-.07-.6-1.22-.19-1.09-.62-1.34-1.07-1.39.51-.08.87-.43 1.01-1.27.16-.97.21-1.27.58-1.27l.33.02v-.62a4.02 4.02 0 0 0-.58-.04c-.83 0-.98.69-1.15 1.68-.16.98-.41 1.22-1 1.22h-.4V1.07H48v6.38h.92V4.53h.43c.48 0 .77.18.96 1.29.16.99.27 1.65 1.23 1.65zm12.97.05c.36 0 .64-.05.99-.14v-.64c-.3.09-.53.14-.84.14-1.33 0-1.5-1.59-1.5-2.73 0-1.05.2-2.51 1.45-2.51.33 0 .58.04.89.14v-.65c-.32-.1-.61-.13-.97-.13-1.88 0-2.35 1.6-2.35 3.19 0 1.62.35 3.33 2.33 3.33zm9.1-5.88c1.18 0 1.22 1.7 1.22 2.53 0 .85-.01 2.71-1.22 2.71-1.16 0-1.21-1.9-1.21-2.71 0-.83.02-2.53 1.21-2.53zm0 5.88c1.91 0 2.2-1.83 2.2-3.35 0-1.5-.34-3.17-2.2-3.17-1.85 0-2.18 1.67-2.18 3.17 0 1.51.29 3.35 2.18 3.35zm4.71-4.94c-.1 1.4-.38 3.33-.68 4.23h2.12v-5.1h-1.38zm2.07 6.06l-.09-1.19h-3.05l-.07 1.19h-.73l-.11-1.83h.38c.31-.84.66-2.94.78-4.27l.1-.98.47-.49h2.61v5.74h.55l-.11 1.83z"/><path fill="#2a5d9b" d="M92.92 7.45V1.73h2.19v-.66H92v6.38zm5.59-2.1h-1.79l.91-3.32zm1.55 2.1l-1.85-6.38h-1.02l-1.9 6.38h.85l.42-1.48h2.12l.42 1.48zm.28-.08V6.7c.33.09.68.18 1.14.18.88 0 1.29-.43 1.29-1.24 0-1.11-.69-1.26-1.96-1.26v-.61h.18c.99 0 1.69-.13 1.69-1.11 0-.71-.43-1.02-1.07-1.02-.42 0-.79.06-1.22.17v-.64c.44-.13.87-.17 1.37-.17.99 0 1.86.39 1.86 1.58a1.5 1.5 0 0 1-1.12 1.48c.79.14 1.22.71 1.22 1.49 0 1.4-.83 1.97-2.16 1.97-.45 0-.89-.06-1.22-.15z"/><path fill="#969796" d="M123.2 0h.63c.1.42.34.76.79.76.41 0 .69-.32.79-.76h.64c-.19.69-.53 1.33-1.42 1.33-.88 0-1.24-.62-1.43-1.33zm-13.91 8.01V2.29h-1.6v-.66h4.12v.66h-1.6v5.72zm4.26-2.93h.52c.97 0 1.21-.58 1.21-1.45 0-.84-.18-1.39-1.12-1.39h-.61zm-.92 2.93V1.63h1.69c1.37 0 1.92.63 1.92 1.97 0 1.36-.77 2.1-2.12 2.1h-.57v2.31zm13.21 0V3.26l-2.63 4.75h-.68V1.63h.88v4.62l2.56-4.62h.76v6.38zM104 4.75c0-1.59.46-3.19 2.35-3.19.35 0 .64.03.97.13v.65c-.32-.1-.56-.14-.9-.14-1.25 0-1.45 1.46-1.45 2.51 0 1.14.18 2.73 1.5 2.73.31 0 .55-.05.85-.14v.64a3.7 3.7 0 0 1-.99.14c-1.98 0-2.33-1.71-2.33-3.33zm15.22-2.55c1.17 0 1.21 1.7 1.21 2.53 0 .85-.01 2.71-1.21 2.71-1.17 0-1.22-1.9-1.22-2.71 0-.83.02-2.53 1.22-2.53zm0 5.88c1.9 0 2.18-1.83 2.18-3.35 0-1.5-.33-3.17-2.18-3.17-1.86 0-2.19 1.67-2.19 3.17 0 1.51.29 3.35 2.19 3.35zM48.8 13.49h1.57l-.79-2.18zm1.96 1.08l-.28-.73H48.7l-.28.73H48l1.29-3.55h.57l1.32 3.55zm2.41 0l-1.05-1.2h-.15v1.2h-.37v-2.49h.37v1h.15l.89-1h.46l-1.06 1.15 1.25 1.34zm5.34 0v-2.02l-1.25 2.02h-.47v-2.48h.37v2.02l1.26-2.02h.46v2.48zm5.4 0v-1.18h-1.3v1.18h-.38v-2.49h.38v1.01h1.3v-1.01h.37v2.49zm8.06 0v-1.18h-1.31v1.18h-.37v-2.49h.37v1.01h1.31v-1.01h.37v2.49zm24.66 0v-2.18h-.85v-.3h2.09v.3h-.86v2.18zm2.03-1.45h.77c.14 0 .24-.01.32-.03l.15-.1a.65.65 0 0 0 .04-.24c0-.15-.04-.25-.1-.3-.07-.05-.21-.07-.42-.07h-.76zm0 1.15h.66c.21 0 .36-.01.44-.03l.17-.11c.03-.04.05-.14.05-.28a.52.52 0 0 0-.08-.31l-.19-.11a3.31 3.31 0 0 0-.4-.02h-.65zm-.37.3v-2.49h1.14c.33 0 .56.05.69.15.13.1.19.27.19.5 0 .14-.02.26-.08.36a.38.38 0 0 1-.23.2l.25.2c.07.11.1.22.1.34 0 .22-.04.39-.12.5a.54.54 0 0 1-.33.2 3.8 3.8 0 0 1-.58.04zm-17.43-3.18a.43.43 0 0 0-.3.17.74.74 0 0 0-.13.41c-.03.17-.03.45-.03.83 0 .36.01.63.03.82.02.18.06.32.13.41.07.09.17.15.3.18.15.03.35.04.63.04.3 0 .51-.02.62-.04a.5.5 0 0 0 .31-.18c.07-.1.11-.23.13-.4a8.18 8.18 0 0 0 0-1.66.86.86 0 0 0-.13-.4.45.45 0 0 0-.31-.18 3.03 3.03 0 0 0-.62-.04c-.3 0-.51.01-.63.04zm-.18 3.15a.85.85 0 0 1-.43-.24 1.2 1.2 0 0 1-.21-.52 12.38 12.38 0 0 1 0-1.97c.04-.22.11-.39.21-.51a.7.7 0 0 1 .43-.24c.2-.04.47-.06.81-.06.34 0 .61.02.8.06.19.04.33.12.43.24a1 1 0 0 1 .21.51c.03.22.05.55.05.99 0 .45-.02.77-.05.98a1 1 0 0 1-.21.52.81.81 0 0 1-.43.24c-.2.04-.47.06-.8.06-.34 0-.61-.02-.81-.06zM65.51 12.4a.36.36 0 0 0-.2.22c-.03.1-.05.26-.06.48h1.41c0-.15-.01-.27-.03-.38l-.1-.23-.21-.12a1.77 1.77 0 0 0-.37-.03c-.19 0-.34.02-.44.06zm-.09 2.14a.61.61 0 0 1-.32-.2.83.83 0 0 1-.17-.38c-.04-.18-.05-.4-.05-.64 0-.28.01-.48.05-.64a.78.78 0 0 1 .17-.38c.08-.1.19-.17.32-.2.12-.04.3-.06.53-.06.23 0 .41.02.54.06.13.03.23.09.32.18.08.09.14.21.17.36.03.13.05.32.05.56v.19h-1.78c0 .26.02.45.06.58.04.12.1.21.2.26.1.05.25.07.45.07s.36-.01.45-.03l.2-.11a.58.58 0 0 0 .05-.28v-.07h.37a.9.9 0 0 1-.12.52.52.52 0 0 1-.33.22 3.28 3.28 0 0 1-1.16-.01zm10.85-2.14a.35.35 0 0 0-.19.22c-.04.1-.06.26-.06.48h1.41c0-.15-.01-.27-.03-.38l-.1-.23-.22-.12c-.09-.02-.2-.03-.36-.03-.2 0-.35.02-.45.06zm-.08 2.14a.61.61 0 0 1-.32-.2.96.96 0 0 1-.18-.38 3.96 3.96 0 0 1 0-1.28.9.9 0 0 1 .18-.38c.08-.1.19-.17.32-.2.12-.04.3-.06.53-.06.23 0 .41.02.54.06.12.03.23.09.32.18.08.09.14.21.17.36.03.13.05.32.05.56v.19h-1.79c.01.26.03.45.07.58.03.12.1.21.19.26.11.05.26.07.46.07s.35-.01.45-.03l.2-.11a.58.58 0 0 0 .05-.28v-.07h.37a1 1 0 0 1-.11.52.6.6 0 0 1-.34.22 3.4 3.4 0 0 1-1.16-.01zm7.99-2.13c-.1.05-.16.14-.19.27a5.17 5.17 0 0 0 .07 1.45l.21.14c.09.02.22.03.4.03.15 0 .28-.01.39-.03l.21-.14a.84.84 0 0 0 .09-.28 5.64 5.64 0 0 0-.02-1.18c-.04-.13-.1-.22-.19-.26a1.32 1.32 0 0 0-.48-.06c-.24 0-.4.02-.49.06zm-.12 2.13a.64.64 0 0 1-.32-.21.77.77 0 0 1-.13-.37 3.48 3.48 0 0 1-.04-.63V12.2c0-.2.03-.37.09-.52a.57.57 0 0 1 .3-.29c.13-.07.32-.1.57-.1.22 0 .38-.01.47-.03.11-.01.18-.04.21-.07l.07-.17h.38c0 .15-.03.27-.08.35-.05.08-.15.13-.29.17-.14.03-.35.05-.64.05-.21 0-.37.01-.45.04l-.19.18c-.04.08-.05.23-.05.44a.49.49 0 0 1 .25-.17c.1-.03.25-.05.45-.05.32 0 .55.04.71.12a.6.6 0 0 1 .31.38c.05.18.08.45.08.8a3 3 0 0 1-.07.8.5.5 0 0 1-.29.36 1.8 1.8 0 0 1-.75.11c-.25 0-.45-.02-.59-.06zm7.28-2.14a.35.35 0 0 0-.19.22c-.04.1-.06.26-.06.48h1.41c0-.15-.01-.27-.03-.38l-.1-.23-.22-.12a1.73 1.73 0 0 0-.36-.03c-.2 0-.35.02-.45.06zm-.08 2.14a.68.68 0 0 1-.33-.2.94.94 0 0 1-.17-.38 3.96 3.96 0 0 1 0-1.28c.04-.15.09-.28.17-.38.09-.1.2-.17.33-.2.12-.04.3-.06.53-.06.23 0 .4.02.54.06.12.03.23.09.32.18.08.09.13.21.17.36.03.13.05.32.05.56v.19h-1.79c.01.26.03.45.07.58.03.12.1.21.19.26.11.05.26.07.46.07s.35-.01.45-.03l.19-.11c.04-.05.06-.14.06-.28v-.07h.37a.9.9 0 0 1-.12.52.54.54 0 0 1-.33.22 3.36 3.36 0 0 1-1.16-.01zm-31.1-2.16l-.19.12a.51.51 0 0 0-.1.28l-.02.54c0 .23.01.41.03.54a.6.6 0 0 0 .11.29l.21.12c.09.02.21.03.36.03.2 0 .34-.02.44-.06.11-.04.17-.13.21-.27.04-.13.06-.35.06-.65 0-.26 0-.44-.02-.55a.85.85 0 0 0-.09-.27l-.21-.12c-.07-.02-.2-.03-.39-.03s-.32.01-.4.03zm-.28 2.13a.63.63 0 0 1-.32-.37 2.67 2.67 0 0 1-.09-.82c0-.36.03-.64.09-.82.07-.18.18-.3.32-.37.15-.06.38-.09.68-.09.29 0 .51.03.67.09.15.07.26.19.33.37.06.18.1.45.1.82 0 .29-.02.51-.06.67a.67.67 0 0 1-.51.57 2.44 2.44 0 0 1-1.21-.05zm13.75-2.13l-.2.12a.6.6 0 0 0-.1.28l-.02.54c0 .23.01.41.03.54a.6.6 0 0 0 .11.29l.21.12c.09.02.21.03.36.03.2 0 .34-.02.44-.06.11-.04.17-.13.21-.27.04-.13.06-.35.06-.65 0-.26 0-.44-.02-.55a.85.85 0 0 0-.09-.27l-.21-.12c-.07-.02-.2-.03-.39-.03s-.32.01-.39.03zm-.29 2.13c-.15-.06-.25-.19-.32-.37a2.67 2.67 0 0 1-.09-.82c0-.36.03-.64.09-.82.07-.18.17-.3.32-.37.16-.06.38-.09.68-.09.29 0 .52.03.67.09a.6.6 0 0 1 .32.37c.07.18.1.45.1.82 0 .29-.01.51-.05.67a.65.65 0 0 1-.18.38.67.67 0 0 1-.33.19 2.44 2.44 0 0 1-1.21-.05zm20.55.04a.61.61 0 0 1-.32-.19.89.89 0 0 1-.16-.38 3.77 3.77 0 0 1 0-1.31.89.89 0 0 1 .16-.38c.09-.1.19-.16.32-.19.13-.04.31-.06.53-.06.23 0 .41.03.56.07.14.04.26.12.34.23.08.11.13.27.14.47l-.01.04v.04h-.36a1 1 0 0 0-.05-.33l-.19-.16a1.5 1.5 0 0 0-.43-.04c-.16 0-.29 0-.37.03l-.19.14a.49.49 0 0 0-.09.28c-.02.18-.02.34-.02.51l.02.5c.01.12.04.22.09.29l.2.14c.09.03.21.05.37.05.2 0 .34-.02.43-.06l.2-.18c.03-.07.05-.2.07-.39h.36c-.01.19-.03.35-.07.47a.84.84 0 0 1-.2.29.81.81 0 0 1-.31.14c-.14.02-.3.04-.48.04-.23 0-.41-.02-.54-.06zm7.69-2.17l-.2.12a.52.52 0 0 0-.09.28 5.48 5.48 0 0 0 .01 1.08.6.6 0 0 0 .11.29l.2.12a1.86 1.86 0 0 0 .81-.03c.1-.04.17-.13.21-.27a6.27 6.27 0 0 0 .04-1.2.66.66 0 0 0-.1-.27l-.2-.12a1.77 1.77 0 0 0-.4-.03c-.18 0-.32.01-.39.03zm-.28 2.13c-.15-.06-.25-.19-.32-.37a2.67 2.67 0 0 1-.09-.82c0-.36.03-.64.09-.82.07-.18.17-.3.32-.37.15-.06.37-.09.67-.09.3 0 .52.03.68.09a.6.6 0 0 1 .32.37c.07.18.1.45.1.82 0 .29-.01.51-.05.67a.8.8 0 0 1-.18.38.67.67 0 0 1-.33.19 2.6 2.6 0 0 1-1.21-.05zm-45.27.47v-.21l-.05-.16-.16-.04h-1.78v-2.49h.37v2.18h1.3v-2.18h.38v2.18h.25v.72zm33.95 0v-.21l-.04-.16-.16-.04h-3.43v-2.48h.38v2.17h1.28v-2.17h.38v2.17h1.27v-2.17h.38v2.17h.26v.72zm-21.31-2.62c.22 0 .37.04.46.1.1.07.16.16.18.29.02.11.03.3.03.56 0 .27-.01.47-.03.59a.43.43 0 0 1-.19.29c-.09.07-.24.1-.47.1a.78.78 0 0 1-.44-.1.48.48 0 0 1-.19-.3 2.75 2.75 0 0 1-.05-.58c0-.24.01-.43.04-.58a.4.4 0 0 1 .18-.28c.1-.06.26-.09.48-.09zm-.7 3.27v-1.35c.09.13.19.21.33.26.13.04.29.06.48.06.21 0 .38-.03.51-.09a.69.69 0 0 0 .29-.27c.06-.11.1-.24.12-.38a4.63 4.63 0 0 0-.04-1.26.71.71 0 0 0-.28-.41 1.22 1.22 0 0 0-.64-.14c-.19 0-.34.03-.47.08a.64.64 0 0 0-.32.27l.01-.31h-.36v3.54z"/><path fill="#005093" d="M17.39 3h7.98a4.4 4.4 0 0 1 4.39 4.39v7.98a4.4 4.4 0 0 1-4.39 4.39h-7.98A4.4 4.4 0 0 1 13 15.37V7.39A4.4 4.4 0 0 1 17.39 3"/><path fill="#005093" d="M40.36 0a4.35 4.35 0 0 1 4.34 4.34v6.2a4.35 4.35 0 0 1-4.34 4.34H11l-2.67-4.61h-2.7v4.61H0v-1.87V0h5.63v4.63h2.7L11.01 0h29.35"/><path fill="#fff" d="M31.88 9.44v1.18c0 .34.28.63.63.63h7.99c.35 0 .64-.29.64-.63V9.13a.64.64 0 0 0-.64-.63h-7.99A2.52 2.52 0 0 1 30 5.99V4.51A2.52 2.52 0 0 1 32.51 2h7.99a2.52 2.52 0 0 1 2.51 2.51v1.18h-1.87V4.51a.64.64 0 0 0-.64-.63h-7.99a.63.63 0 0 0-.63.63v1.48c0 .35.28.64.63.64h7.99a2.5 2.5 0 0 1 2.51 2.5v1.49a2.52 2.52 0 0 1-2.51 2.51h-7.99A2.52 2.52 0 0 1 30 10.62V9.44h1.88M2 2h1.88v4.63h5.29a.6.6 0 0 0 .54-.3L12.21 2h2.16l-3.21 5.56 3.21 5.57h-2.16L9.72 8.82a.62.62 0 0 0-.54-.32h-5.3v4.63H2V2M19 8.62h5.51V5H19z"/><path fill="#fff" d="M17.51 2h7.99a2.52 2.52 0 0 1 2.51 2.51v10.73a2.52 2.52 0 0 1-2.51 2.51h-7.99A2.52 2.52 0 0 1 15 15.24v-1.18h1.88v1.18c0 .35.28.63.63.63h7.99c.35 0 .63-.28.63-.63v-2.2c-.2.06-.41.09-.63.09h-7.99A2.52 2.52 0 0 1 15 10.62V4.51A2.52 2.52 0 0 1 17.51 2zm-.63 2.51v6.11c0 .34.28.63.63.63h7.99c.35 0 .63-.29.63-.63V4.51a.63.63 0 0 0-.63-.63h-7.99a.63.63 0 0 0-.63.63zM30.1.28H30l.19-.28h.13l-.22.28"/><path fill="#d8dde8" d="M29 .7c.19-.19.39-.43.58-.7h.09c-.22.27-.45.5-.67.7"/><path fill="#fff" d="M28.32.28h-.09L28 0h.13l.19.28"/><path fill="#d8dde8" d="M29.67.7C29.45.5 29.22.27 29 0h.1c.19.27.38.51.57.7"/><path fill="#fff" d="M30.06.28H30l.11-.28h.09l-.14.28"/><path fill="#d8dde8" d="M29 .7c.14-.17.29-.4.42-.7h.06c-.16.28-.32.52-.48.7"/><path fill="#fff" d="M29.21.28h-.06L29 0h.09l.12.28"/><path fill="#d8dde8" d="M29.47.7A4.97 4.97 0 0 1 29 0h.06c.13.3.28.53.41.7"/><path fill="#fff" d="M32.46.28H32l.18-.28h.57v.27l-.29.01"/><path fill="#d8dde8" d="M32 .07l.04-.07h.47c-.17.01-.34.04-.51.07"/><path fill="#fff" d="M26.82.28h-.39a5.9 5.9 0 0 0-.42-.02H26V0h.64l.18.28"/><path fill="#d8dde8" d="M26.43.06L26 0h.39a.2.2 0 0 0 .04.06"/></svg>