<svg xmlns="http://www.w3.org/2000/svg" width="163" height="32" viewBox="0 0 163 32"><path fill="#005a5b" d="M17 7.63h1.22L19.64 4 17 7.63M18.34 9h-1.75L15 11.19h3.17L18.34 9M18.53 12h-3.94L13 14.19h5.86L18.53 12M18.46 15h-6.87L10 17.18h9.37L18.46 15M20.27 18H9.59L8 20.18h13.97L20.27 18M23.36 21H7.59L6 23.19h20.88L23.36 21"/><path fill="#005a5b" d="M31.15 16.08a15.07 15.07 0 1 1-30.15 0 15.07 15.07 0 0 1 30.15 0zM16.08 2.17a13.91 13.91 0 1 0 0 27.83 13.91 13.91 0 0 0 0-27.83z"/><path fill="#005a5b" d="M31.54 15.77a15.77 15.77 0 1 1-31.55-.03 15.77 15.77 0 0 1 31.55.03zM15.77.3a15.47 15.47 0 1 0 .01 30.95A15.47 15.47 0 0 0 15.77.3zM36 23.26h126.12V23H36zM41.76 8.11c.09-.37.2-.71.29-1.06.51-.08 1.34-.17 2.19-.17 4.02 0 5.51 2.43 4.48 6.25-.94 3.65-3.11 6.44-7.1 6.44-2.45 0-2.88-.08-2.45-1.68zM36 20.37c1.57 0 3.14.08 5.39.08 4.28 0 8.47-2.73 9.78-7.69C52.2 8.79 50.37 6 46.64 6c-2.31 0-4.65.2-6.9.2.28.77-.03 1.91-.29 2.91l-2.19 8.35c-.26 1-.57 2.17-1.26 2.91zM56.7 19.49c-2.99 0-2.99-3.19-2.33-5.62.68-2.62 2.48-5.04 5.16-5.04 2.99 0 2.96 3.19 2.34 5.59-.69 2.65-2.48 5.07-5.17 5.07zM59.87 8c-3.85 0-6.67 2.91-7.59 6.39-.85 3.27.15 5.9 4.05 5.9 3.88 0 6.68-2.88 7.62-6.39.85-3.25-.17-5.9-4.08-5.9zM79.71 9c-.63.68-.82 1.68-1.08 2.59-.57 2.2-1.26 4.51-1.6 6.7a5.43 5.43 0 0 0-.06 2.4h-2.73c.57-.91.94-2.28 1.19-3.31l1.63-6.07c.03-.2.09-.43-.03-.43-.14 0-.23.14-.31.29l-6.73 9.69-1.17-8.98c-.06-.54-.06-1-.23-1s-.26.34-.34.63l-1.6 5.96c-.37 1.42-.68 2.62-.43 3.22H64l.23-.23c.97-.97 1.79-3.88 2.31-5.87l1.22-4.56c.12-.52.18-.77-.2-1.03h2.31c.2 0 .49.03.49.26l.65 8.01c.03.25 0 .57.15.57.17 0 .25-.17.45-.43l5.22-7.64c.29-.4.52-.77.97-.77h1.91M84.69 19.49c-2.97 0-2.97-3.19-2.34-5.62.68-2.62 2.48-5.04 5.16-5.04 2.99 0 2.99 3.19 2.37 5.59-.72 2.65-2.51 5.07-5.19 5.07zM87.88 8c-3.88 0-6.67 2.91-7.58 6.39-.89 3.27.14 5.9 4.05 5.9 3.84 0 6.67-2.88 7.58-6.39.86-3.25-.14-5.9-4.05-5.9zM96.76 9.74c.06-.29.17-.57.23-.86a10.9 10.9 0 0 1 1.83-.14c3.3 0 4.53 2 3.7 5.16-.8 3.02-2.56 5.33-5.87 5.33-2.03 0-2.37-.08-2.03-1.4zM92 19.89c1.31 0 2.57.08 4.45.08a8.3 8.3 0 0 0 8.07-6.38c.88-3.28-.63-5.59-3.74-5.59-1.91 0-3.82.2-5.7.2.26.6 0 1.57-.23 2.39l-1.82 6.9a5.5 5.5 0 0 1-1.03 2.4zM106.34 19.95h2.14a5.9 5.9 0 0 0 3.48-1.03l-.77 1.68c-.52.03-1.15.09-1.8.09H104c.57-.63.88-1.57 1.11-2.4l1.8-6.9c.23-.82.48-1.79.23-2.39h6.5l-.32 1.4c-.48-.54-1.48-.69-2.56-.69h-1.74l-1.14 4.39c1.42 0 2.93 0 4.39-.11-.91 1.03-3.02 1.03-4.16 1.03h-.49l-1.28 4.93M118.76 9.74l.26-.86c.43-.08 1.11-.14 1.8-.14 3.33 0 4.53 2 3.7 5.16-.79 3.02-2.56 5.33-5.87 5.33-2.03 0-2.37-.08-2.03-1.4zM114 19.89c1.31 0 2.6.08 4.48.08a8.35 8.35 0 0 0 8.07-6.38c.85-3.28-.66-5.59-3.77-5.59-1.88 0-3.82.2-5.7.2.26.6 0 1.57-.23 2.39l-1.79 6.9c-.23.83-.49 1.77-1.06 2.4zM131.7 19.49c-2.99 0-2.99-3.19-2.36-5.62.71-2.62 2.51-5.04 5.19-5.04 2.99 0 2.96 3.19 2.34 5.59-.69 2.65-2.48 5.07-5.17 5.07zM134.87 8c-3.85 0-6.67 2.91-7.59 6.39-.85 3.27.15 5.9 4.05 5.9 3.88 0 6.68-2.88 7.62-6.39.85-3.25-.17-5.9-4.08-5.9zM141.97 20.77l-.03-.94c-.11-2.93-.23-7.44-.8-10.23L141 9h1.65c.37 0 .35.4.37.68.23 2.85.55 5.68.58 8.56 0 .37.05.54.17.54.11 0 .28-.29.45-.57.97-1.6 4.62-6.84 5.08-8.55.06-.26.08-.46.06-.66h2.31l-.49.57a105.2 105.2 0 0 0-7.16 10.21l-.62.99h-1.43M154.7 19.49c-2.99 0-2.99-3.19-2.34-5.62.69-2.62 2.48-5.04 5.16-5.04 3 0 3 3.19 2.34 5.59-.68 2.65-2.48 5.07-5.16 5.07zM157.89 8c-3.87 0-6.7 2.91-7.61 6.39-.85 3.27.17 5.9 4.08 5.9 3.85 0 6.67-2.88 7.58-6.39.86-3.25-.17-5.9-4.05-5.9zM39.33 26.84c-.01-.06 0-.21-.08-.21s-.18.17-.21.21l-1.3 2h1.74zm.21 2.36H37.5a8.78 8.78 0 0 0-1.33 2.17c-.03.11-.04.22-.05.34H35l.26-.26c.66-.64 3.43-4.48 3.65-5.21l.07-.24h1.06c.12 1.78.21 3.72.69 5.38l.1.33h-.92zM43.06 27.94c.06-.23.11-.48.11-.7 0-.09 0-.17-.03-.24h.96a2.2 2.2 0 0 0-.4.94l-.67 2.69c-.06.22-.11.47-.11.68 0 .09.01.18.04.26H42c.21-.25.31-.62.39-.94l.67-2.69M44.46 29.13c.1.02.21.03.32.03.76 0 1.38-.48 1.38-1.29 0-.44-.36-.58-.89-.58h-.34l-.1.34zm2.15 2.51h-.5c-.31 0-.41-.16-.51-.39L45.04 30c-.19-.43-.22-.59-.65-.59l-.32 1.29c-.06.22-.12.47-.12.68 0 .1.02.18.05.26h-1c.29-.33.36-.67.44-.98l.66-2.65c.05-.23.11-.48.11-.69 0-.1-.01-.18-.04-.25.61 0 1.28-.07 1.68-.07.61 0 .95.3.95.84 0 .79-.81 1.29-1.44 1.44l.81 1.69c.14.28.21.4.44.67zM48.03 30.63c-.05.21-.1.44-.1.65 0 .1.02.2.05.29H47c.16-.18.27-.45.35-.77l.71-2.86c.06-.24.13-.5.13-.71a.53.53 0 0 0-.04-.23h2.22c.18 0 .33 0 .31.06l-.14.56h-.03c-.12-.33-.57-.33-.9-.33h-.74l-.46 1.84c.55 0 1.13 0 1.69-.05-.35.4-1.16.4-1.6.4h-.18l-.29 1.15M52.06 27.94c.06-.23.11-.48.11-.7 0-.09 0-.17-.03-.24h.96a2.2 2.2 0 0 0-.4.94l-.67 2.69c-.06.22-.11.47-.11.68 0 .09.01.18.04.26H51c.21-.25.31-.62.39-.94l.67-2.69M52.89 31.28h.97c.44 0 .78-.11 1.2-.41l-.22.66c-.2.02-.51.04-.77.04H52c.22-.25.33-.62.41-.94l.67-2.69c.06-.23.12-.48.12-.7a.6.6 0 0 0-.04-.24h2.5l-.11.55c-.2-.21-.5-.26-.92-.26h-.74L53.46 29c.55 0 1.13 0 1.7-.05-.35.41-1.16.41-1.61.41h-.18l-.48 1.92M57.15 27.94c.05-.23.11-.48.11-.7a.6.6 0 0 0-.04-.24h.96c-.22.24-.31.62-.39.94l-.84 3.34h.69c.4 0 .72-.12 1.09-.41l-.24.68a6.2 6.2 0 0 1-.44.02H56c.28-.28.56-1.29.64-1.63l.51-2M60 30.84c-.03.11-.05.19-.05.26 0 .26.22.28.83.28 1.44 0 2.34-1.29 2.34-2.68 0-.84-.52-1.41-1.55-1.41a6 6 0 0 0-.7.05zm.18-3.52c0-.1-.01-.18-.04-.25.72 0 1.32-.07 2.05-.07.98 0 1.62.74 1.62 1.74 0 1.8-1.5 2.93-3.02 2.93-.72 0-1.29-.03-1.79-.03.22-.24.27-.49.35-.81l.71-2.82c.06-.23.12-.48.12-.69zM66.29 30.54c-.07.25-.13.55-.13.8 0 .13.02.26.06.37H65c.2-.23.34-.57.44-.97l.88-3.57c.08-.29.16-.62.16-.88 0-.11 0-.21-.04-.29h2.77c.23 0 .41 0 .39.08l-.17.7h-.05c-.15-.41-.7-.42-1.12-.42h-.93l-.57 2.3c.69 0 1.41 0 2.11-.07-.44.51-1.45.51-2 .51h-.22l-.36 1.44M71.47 27.67c-.01-.05 0-.17-.07-.17-.06 0-.14.14-.16.17l-1.05 1.61h1.4zm.17 1.89H70a7.07 7.07 0 0 0-1.06 1.74c-.02.09-.04.18-.04.27H68l.21-.2c.53-.52 2.75-3.6 2.92-4.18l.06-.19h.84c.1 1.42.17 2.98.56 4.3l.08.27h-.74zM76.86 27.96h-.02c-.09-.31-.25-.64-.99-.64-1.33 0-2.15 1.39-2.15 2.62 0 .77.42 1.34 1.34 1.34.62 0 1.1-.29 1.37-.52l-.02.04c-.07.32-.61 1-1.73 1-1.05 0-1.66-.88-1.66-1.84A2.94 2.94 0 0 1 75.94 27c.41 0 .7.06 1.18.06l-.26.9M78.06 27.94c.06-.23.11-.48.11-.7 0-.09 0-.17-.03-.24h.96a2.2 2.2 0 0 0-.4.94l-.67 2.69c-.06.22-.11.47-.11.68 0 .09.01.18.04.26H77c.22-.25.31-.62.39-.94l.67-2.69M80.15 27.94c.05-.23.11-.48.11-.7a.6.6 0 0 0-.04-.24h.96c-.22.24-.31.62-.39.94l-.84 3.34h.69c.4 0 .72-.12 1.09-.41l-.24.68a6.2 6.2 0 0 1-.44.02H79c.28-.28.56-1.29.64-1.63l.51-2M83.06 27.94c.06-.23.11-.48.11-.7 0-.09 0-.17-.03-.24h.96a2.2 2.2 0 0 0-.4.94l-.67 2.69c-.06.22-.11.47-.11.68 0 .09.01.18.04.26H82c.22-.25.31-.62.39-.94l.67-2.69M85.37 31.57c.21-.25.3-.62.38-.94l.82-3.27h-1.03a.95.95 0 0 0-.54.15l.27-.51h3.6c-.2.31-.65.36-.94.36h-.72l-.81 3.27c-.06.22-.12.47-.12.68 0 .09.02.18.04.26h-.95M89.06 27.94c.06-.23.11-.48.11-.7 0-.09 0-.17-.03-.24h.96a2.2 2.2 0 0 0-.4.94l-.67 2.69c-.06.22-.11.47-.11.68 0 .09.01.18.04.26H88c.22-.25.31-.62.39-.94l.67-2.69M90.89 31.28h.96c.45 0 .79-.11 1.21-.41l-.22.66c-.2.02-.51.04-.77.04H90c.22-.25.33-.62.41-.94l.67-2.69c.06-.23.12-.48.12-.7a.6.6 0 0 0-.04-.24h2.5l-.11.55c-.2-.21-.5-.26-.92-.26h-.74L91.46 29c.55 0 1.13 0 1.7-.05-.35.41-1.16.41-1.61.41h-.18l-.48 1.92M93.19 30.79c.14.3.34.72 1.09.72.58 0 1.21-.41 1.21-1.12 0-.76-1.49-1.1-1.49-2.07 0-.88.98-1.32 1.76-1.32.37 0 .72.04 1.09.04l-.17.67c-.23-.34-.41-.42-.89-.42-.51 0-1.09.31-1.09.97 0 .72 1.49 1.01 1.49 2.01 0 .97-1.16 1.53-1.91 1.53-.51 0-.98-.12-1.28-.25l.19-.76"/></svg>