<svg xmlns="http://www.w3.org/2000/svg" width="102" height="62" viewBox="0 0 102 62"><path d="M82.7 16.96c.59-2.79 1.85-4.93 5.14-4.81a4.23 4.23 0 0 1 4.07 5.3l-1.15 5.69c-.09.79.55.96 1.07 1.01h4.95c3.39.08 4.57 2.54 4.46 4.72-.13 2.29-2.03 4.47-5.76 4.16h-5.09c-.83.02-1.59.57-1.91 1.27l-1.03 5.19c-.54 2.53-.89 6-5.25 5.87-3.5-.1-4.79-3.31-3.78-6.37l.89-4.87c-.03-.65-.35-1.02-.95-1.09H73.5a4.32 4.32 0 0 1-4.06-4.31c.07-2.64 1.98-4.78 5.38-4.57h5.23c.77-.21 1.29-.49 1.52-1.36zM8.47 19.88c-5.62 3.4-7.64 8.36-7.46 12.55.29 6.52 6.01 12.25 13.36 12.21l16.05-.03c2.02-.03 8.32-.84 11.05-8.46.98-2.48 1.96-6 3.02-10.19.72-2.06 2.6-4.21 5.12-4.31h2.7c3.07.46 4 2.52 3.33 5.92l-3.46 16.1c-.18.62.15.97.72 1.02l7.01-.01c.61 0 1.04-.23 1.13-.94l3.41-16.85c2.38-17.22-23.69-17.58-27.92-3.81L33.4 33.44v.01c-.54 1.67-2.61 2.82-5.21 2.82l-13.32.02c-2.76-.24-4.27-2.87-4.14-5.45.14-2.58 2.02-5.88 6.01-5.95h11.65c.68.04 1.05-.24 1.12-.8l1.01-6.14c.09-.53-.13-.89-.79-.95l-10.26-.02c-1.92-.41-3.45-1.13-3.83-3.9.01-2.96 1.89-4.08 4.39-4.24l13.27-.09c.5-.04.87-.24.97-.77l1.12-6.37c.07-.41-.13-.64-.59-.61H22.34C10.13.77 2.3 10.18 8.47 19.88z"/></svg>