<svg xmlns="http://www.w3.org/2000/svg" width="96" height="34" viewBox="0 0 96 34"><path fill="#db342a" d="M48.72 18.48V17.4h-1.29v1.08H47V16h.43v1.01h1.29V16h.44v2.48h-.44"/><path fill="#db342a" d="M49.22 18.54h-.49v-1.08H47.5v1.08H47V16h.5v1.01h1.23V16h.49zm-.06-.06v-2.42h-.37v1.02h-1.35v-1.02h-.38v2.42h.38V17.4h1.35v1.08zM53 18.48l-.19-.48h-1.13l-.19.48H51l.97-2.48h.55l.97 2.48zm-1.2-.86h.89l-.45-1.18z"/><path fill="#db342a" d="M53.58 18.54h-.56l-.18-.48h-1.1l-.18.48H51L52 16h.58l.01.02zm-.52-.06h.43l-.95-2.42h-.5l-.95 2.42h.43l.18-.48h1.18zm-.28-.8h-.98l.49-1.3zm-.09-.06l-.4-1.06-.4 1.06zM56.96 18.48H55V16h.44v2.09h1.29V16h.43v2.09h.23v.84h-.43v-.45"/><path fill="#db342a" d="M57.45 19h-.49v-.46H55V16h.5v2.1h1.22V16h.5v2.1h.23zm-.06-.06v-.78h-.23v-2.1h-.37v2.1h-1.36v-2.1h-.37v2.42h1.96v.46zM58 18.48V16h.44v1.72L59.7 16h.45v2.48h-.44v-1.77l-1.29 1.77H58"/><path fill="#db342a" d="M60.21 18.54h-.5v-1.71l-1.24 1.71H58V16h.5v1.66L59.72 16h.49zm-.06-.06v-2.42h-.4l-1.31 1.78v-1.78h-.38v2.42h.38l1.34-1.83v1.83zM63.27 16c.74 0 1.27.54 1.27 1.28s-.53 1.28-1.27 1.28c-.75 0-1.27-.54-1.27-1.28S62.52 16 63.27 16zm0 .38c-.5 0-.82.39-.82.9s.32.89.82.89c.5 0 .82-.38.82-.89s-.32-.9-.82-.9z"/><path fill="#db342a" d="M62 17.31c0-.76.55-1.31 1.3-1.31s1.3.55 1.3 1.31-.55 1.31-1.3 1.31-1.3-.55-1.3-1.31zm.06 0c0 .73.52 1.25 1.24 1.25a1.2 1.2 0 0 0 1.23-1.25 1.2 1.2 0 0 0-1.23-1.25 1.2 1.2 0 0 0-1.24 1.25zm.39 0c0-.54.35-.92.85-.92s.85.38.85.92c0 .55-.35.93-.85.93s-.85-.38-.85-.93zm.06 0c0 .51.32.87.79.87.46 0 .79-.36.79-.87s-.33-.86-.79-.86c-.47 0-.79.35-.79.86zM67.73 18.48V17.4h-1.29v1.08H66V16h.44v1.01h1.29V16h.43v2.48h-.43"/><path fill="#db342a" d="M68.22 18.54h-.49v-1.08H66.5v1.08H66V16h.5v1.01h1.23V16h.49zm-.06-.06v-2.42h-.37v1.02h-1.35v-1.02h-.38v2.42h.38V17.4h1.35v1.08zM72 18.48l-.19-.48h-1.13l-.19.48H70l.97-2.48h.55l.97 2.48zm-1.2-.86h.89l-.44-1.18z"/><path fill="#db342a" d="M72.58 18.54h-.56l-.18-.48h-1.1l-.18.48H70L71 16h.58l.01.02zm-.52-.06h.43l-.95-2.42h-.5l-.95 2.42h.43l.18-.48h1.18zm-.28-.8h-.98l.49-1.3zm-.09-.06l-.4-1.06-.4 1.06zM73 18.13c.27 0 .4-.12.49-.86l.15-1.27h1.68v2.48h-.44v-2.1h-.85l-.11.92c-.12 1.05-.44 1.22-.92 1.22v-.39"/><path fill="#db342a" d="M73 18.58v-.44h.03c.25 0 .38-.13.46-.84l.15-1.3h1.74v2.54h-.49v-2.1h-.81l-.1.9c-.11 1.04-.43 1.24-.95 1.24zm.06-.06c.48-.01.75-.21.86-1.19l.11-.95h.92v2.1h.37v-2.42H73.7l-.15 1.25c-.08.73-.22.88-.49.89zM77.44 16v.93h.65c.52 0 .81.35.81.77 0 .42-.29.78-.81.78H77V16zm0 2.09h.59c.25 0 .42-.15.42-.39 0-.24-.17-.39-.42-.39h-.59z"/><path fill="#db342a" d="M77 18.54V16h.5v.93h.62c.49 0 .84.33.84.8 0 .48-.35.81-.84.81zm.06-.06h1.06c.54 0 .78-.38.78-.75 0-.44-.32-.74-.78-.74h-.69v-.93h-.37zm.37-.32v-.85h.63c.27 0 .45.17.45.42 0 .25-.18.43-.45.43zm.63-.06c.24 0 .39-.15.39-.37 0-.21-.15-.36-.39-.36h-.56v.73zM81.73 18.48V17.4h-1.29v1.08H80V16h.44v1.01h1.29V16h.43v2.48h-.43"/><path fill="#db342a" d="M82.22 18.54h-.5v-1.08H80.5v1.08H80V16h.5v1.01h1.22V16h.5zm-.06-.06v-2.42h-.37v1.02h-1.36v-1.02h-.37v2.42h.37V17.4h1.36v1.08zM86 18.48l-.19-.48h-1.13l-.19.48H84l.97-2.48h.55l.97 2.48zm-1.2-.86h.89l-.44-1.18z"/><path fill="#db342a" d="M86.58 18.54h-.56l-.18-.48h-1.1l-.18.48H84L85 16h.58l.01.02zm-.52-.06h.43l-.95-2.42h-.5l-.95 2.42h.43l.18-.48h1.18zm-.28-.8h-.98l.49-1.3zm-.09-.06l-.4-1.06-.4 1.06zM88 18.48l.61-.98c-.3-.04-.59-.28-.59-.72 0-.46.32-.78.81-.78h1.09v2.48h-.44v-.93h-.43l-.55.93zm1.48-2.1h-.59c-.25 0-.42.16-.42.4 0 .23.17.39.42.39h.59z"/><path fill="#db342a" d="M90 18.54h-.49v-.93h-.38l-.56.93H88l.61-.98a.73.73 0 0 1-.57-.75c0-.48.34-.81.84-.81H90zm-.43-.06h.37v-2.42h-1.06c-.46 0-.77.3-.77.75 0 .44.3.65.56.69l.04.01-.6.97h.43l.55-.93h.48zm0-1.25h-.63c-.26 0-.45-.17-.45-.42 0-.25.19-.43.45-.43h.63zm-1.02-.42c0 .21.16.36.39.36h.57v-.72h-.57c-.23 0-.39.14-.39.36zM47 22.28c0-.76.57-1.28 1.3-1.28.5 0 .81.26 1 .56l-.37.19a.73.73 0 0 0-.63-.36c-.49 0-.85.37-.85.89s.36.9.85.9c.27 0 .51-.15.63-.36l.37.19c-.19.3-.5.56-1 .56-.73 0-1.3-.52-1.3-1.29"/><path fill="#db342a" d="M47 22.31c0-.76.56-1.31 1.33-1.31.44 0 .79.2 1.02.57l.02.03-.43.22-.01-.03a.7.7 0 0 0-.6-.34c-.48 0-.82.36-.82.86s.34.87.82.87c.24 0 .48-.14.6-.35l.01-.02.43.21-.02.03c-.24.38-.58.58-1.02.58-.77 0-1.33-.56-1.33-1.32zm.06 0c0 .73.54 1.25 1.27 1.25.4 0 .73-.17.95-.51l-.31-.16a.78.78 0 0 1-.64.35c-.51 0-.88-.39-.88-.93 0-.53.37-.92.88-.92.25 0 .5.13.64.35l.31-.16a1.06 1.06 0 0 0-.95-.52c-.73 0-1.27.53-1.27 1.25zM51 23.48V21h.44v1.72L52.7 21h.45v2.48h-.44v-1.77l-1.29 1.77H51"/><path fill="#db342a" d="M53.21 23.54h-.5v-1.71l-1.24 1.71H51V21h.5v1.66L52.72 21h.49zm-.06-.06v-2.42h-.4l-1.31 1.79v-1.79h-.38v2.42h.38l1.33-1.83v1.83zM55 22.28c0-.76.57-1.28 1.3-1.28.5 0 .81.26 1 .56l-.37.19a.73.73 0 0 0-.63-.36c-.49 0-.85.37-.85.89s.36.9.85.9c.27 0 .51-.15.63-.36l.37.19c-.19.3-.5.56-1 .56-.73 0-1.3-.52-1.3-1.29"/><path fill="#db342a" d="M55 22.31c0-.76.56-1.31 1.33-1.31.44 0 .79.2 1.03.57l.01.03-.43.22-.01-.03a.7.7 0 0 0-.6-.34c-.47 0-.82.36-.82.86s.35.87.82.87c.24 0 .48-.14.6-.35l.01-.02.43.21-.02.03c-.24.38-.58.58-1.02.58-.77 0-1.33-.56-1.33-1.32zm.06 0c0 .73.54 1.25 1.27 1.25.4 0 .73-.17.95-.51l-.31-.16a.78.78 0 0 1-.64.35c-.51 0-.88-.39-.88-.93 0-.53.37-.92.88-.92.25 0 .5.13.64.35l.31-.16a1.06 1.06 0 0 0-.95-.52c-.73 0-1.27.53-1.27 1.25zM58.75 23.48v-2.1H58V21h1.94v.38h-.75v2.1h-.44"/><path fill="#db342a" d="M59.25 23.54h-.5v-2.1H58V21h2v.44h-.75zm-.06-.06v-2.1h.75v-.32h-1.88v.32h.75v2.1zM61 23.48V21h1.7v.38h-1.27v.65h1.24v.38h-1.24v.69h1.27v.38H61"/><path fill="#db342a" d="M62.76 23.54H61V21h1.76v.44H61.5v.59h1.24v.44H61.5v.63h1.26zm-.06-.06v-.32h-1.26v-.75h1.23v-.32h-1.23v-.71h1.26v-.32h-1.64v2.42zM67.14 23.48v-1.84l-.76 1.84h-.19l-.76-1.84v1.84H65V21h.61l.68 1.63.67-1.63h.62v2.48h-.44"/><path fill="#db342a" d="M67.64 23.54h-.5v-1.72l-.71 1.72h-.23v-.02l-.7-1.69v1.71H65V21h.67v.02l.65 1.56.65-1.58h.67zm-.06-.06v-2.42h-.57l-.69 1.68-.7-1.68h-.56v2.42h.38v-1.96l.81 1.96h.14l.81-1.96v1.96zM71 23.48l-.18-.48h-1.14l-.18.48H69l.98-2.48h.54l.97 2.48zm-1.2-.86h.89l-.44-1.18z"/><path fill="#db342a" d="M71.58 23.54h-.56l-.18-.48h-1.1l-.18.48H69L70 21h.58l.01.02zm-.52-.06h.43l-.95-2.42h-.5l-.95 2.42h.43l.18-.48h1.18zm-.28-.8h-.98l.49-1.3zm-.09-.06l-.4-1.06-.4 1.06zM48.72 28.48v-2.1h-1.29v2.1H47V26h2.16v2.48h-.44"/><path fill="#db342a" d="M49.22 28.54h-.49v-2.1H47.5v2.1H47V26h2.22zm-.06-.06v-2.42h-2.1v2.42h.38v-2.1h1.35v2.1zM51 28.14c.27 0 .41-.13.49-.86l.15-1.28h1.68v2.48h-.44v-2.1h-.85l-.11.93c-.12 1.05-.44 1.21-.92 1.21v-.38"/><path fill="#db342a" d="M51 28.59v-.45h.03c.25 0 .38-.12.46-.84l.15-1.3h1.74v2.54h-.5v-2.09h-.8l-.1.89c-.12 1.04-.43 1.25-.95 1.25zm.06-.07c.47 0 .75-.21.86-1.19l.11-.95h.92v2.1h.37v-2.42h-1.63l-.14 1.25c-.08.73-.23.88-.49.89zM57 28.48l-.19-.48h-1.13l-.19.48H55l.97-2.48h.55l.97 2.48zm-1.2-.86h.89l-.44-1.18z"/><path fill="#db342a" d="M57.58 28.54h-.56l-.18-.48h-1.1l-.18.48H55L56 26h.58l.01.02zm-.52-.06h.43l-.95-2.42h-.5l-.95 2.42h.43l.18-.48h1.18zm-.28-.8h-.98l.49-1.3zm-.09-.06l-.4-1.06-.4 1.06zM58.75 28.48v-2.1H58V26h1.94v.38h-.75v2.1h-.44"/><path fill="#db342a" d="M59.25 28.54h-.5v-2.1H58V26h2v.44h-.75zm-.06-.06v-2.1h.75v-.32h-1.88v.32h.75v2.1zM62 28.48V26h1.7v.38h-1.26v.65h1.23v.38h-1.23v.69h1.26v.38H62"/><path fill="#db342a" d="M63.76 28.54H62V26h1.76v.44H62.5v.59h1.23v.44H62.5v.63h1.26zm-.06-.06v-.32h-1.26v-.75h1.23v-.32h-1.23v-.71h1.26v-.32h-1.64v2.42zM65 28.48l1.08-1.31L65.07 26h.54l.88 1.07V26h.44v1.07L67.8 26h.54l-1.01 1.17 1.09 1.31h-.54l-.83-1.04-.12.14v.9h-.44v-.9l-.12-.14-.83 1.04H65"/><path fill="#db342a" d="M68.55 28.54h-.62l-.01-.01-.81-1.02-.09.11v.92h-.5v-.92l-.09-.11-.82 1.03H65l1.11-1.34-1.04-1.2h.62l.83 1.01V26h.5v1.01l.83-1.01h.62l-1.03 1.2zm-.13-.06l-1.06-1.28.98-1.14h-.46l-.92 1.13v-1.13h-.37v1.13l-.93-1.13h-.45l.98 1.14-.02.02-1.04 1.26h.46l.84-1.06.16.18v.88h.37v-.88l.15-.18.85 1.06zM70.72 28.48V27.4h-1.29v1.08H69V26h.43v1.02h1.29V26h.44v2.48h-.44"/><path fill="#db342a" d="M71.22 28.54h-.49v-1.08H69.5v1.08H69V26h.5v1.01h1.23V26h.49zm-.06-.06v-2.42h-.37v1.02h-1.35v-1.02h-.38v2.42h.38V27.4h1.35v1.08zM73.44 26v.93h.65c.52 0 .81.35.81.77 0 .42-.29.78-.81.78H73V26zm0 1.31v.79h.59c.25 0 .42-.16.42-.4 0-.23-.17-.39-.42-.39zm1.69 1.17h.44V26h-.44z"/><path fill="#db342a" d="M75.13 26h.5v2.54h-.5zm.06 2.48h.37v-2.42h-.37zm-2.19.06V26h.5v.93h.62c.49 0 .84.33.84.8 0 .48-.35.81-.84.81zm.06-.06h1.06c.54 0 .78-.38.78-.75 0-.44-.32-.74-.78-.74h-.69v-.93h-.37zm.37-.32v-.85h.63c.27 0 .45.17.45.42 0 .25-.18.43-.45.43zm.63-.06c.24 0 .39-.15.39-.37 0-.21-.15-.36-.39-.36h-.56v.73zM78.91 28.48l-.69-.97-.7.97H77l.93-1.27-.87-1.21h.52l.64.91.63-.91h.52l-.86 1.2.92 1.28h-.52"/><path fill="#db342a" d="M79.55 28.54h-.6v-.01l-.67-.94-.68.95H77l.95-1.3-.89-1.24h.59l.63.89.62-.89h.6l-.9 1.23zm-.12-.06l-.9-1.25.85-1.17h-.45l-.65.94-.66-.94h-.44l.85 1.18-.01.02-.9 1.22h.45l.71-.99.71.99zM48.48 33.48l-.83-1.05-.21.26v.79H47V31h.44v1.18l.97-1.18h.53l-1 1.17 1.08 1.31h-.54"/><path fill="#db342a" d="M48.42 31l-.92 1.13V31H47v2.54h.5v-.81l.18-.22.81 1.02.01.01h.61l-1.1-1.34 1.03-1.2zm.49.06l-.98 1.14 1.05 1.28h-.45l-.85-1.06-.24.29v.77h-.38v-2.42h.38v1.24l1.01-1.24zM52 33.48l-.19-.48h-1.13l-.18.48H50l.97-2.48h.55l.97 2.48zm-1.2-.86h.89l-.45-1.18z"/><path fill="#db342a" d="M51 31l-1 2.54h.56l.18-.47h1.1l.18.47h.56l-.99-2.52-.01-.02zm.04.06h.5l.95 2.42h-.43l-.18-.48H50.7l-.18.48h-.43zm-.24 1.62h.98l-.49-1.3zm.89-.06h-.8l.4-1.06zM54 33.48V31h1.09c.52 0 .81.36.81.78 0 .42-.29.77-.81.77h-.65v.93zm1.03-2.1h-.59v.79h.59c.25 0 .42-.16.42-.39 0-.24-.17-.4-.42-.4z"/><path fill="#db342a" d="M54.5 33.54H54V31h1.12c.5 0 .84.33.84.81 0 .47-.34.81-.84.81h-.62zm-.44-.06h.38v-.93h.68c.46 0 .78-.3.78-.74 0-.37-.24-.75-.78-.75h-1.06zm.38-1.25v-.85h.62c.27 0 .46.18.46.43s-.19.42-.46.42zm.62-.06c.24 0 .39-.14.39-.36 0-.22-.15-.37-.39-.37h-.56v.73zM57.75 33.48v-2.1H57V31h1.94v.38h-.75v2.1h-.44"/><path fill="#db342a" d="M57 31v.44h.75v2.1h.5v-2.1H59V31zm1.94.06v.32h-.75v2.1h-.38v-2.1h-.75v-.32zM85 11.15h2.75V5.56l-.15-.19.15-.19V0H85zm5.89-5.81l4.71 5.81h-3.45l-4.4-5.59v-.38L91.94 0h3.31zM57.08 11.15h-2.77V6.97h-4.54v4.18H47V0h2.77v4.48h4.54V0h2.77v11.15M82.08 11.15h-2.77V2.49h-4.54v8.66H72V0h10.08v11.15M59 5.81C59 2.34 61.63 0 65.07 0a5.18 5.18 0 0 1 4.9 3.01l-2.49 1.18a2.7 2.7 0 0 0-2.41-1.63c-1.83 0-3.13 1.41-3.13 3.25 0 1.83 1.3 3.24 3.13 3.24a2.7 2.7 0 0 0 2.41-1.63l2.49 1.18a5.2 5.2 0 0 1-4.9 3.01c-3.44 0-6.07-2.35-6.07-5.8M15.24 11.84c-.68 0-1.24-.56-1.24-1.24V1.24C14 .56 14.56 0 15.24 0h5.42c.68 0 1.24.56 1.24 1.24v9.36c0 .68-.56 1.24-1.24 1.24h-5.42M11.32 18.67c-.21.65-.91 1-1.56.79l-8.9-2.89a1.24 1.24 0 0 1-.8-1.56l1.67-5.15c.21-.65.92-1.01 1.57-.8l8.9 2.89c.65.22 1.01.92.8 1.57l-1.68 5.15M16.85 23.42c.55.4.68 1.18.28 1.73l-5.51 7.58c-.4.55-1.18.67-1.73.27l-4.38-3.18a1.23 1.23 0 0 1-.27-1.73l5.5-7.58c.4-.55 1.18-.68 1.73-.27l4.38 3.18M22.89 20.24a1.23 1.23 0 0 1 1.73.27l5.51 7.58c.4.55.28 1.33-.28 1.73L25.47 33c-.55.4-1.33.28-1.73-.27l-5.5-7.58a1.23 1.23 0 0 1 .27-1.73l4.38-3.18M22.06 13.52c-.21-.65.15-1.35.8-1.56l8.9-2.9c.65-.21 1.35.15 1.56.8L35 15.01c.21.65-.15 1.35-.8 1.56l-8.9 2.89a1.25 1.25 0 0 1-1.57-.79l-1.67-5.15"/></svg>