<svg xmlns="http://www.w3.org/2000/svg" width="123" height="18" viewBox="0 0 123 18"><path fill="#e5702a" d="M11.63 4H8v9.21h1.86V5.86l1.77-.01V4"/><path fill="#636462" d="M13 4h3.63v9.21h-1.86V5.86H13V4"/><path fill="#636462" d="M12 13.36h1.86V6H12z"/><path fill="#1a1918" d="M13.51 13.55a6.48 6.48 0 1 1-.01-9.2l1.75-1.75a8.95 8.95 0 1 0 0 12.71l-1.74-1.76M24.73 9.9l1.84.11a3.79 3.79 0 0 1-.93 2.4c-.56.62-1.3.93-2.21.93a2.93 2.93 0 0 1-2.55-1.24A5.81 5.81 0 0 1 20 8.68c0-1.46.29-2.61.87-3.44.58-.83 1.44-1.24 2.58-1.24 1.89 0 2.92 1.17 3.09 3.5l-1.82.14c-.05-1.35-.47-2.02-1.26-2.02-.42 0-.75.22-.99.65-.25.43-.37 1.27-.37 2.52 0 1.12.11 1.89.34 2.3.22.42.56.63 1.01.63.73 0 1.16-.61 1.28-1.82M27 4h5.65v1.7H30.8v7.36h-1.99V5.7H27V4M33 4h2.61c.79 0 1.4.07 1.84.2.44.13.8.44 1.1.9.3.47.44 1.05.44 1.74 0 .66-.12 1.21-.35 1.64-.24.44-.57.75-1 .94-.42.19-1.07.29-1.94.29h-.71v3.35H33zm1.99 4.16h.62c.54 0 .89-.13 1.05-.38.16-.26.24-.58.24-.99 0-.34-.06-.62-.19-.83a.84.84 0 0 0-.42-.4 2.03 2.03 0 0 0-.68-.09h-.62zM46.58 8.67c0 3.11-1.09 4.67-3.29 4.67a2.8 2.8 0 0 1-2.46-1.19A6.13 6.13 0 0 1 40 8.67C40 5.55 41.1 4 43.29 4c1.07 0 1.89.39 2.45 1.17.56.78.84 1.94.84 3.5zM44.2 6.23c-.19-.41-.5-.61-.91-.61-.42 0-.72.2-.91.61a7.05 7.05 0 0 0-.28 2.44c0 1.19.1 2 .28 2.42.19.42.49.63.91.63.41 0 .71-.2.9-.61.2-.39.29-1.21.29-2.44s-.09-2.04-.28-2.44zM48.99 12.57v.92H47V4.43h1.99v5.09l.3-.55 2.03-3.53V4.43h1.98v9.06h-1.98V8.45l-.32.59zM48.06 2c.32 1.11 1.05 1.66 2.19 1.66 1.16 0 1.89-.55 2.2-1.66h-1.07c-.19.46-.56.7-1.13.7-.56 0-.94-.24-1.13-.7zM61.51 4v1.56h-3.52v7.5H56V4h5.51M63.72 4h2.01l2.58 9.06h-2.03l-.46-1.87h-2.55l-.44 1.87H61zm.82 1.92l-.88 3.72h1.79zM69.98 6.89l-1.73-.33c.24-1.05.62-1.74 1.14-2.07A3.45 3.45 0 0 1 71.3 4c.82 0 1.48.21 1.96.64.48.42.72 1.02.72 1.8 0 .95-.45 1.62-1.35 2.01 1.02.3 1.53 1.03 1.53 2.17 0 .85-.27 1.51-.8 2-.54.48-1.34.73-2.41.73-1.04 0-1.74-.28-2.12-.82a5.85 5.85 0 0 1-.83-2.15l1.76-.29c.13.74.3 1.2.5 1.37.21.18.47.27.78.27.35 0 .62-.12.8-.35.18-.23.27-.52.27-.88 0-.85-.47-1.27-1.4-1.27h-.3V7.77h.3c.3 0 .52-.03.69-.08a.82.82 0 0 0 .43-.34c.11-.18.17-.42.17-.71 0-.73-.31-1.1-.93-1.1-.21 0-.42.06-.62.18-.21.12-.36.51-.47 1.17M76 4h2.92l1.28 5.6L81.64 4h2.83v9.06h-1.86V5.48l-1.85 7.58h-1.45l-1.69-7.58v7.58H76V4M92.58 8.67c0 3.11-1.1 4.67-3.29 4.67-1.08 0-1.91-.4-2.46-1.19A6.13 6.13 0 0 1 86 8.67C86 5.55 87.1 4 89.29 4c1.07 0 1.88.39 2.44 1.17.57.78.85 1.94.85 3.5zm-2.39-2.44c-.19-.41-.49-.61-.9-.61-.42 0-.72.2-.91.61a6.8 6.8 0 0 0-.28 2.44c0 1.19.09 2 .28 2.42.19.42.49.63.91.63.41 0 .71-.2.9-.61.2-.39.29-1.21.29-2.44s-.09-2.04-.29-2.44zM94 4h1.99v3.66h2.18V4h1.99v9.06h-1.99v-3.7h-2.18v3.7H94V4"/><path fill="#1a1918" d="M100 4h5.65v1.7h-1.85v7.36h-2V5.7H100V4M107.72 4h2.01l2.58 9.06h-2.03l-.46-1.87h-2.55l-.44 1.87H105zm.81 1.92l-.87 3.72h1.79z"/><path fill="#1a1918" d="M119.62 7.91l2.86 5.15h-2.1l-2.14-3.95-.09.06v3.89h-1.99V9.17l-.07-.06-2.17 3.95H112l2.68-4.71L112.19 4h2.09l1.74 3.31.14.04V4h1.99v3.35l.07-.04 1.8-3.31h1.94l-2.34 3.91"/></svg>