<svg xmlns="http://www.w3.org/2000/svg" width="137" height="36" viewBox="0 0 137 36"><path fill="#fff" d="M18.19 7a9.23 9.23 0 0 1 9.18 9.24c0 5.1-4.13 9.25-9.18 9.25A9.24 9.24 0 0 1 9 16.24 9.23 9.23 0 0 1 18.19 7"/><path fill="#0a3966" d="M18.57 8a8.6 8.6 0 0 1 8.56 8.62 8.62 8.62 0 0 1-8.56 8.63 8.62 8.62 0 0 1 0-17.25"/><path fill="#fff" d="M26.47 15.78h-1.88L25.4 14h-1.28L22 18.67h1.28l.89-.8.36.8h1.28l-.74-1.62"/><path fill="#1b4678" d="M23.03 16.39L24.11 14h.74l-.8 1.78h1.62L23 18.23l.84-1.84"/><path fill="#e4b542" d="M11.3 18.69h10.95l.12-.25H11.48zm.31-.43h10.85l.13-.26H11.78zm-.43.61h10.99l-.11.26H11z"/><path fill="#fff" d="M15.51 14l-1.33 1.84.35-1.84h-.74L12 17h.74l.98-1.73L13.4 17h.49l1.26-1.73-.59 1.73h.7l1.02-3M17.87 16.19c-.06.03-.13.11-.24.14a.68.68 0 0 1-.38.11c-.22 0-.32-.11-.35-.22-.08-.14-.04-.35.03-.52.1-.36.32-.6.49-.75.07-.03.14-.1.21-.14a.93.93 0 0 1 .39-.11c.24 0 .35.11.38.22.07.14.04.35-.03.49a1.7 1.7 0 0 1-.5.78zm.46-2.19c-.21 0-.42.03-.7.1l-.46.25c-.35.25-.8.67-1.05 1.42-.17.49-.14.81-.03 1.02.14.21.39.35.84.35.21 0 .46-.03.7-.14.18-.03.32-.1.49-.21a2.9 2.9 0 0 0 1.05-1.41c.18-.5.14-.82.04-1.03-.14-.21-.39-.35-.88-.35zM23.3 14a2 2 0 0 0-1.37.56c-.42.36-.67.82-.81 1.24-.1.28-.24.78.07 1.13.18.18.46.21.67.21.21 0 .49-.03.84-.21l.39-.85c-.21.14-.53.32-.81.32-.14 0-.28-.03-.31-.14-.14-.14-.07-.42-.04-.6.07-.18.21-.42.39-.6.24-.25.56-.32.73-.32a.5.5 0 0 1 .49.36l.42-.85c-.1-.11-.24-.25-.66-.25"/><path fill="#fff" d="M20.77 14.21c-.18-.18-.46-.21-.67-.21-.38 0-.66.1-.84.21l-.35.71c.28-.18.56-.28.77-.28.18 0 .32.06.39.14.07.1.14.24.07.46h-.88l-.28.6h.91a1.26 1.26 0 0 1-.98.67c-.21 0-.46-.07-.56-.32l-.35.74c.07.11.28.21.63.21.49 0 .98-.17 1.4-.56.42-.39.67-.85.81-1.24.1-.28.24-.81-.07-1.13"/><path fill="#e4b542" d="M8.09 24.06h-.56l.09-.13 1.05-1.5.92-1.3.27-.39.31-.43.21.49-.52.74-.27.37-.92 1.32zm-.04 3.05l-.32-.24.56-.1zm.14 4.35c-.03 0-.07-.03-.08-.03h.14zm-.57-8.24l-.59.84h-.37l-.06.01h-.13l.13-.19.06-.07.21-.32.14-.2.61-.87 1.05-1.49.92-1.31.23-.32.17.55-.13.18-.27.39-.92 1.3zm-1.02-.05l-.2.29-.36.51-.08.1h-.24l-.3-.01.3-.44.32-.43.36-.51.2-.29.06-.09.21-.32.14-.2.61-.85 1.05-1.49.91-1.3.11.62-.1.15-.92 1.3-1.05 1.5-.61.87-.14.19-.21.33zm9.26 3.36l-1.83 2.58-1.91 2.74c-.2.05-.42.09-.64.12l2.55-3.64 1.83-2.58.06-.09.46.13zm1.3-.34l-1.3 1.85-1.83 2.58-.49.71c-.26.12-.52.23-.79.33l1.28-1.82 1.83-2.59.95-1.35.49.08zM5.72 22.91l-.79 1.13-.42-.04h-.1l.1-.16 1.21-1.73.32-.43.36-.51.2-.29.06-.08.21-.32.13-.18h.01c.16-.03.32-.03.48-.03a2.44 2.44 0 0 0-.23-.33l.36-.52 1.87-2.66v.07l.02.68-.84 1.2-1.05 1.49-.61.87-.14.2-.21.32-.06.07-.2.3-.36.52zm4.83 8.16l-.62.88-.07-.01-.27-.04a.35.35 0 0 0-.14-.03l.14-.22.27-.39.13-.19c.19-.09.37-.2.56-.33l.27-.21c.09-.07.18-.14.26-.23l-.26.38zm-1.88.38c.21-.02.43-.05.63-.1l-.29.4-.34-.1-.1-.04zm.92-3.94l-.25-.02.25-.35.27-.39.69-.97.27-.39.26-.38c.13-.11.26-.24.38-.37l-.08-.05.84-1.19.33.32-1.73 2.45-.27.39-.64.92-.05.01c-.09 0-.19 0-.27.02zm-.71-.08l-.21-.04-.25-.09.25-.36.27-.39c.23-.09.45-.2.65-.32.08-.06.17-.1.24-.16l-.24.35zM10.95 32l-.13.01-.27-.01h-.14l.14-.22.27-.38 2.69-3.84a6.56 6.56 0 0 1 1.27-1.1c-.18.02-.35.03-.52.06l.82-1.17.43.17zm-7.6-14l.65-.93.31-.06.2-.03.12-.01-.12.14-.2.29-.69.99-.27-.17-.11-.08zm2.37-7.12l-.79 1.15a7.69 7.69 0 0 1-.09-.67l.88-1.26.32-.43.24-.37c.03.12.07.25.12.37l.05.17-.05.1-.36.51zm0 10.52l-1.21 1.73-.2.29-.35.52a5.27 5.27 0 0 1-.49-.1l.84-1.2.2-.31 1.14-1.61.07-.03c.1-.05.2-.1.32-.14.11-.04.23-.09.36-.12l.02-.01-.02.04-.36.51zm.32-10.23l.36-.52.2-.29.06-.07.03-.05c.05.09.11.18.18.25l.12.12-.12.14-.21.32-.06.07-.2.31-.36.51-.32.43-.49.7c-.05-.18-.13-.35-.17-.54l.66-.94zm-3.11 6.7c-.11-.1-.21-.23-.3-.36l.26-.38.46.01.1-.01-.1.14zm2.79-8.48l-.86 1.23c.03-.36.1-.74.23-1.13l.63-.89.32-.44.16-.23c-.02.27-.02.53 0 .78l-.16.25zM3.35 21.78L2.2 23.4a.38.38 0 0 1-.12-.05l-.28-.16.28-.39.77-1.09.5-.05.1-.01zm.96.13l-.96 1.38-.32.45a4.5 4.5 0 0 1-.44-.16l.76-1.08.72-1.02.24-.09.2-.1c.12-.04.25-.1.36-.16l-.36.49zm2.35-10.13l.21-.32.14-.19.29-.41.32.17.08.04-.08.12-.61.87-.14.2-.21.32-.06.07-.2.29-.36.52-.32.44-.07.1c-.09-.15-.16-.31-.23-.46l.3-.44.32-.43.36-.51.2-.29zm-4.24 5.41l-.06-.16.17.04zm-1.14 4.53l-.46.66-.26-.32-.04-.05.04-.05.43-.63c.1.05.19.07.29.1l.16.06zm.19 1.24a.97.97 0 0 1-.19-.15.57.57 0 0 1-.16-.15l.16-.23.59-.84.21.05.28.04zm-.91-1.73l-.29.42c-.18-.3-.24-.46-.27-.8.19.12.36.22.56.31l.04.01zm30.66 6.68c.09.16.19.26.3.33.07.06.17.09.29.13l-.29.12c-.11.03-.21.06-.33.04-.11 0-.23-.03-.36-.07l.36-.51zm1.05-9.72l-.39.55-.03.04-.27.39-.06-.01-.33-.12-.06-.03.06-.07.33-.48.33-.46.03-.04.39-.56.6-.85c.07.06.15.1.23.14l.16.09-.16.22zm-1.44 9.55l-.34.49v.01c-.09-.07-.18-.14-.26-.23l-.07-.08.07-.12.26-.38.33-.46.01.04c.05.18.1.35.18.5zm-.6-.64l-.35.49-.2-.26-.08-.13.08-.11.55-.79.26-.36.13-.17.08.65-.21.3zm-.55-.73l-.24.35-.09.12c-.08-.15-.17-.28-.26-.42l.35-.48.24-.36.55-.77.24-.36c.02.06.02.1.02.14.03.19.04.36.05.55l-.05.08-.26.37zm6.4-7.59l-.64.9a.48.48 0 0 0-.18-.03c-.1-.03-.2-.04-.32-.04l.32-.46.66-.93.16.11c.07.06.13.12.2.16zm.7.49l-.46.66-.24-.09-.2-.06.2-.29.5-.71c.07.09.15.16.2.25l.1.12zm.33.27c.15.32.28.73.18 1.08a2.17 2.17 0 0 0-.51-.45l-.08-.05.08-.14zm-3.12-.8l-.18.27-.35.48-.36-.04-.16-.01.16-.22.71-.99.18-.29.44-.61.4.22zm-4.55 6.49l-.58.81c-.05-.1-.11-.19-.18-.29-.03-.04-.06-.09-.09-.11l.09-.13.76-1.08.24-.34.55-.79.1-.13.09.67-.19.25-.55.78zm3.66-6.73l-.6.87a1.37 1.37 0 0 1-.23-.04.82.82 0 0 1-.26-.06l.26-.37.83-1.19.53-.74c.06.01.12.04.18.07l.18.09c.03.01.05.01.06.03l-.06.07-.18.28zm2.16-.07l-.37.55-.42.58-.48-.04h-.04l.04-.07.9-1.26.31-.45.06.04.33.2zM21.71 32.42l1.66-2.36 2.19-3.12c-.05.39-.12.74-.2 1.07l-1.99 2.84-1.66 2.37-.21.27c-.1-.15-.17-.31-.21-.48zm1.66-3.07l-1.66 2.36-.51.72c-.01-.3.03-.61.1-.94l.41-.56 1.66-2.37 2.78-3.97.24-.33 1.11-1.57.21-.31.36-.53 1.61-2.27.55-.78.26-.38.34-.48.36-.51.33-.48.33-.46.03-.04.3-.42c.03.01.06.04.09.07.09.07.17.15.26.2l-.26.38-.39.56-.03.03-.33.47-.33.49-.36.49-.08.14c-.09-.03-.18-.08-.26-.12l-.13-.06.11.55-.24.35-.55.78-.01.03-.22-.04c.05.07.07.13.1.19l-.11.18-.76 1.06-.61.87-.36.51-.21.32-1.35 1.91zm7.25-9.6c.04.19.1.37.17.55l-.3.41-.02.04c-.08-.06-.16-.1-.24-.14-.06-.03-.1-.06-.16-.07l.16-.24.26-.37zm-11.59 6.74l-.89 1.29c-.33.17-.65.42-.98.71l-.17.13.17-.21 1.61-2.33.57-.02zm4.34-1.65l-1.66 2.36-1.12 1.61a7.31 7.31 0 0 0-1.86 2.22l-.03-.34.33-.47 2.68-3.8.86-1.22c.3-.15.61-.31.89-.49zm.38 9.19c.01.39.04.74.12 1.11a4.67 4.67 0 0 0-.5-.23l-.18-.09.18-.26zm-.38-.96l.53-.75c-.07.29-.11.62-.13.97l-.4.56-.54.78a2.37 2.37 0 0 1-.39-.24zm4.7-8.93l-.33.5c-.01-.02-.01-.02-.03-.02a.8.8 0 0 0-.21-.13l-.18-.06.18-.24.21-.32.97-1.37.76-1.07.24-.36.07-.1c.08.17.13.35.19.52l-.26.38-.24.35-.76 1.07zm-1.17.92l.05.69-.56.8-.19.27-.05-.07a.92.92 0 0 0-.26-.26l.26-.39.24-.35zm-3.53 6.5l1.6-2.27c-.23.63-.51 1.2-.72 1.81l-.88 1.25-1.26 1.81a3.7 3.7 0 0 1-.35-.32zm5.31-6.76l-.33.47c-.09-.11-.18-.23-.28-.33l-.03-.03.03-.04.61-.86.76-1.07.24-.36.41-.58.14.59-.55.77-.24.36zm-11.52 2.88l-1.3 1.85-.25.35c-.29.25-.57.49-.89.72l-.33.24 1.47-2.09 1.3-1.85.6-.86.52.04zm9.23-.42l.55-.77c-.06.42-.2.78-.54 1.12l-.01-.15a.41.41 0 0 0-.03-.16zm4.44-6.32l.13-.17.22.48-.02.01c-.1-.09-.21-.18-.33-.26 0-.02-.01-.02-.03-.02zM21.71 6.16l-1.14 1.62-.49-.09 1.48-2.09c.05.04.09.1.15.14l.14.13.29-.32zM15.86 7l-1.01 1.42c-.31.14-.6.3-.89.47l.07-.09 1.83-2.58.74-1.07c.07.08.16.17.28.27l.28-.31a.22.22 0 0 0 .06-.05l-.06.09zm11.26-.32c.13 0 .25 0 .38.02l.17.01-.17.23-1.11 1.57-.24.34-1.01 1.44-.33-.31 1.34-1.91.24-.34zM8.67 16.42l.92-1.3.08-.11c-.07.32-.11.65-.15.99l-.85 1.22-1.05 1.49-.61.85-.07.1-.07-.04c-.07-.06-.14-.1-.21-.14l-.06-.02-.04-.02.04-.07.06-.06.21-.33.14-.2.61-.87zm17.72-9.69l.21-.02-.21.3-.24.34-1.65 2.36-.36-.29 1.85-2.62a.5.5 0 0 1 .16-.03l.24-.04zM10.55 27.27l.27-.37 2.04-2.91.36.28-2.12 3-.28.07-.27.05c-.03.02-.06.02-.1.03zm0-5.21l-.69.98-.27.38-.46.67c-.16-.02-.3-.02-.46-.02l-.09-.01.09-.12.92-1.3.27-.4.69-.97.04-.05.25.43-.02.01zm1.85 4.88c-.22.06-.46.11-.68.19l1.83-2.62.38.24zm1.28-.32c-.23.04-.44.1-.66.15l1.01-1.44.26-.37c.13.08.27.15.41.21l-.67.94zm-3.59-2.42l-.23-.03-.27-.04.27-.38.69-.98.27-.38.26-.36.28.38-.54.76-.27.39zm8.94 3.01l.86-1.21.62-.1-1.09 1.55-.39.01-.2.05zM27.71 7.9l.13.04-.13.19-.21.32-1.11 1.56-.24.35-.42.59-.3-.35.72-1.03.24-.34 1.02-1.45.09.03c.07.05.14.06.21.09zM10.82 24.39l-.27-.09h-.01l.01-.03.27-.39.8-1.13.3.35-.94 1.33-.16-.04zM5.3 19.01c-.15-.04-.31-.08-.46-.14l.88-1.26.32-.44.14-.22c.07.02.15.03.22.06l.2.08.04.01-.04.06-.2.29-.36.52-.32.44zM33.81 9.2l.18-.27.45-.63c.14.03.3.06.45.11l.02.01-.02.04-.58.81c-.12.02-.22.03-.32.06l-.18.06-.19.09zm-1.54.68l.83-1.18.36-.53c.12.02.23.03.35.03.05.02.11.02.18.03l-.18.26-.71 1-.76 1.07-.07.08c-.12.11-.24.22-.39.31-.01 0-.01.02-.03.02-.1.08-.21.13-.33.17l-.2.09.2-.29.33-.46.03-.03zm2.62-.71l.37-.53.05-.09.44.19-.36.51-.13-.02-.37-.01-.05.01zm1.46.21c-.09-.02-.19-.05-.27-.05l-.22-.04.22-.32.03-.03c.26.16.41.32.62.55-.12-.04-.23-.08-.38-.11zm-5.16 3.55l.3-.44.03.03c.12.06.23.15.33.22l.02.01-.02.02-.33.46-.17.25c-.06.01-.12.01-.16.03-.13.03-.24.07-.36.13-.08.04-.16.08-.24.14zm-1.29-1.18c.11.06.21.12.33.16l.08.05-.08.11-.55.77-.24.36-.76 1.08-.61.85-.33.46-.1-.63.07-.11.36-.5 1.37-1.93.24-.36zM5.72 16.9l-1.21 1.72-.08.12-.12-.04-.31-.13.31-.44.2-.3.67-.93c.18-.02.35-.03.54-.02h.01zm24.98-4.78l.13.05.29.13-.29.41-.34.49-.26.38-.55.77-.24.36-.76 1.07-.61.86-.25.35.01-.16-.02-.6.26-.39.61-.85.76-1.08.24-.34.55-.79.26-.36zM12.98 9.58a9.31 9.31 0 0 0-3 4.26l-.12.17-.27.39-.92 1.31-1.05 1.49-.61.87-.14.19-.27.41-.2.29-.23.31a.5.5 0 0 1-.13-.04l-.32-.1v-.01l.32-.44.36-.51.2-.3.06-.07.21-.32.14-.19c.11.06.19.11.29.19l-.13-.42.45-.64 1.05-1.49.92-1.31.27-.39.69-.98.27-.38 3.21-4.58 1.83-2.58.63-.91c-.12.33-.18.63-.09.92l-.54.77zm14.64 9.21c.07-.34.13-.68.16-1.03l.29-.41.61-.86.76-1.07.24-.36.55-.77.03-.04.23.18.11.11-.11.17-.26.36-.55.78-.24.37-.76 1.05-.61.87-.36.51zm-.12-9.63l.21-.32.36-.51.2-.27c.13.03.28.06.41.07l.08.02-.08.11-.61.86-.36.52-.21.32-1.23 1.73-.27-.4.15-.22.24-.35zm-4.92-6.54c.1-.06.68-.78.78-.85-.07.9-1.09 1.84-1.65 2.59-.22.29-.36.57-.35.8l-1.74 2.47-.52-.04zm-6.72 5.09l1.3-1.86 1.21-1.73c.23-.15.44-.26.66-.37l.22-.08-.22.29-1.87 2.69-.87 1.25c-.25.07-.49.14-.73.23zm0-4.51l1.3-1.85.15-.22c.01.33-.03.65-.12.96l-.03.06L15.86 4l-1.83 2.58-3.21 4.56-.27.4-.69.98-.27.38-.92 1.3-1.05 1.5-.61.86-.02.03a1.8 1.8 0 0 0-.12-.24 1.47 1.47 0 0 0-.1-.22l.1-.16.14-.19.61-.87 1.05-1.49.92-1.3.27-.4.69-.97.27-.39 3.21-4.56zm1.3 4.16l1.87-2.69.88-1.23c.21-.06.45-.12.66-.16l-1.54 2.18-1.52 2.2c-.21.02-.42.06-.62.1zm4.55-.48l1.48-2.11.18-.09c.19-.08.39-.16.59-.21l-.59.84-1.66 2.36-.25.35-.46-.13zm-14.7 5.89l.61-.86.5-.71.13.05c-.01-.08-.01-.14-.03-.2l.45-.63.92-1.3.96-1.38.27-.38.21-.29c-.02.26 0 .53 0 .79l-.21.29-.27.39-.69.97-.27.39-.92 1.3-1.05 1.5-.61.87-.14.18-.21.32-.06.09-.2.29-.3.42-.06-.13-.17-.32.17-.25.36-.5.2-.31.06-.07.21-.32zm12.02-6.59l2.13-3.03c.19-.05.37-.09.55-.15l.14-.04-.14.2-2.68 3.8-.43.62-.56.02zm-5-2.6l-1.38 1.96a6.55 6.55 0 0 1 1.38-2.55c.44-.51.92-.9 1.39-1.38zM9.59 8.39L8.67 9.7l-.46.66c0-.29.01-.58.06-.87l.4-.58.92-1.3.27-.39.69-.97.27-.4.18-.24.03.75-.21.28-.27.39-.69.99zm0-1.49l-.92 1.3-.23.32.23-.85c.04-.16.08-.31.13-.44l.79-1.13.27-.37.69-.99.23-.32.04.12c.05.14.08.29.11.45l-.11.16-.27.37zm0-3.02l-.22.32c-.03-.37-.13-.75-.2-1.13l.42.16.27.13.07.05-.07.1zm0 1.51l-.43.63c.08-.37.16-.73.2-1.08l.23-.33.27-.39.4-.58c.12.1.2.22.29.33 0 .02.02.02.02.03l-.02.03-.69.97zm1.23 3.46l.23-.31.06.69-.29.42-.27.38-.69.98-.27.4-.92 1.3-1.05 1.49-.61.86-.14.2-.21.32-.06.07-.04.06-.16-.32c-.03-.05-.06-.09-.07-.13l.07-.1.2-.29.06-.07.21-.32.14-.2.61-.88 1.05-1.49.92-1.3.27-.38.69-.98zm3.21-3.78L12.12 7.8c.04-.15.08-.29.11-.48l.13-.65 1.67-2.38 1.83-2.58L17.05 0l.11.29.07.25-.07.1-1.3 1.85zm15.41 4.34l.24-.35.55-.78.04-.06h.22c.11 0 .23 0 .34-.02l-.34.5-.26.36-.55.78-.24.36-.76 1.07-.61.86-.36.5-.21.33-.32.45-.21-.49.53-.75.21-.32.36-.52.61-.85zm2.83 4.21a2 2 0 0 0-.39-.11h-.04l.01-.02.03-.04.27-.39c.05.04.09.1.12.16.1.16.16.33.21.53l-.21-.13zm-.39-4.68l.39-.55.16-.23h.54l-.7 1.01-.39.56-.03.04-.33.46-.33.48-.36.51-.11.16-.23.01c-.07.02-.16.02-.26.02h-.09l.09-.12.26-.38.34-.49.36-.49.33-.48.33-.46zM21.71 27.91l1.66-2.36 1.1-1.57a9.16 9.16 0 0 0 2.8-3.98l.23-.32.21-.32.36-.5.61-.86.76-1.07.24-.37.55-.76.26-.38.34-.49.09-.1.27.26.06.05-.06.08-.36.51-.34.47-.26.38-.55.78-.24.35-.76 1.07-.61.86-.36.52-.21.32-1.11 1.56-.24.34-2.78 3.97-1.59 2.24c0-.18-.02-.38-.05-.56l-.02.01a.69.69 0 0 1-.15.07zm0 2.29l-.15.22.15-.75.04-.31 1.62-2.31 2.78-3.95.24-.35 1.11-1.56.21-.32.36-.51.61-.87.76-1.06.24-.36.55-.78.26-.36.34-.5.36-.49.33-.49.02-.02.31.3.02.02-.02.03-.66.94-.36.5-.34.49-.26.38-.55.77-.24.36-1.37 1.92-.36.51-.21.32-1.11 1.56-.24.35-2.78 3.96zm8.78-20.79l.34-.48.36-.51.16-.23h.17c.12-.02.22-.02.33-.02h.07l-.04.06-.03.03-.33.46-.33.48-.36.51-.34.49-.26.36-.55.79-.03.06-.21-.03h-.1c.03.03.05.05.1.07l.11.09-.11.16-.76 1.07-.61.85-.36.53-.19.29a8.83 8.83 0 0 0-.17-.55l.15-.21.21-.33.36-.51.61-.85.76-1.08.24-.36.55-.77zm-7.12-1.89l2.4-3.4.38-.09c.08-.02.17-.03.24-.06h.03l-.03.03-.24.35-2.78 3.95-.3.43a5.12 5.12 0 0 0-.4-.22zm2.78-2.46l.24-.34.7-.98.41-.22c.07-.04.14-.08.21-.14.13-.09.25-.18.36-.29l.05-.03-.05.06-.36.5-.21.32-1.08 1.54-.03.01c-.08.08-.16.13-.24.19-.57.42-.93.57-.78 1.28l-1.56 2.22-.37-.24zm-7.42 24.86c.06-.37.16-.76.3-1.14l.07-.17 2.02-2.87c.24-.06.48-.14.71-.23l-.12.18-2.68 3.81zm4.64-23.9l1.19-1.7.64-.12-1.83 2.61-1.08 1.53-.43-.18zm5.31 2.97l.56-.8.2.01.24.02h.09l-.09.11-.24.37-1.37 1.92-.36.51-.21.33-.74 1.04-.25-.44.99-1.39.21-.32.36-.51zm-.61-2.16l-.24.36.24-.06c.2-.04.4-.07.61-.09l.28-.03a7.63 7.63 0 0 0-.84-.24z"/><path fill="#0a3966" d="M43 24.81L52.36 8h3.95l-.46 8.99L62.77 8h3.98l-4.42 16.81h-3.99l2.75-9.68h-.04l-7.58 9.68h-1.6l.35-9.68h-.04L47 24.81M72.59 19.25c.08.77.37 1.37.86 1.8.51.43 1.16.65 1.94.65.8 0 1.61-.22 2.45-.65a8.46 8.46 0 0 0 2.3-1.8 8.46 8.46 0 0 0 1.62-2.57c.31-.77.4-1.49.29-2.18a2.65 2.65 0 0 0-.94-1.64 2.91 2.91 0 0 0-1.92-.62c-.78 0-1.59.2-2.42.62-.84.41-1.6.96-2.27 1.64a6.77 6.77 0 0 0-1.47 2.18 5.43 5.43 0 0 0-.44 2.57zm-1.65-6.05a15.67 15.67 0 0 1 3-2.76 14.41 14.41 0 0 1 3.48-1.8c1.2-.43 2.36-.64 3.46-.64a6.5 6.5 0 0 1 2.95.64 4.9 4.9 0 0 1 2.02 1.8c.49.78.75 1.7.79 2.76a8.41 8.41 0 0 1-.69 3.45 15.23 15.23 0 0 1-2.12 3.72 15.47 15.47 0 0 1-2.97 2.97 13.5 13.5 0 0 1-3.49 1.93c-1.23.44-2.45.67-3.68.67a6.9 6.9 0 0 1-3.14-.67 4.36 4.36 0 0 1-1.95-1.94 5.97 5.97 0 0 1-.6-2.97 12.71 12.71 0 0 1 2.94-7.16zM85 24.94l2.11-5.25c.2.55.55.98 1.04 1.3.49.32 1.06.48 1.71.48.98 0 1.94-.28 2.88-.84a7.34 7.34 0 0 0 2.35-2.26h-5.5l1.38-3.43h5.34a2.6 2.6 0 0 0-.67-1.97c-.47-.49-1.14-.73-2.02-.73-.69 0-1.42.16-2.17.48-.76.32-1.46.77-2.1 1.37l2.1-5.25c1.48-.57 2.82-.85 4.02-.84.71 0 1.38.11 2 .32a4.74 4.74 0 0 1 3.29 4.21c.07.66.05 1.36-.07 2.1-.13.74-.34 1.49-.64 2.25a14.1 14.1 0 0 1-5.03 6.36c-.73.51-1.48.96-2.26 1.33-.77.37-1.54.66-2.3.85-.77.19-1.51.29-2.22.29-.55 0-1.02-.05-1.43-.16a21.3 21.3 0 0 1-1.81-.61M102.8 16.88a14.36 14.36 0 0 1 1.92-3.33 15.19 15.19 0 0 1 5.13-4.3c.8-.4 1.6-.71 2.4-.93.8-.21 1.55-.32 2.26-.32 1.19-.01 2.3.27 3.33.84l-2.1 5.25a2.25 2.25 0 0 0-.99-1.37 3.32 3.32 0 0 0-1.8-.48c-.8 0-1.59.2-2.39.62a8.1 8.1 0 0 0-3.59 4.04 5.06 5.06 0 0 0-.42 2.36c.08.69.35 1.23.83 1.63.47.39 1.12.58 1.94.58a5.3 5.3 0 0 0 2.09-.48 8.36 8.36 0 0 0 2.09-1.3l-2.11 5.25c-1.01.29-1.77.49-2.28.6-.5.11-1.03.17-1.58.17a6.02 6.02 0 0 1-2.83-.64 4.95 4.95 0 0 1-1.97-1.83c-1-1.63-.98-3.75.07-6.36M116 24.81L122.74 8h4l-2.78 6.93h.04L131.64 8h4.98l-9.34 7.96 3.15 8.85h-5.21l-2.26-7.29h-.04L120 24.81"/></svg>