<svg xmlns="http://www.w3.org/2000/svg" width="133" height="58" viewBox="0 0 133 58"><path fill="#fff" d="M104.09 43.42h-33.4l-.14-.23.07-.21a46.1 46.1 0 0 0 7.11-3.12l.16-.08.11.13.24.25c.51.56 1.32.89 2.17.89h.01c.87 0 1.71-.34 2.35-.97l.1-.09.13.04c.28.08.57.13.86.13.89 0 1.77-.4 2.43-1.1l.09-.09.12.02c.21.05.42.08.64.08.93 0 1.86-.45 2.52-1.22l.08-.09.12.01c.14.02.27.04.41.04a3.3 3.3 0 0 0 2.29-.98l.13-.13.16.1a66.28 66.28 0 0 0 10.73 5.98c.19.08.38.15.57.2l.07.21zM63.32 16.89l-.09-.01-3.71-3.94.28-.14c.62-.3.97-.83 1.1-1.65h-1.13v-1.07l.07-.07c.41-.35.63-.76.67-1.23l.22-.12.23.09a3.3 3.3 0 0 0 2.4 2.49l.16.04v1.38h7.73v-1.38l.16-.04a3.33 3.33 0 0 0 2.4-2.53l.22-.07.22.1c.04.49.25.91.68 1.27l.07.07v1.07h-1.13c.13.82.48 1.35 1.1 1.65l.27.14-3.71 3.94-.08.01c-1.57.16-2.85.24-4.07.24-1.22 0-2.51-.08-4.06-.24zm.71 26.53H30.67l-.14-.23.08-.21c.19-.05.38-.12.56-.2a65.95 65.95 0 0 0 10.74-5.98l.15-.1.13.13c.64.62 1.46.98 2.29.98.14 0 .28-.02.41-.04l.13-.01.08.09a3.36 3.36 0 0 0 2.52 1.22c.21 0 .43-.03.63-.08l.13-.02.09.09c.65.7 1.54 1.1 2.42 1.1.29 0 .59-.05.87-.13l.13-.04.09.09c.65.63 1.48.97 2.36.97a2.94 2.94 0 0 0 2.41-1.15l.12-.12.15.08a49.12 49.12 0 0 0 7.08 3.12l.07.21zm32.6-23.21l-1-.92a17.06 17.06 0 0 0-3.67-2.61 9.43 9.43 0 0 0-4.95-1.04 5.62 5.62 0 0 0-3.15 1.03 4.36 4.36 0 0 0-1.59 3.21c-.11 1.12-.64 1.76-1.85 2.21h-.01v.01l-.1.03a9 9 0 0 1-1.57.38l-.25.05v-3.24l-1.33-.07-.35-.03 1.79-3.2.18.07a3.43 3.43 0 0 0 3.32-.53l-1.4-.69-.06-.24.16-.19h.1a4.53 4.53 0 0 1 2.59.79c.09-.2.17-.38.2-.59a1.64 1.64 0 0 0-.66-1.7 4.35 4.35 0 0 0-1.94-.75l-.31-.06.55-.99h-.87v-1.06l.08-.07a1.78 1.78 0 0 0-1.11-3.19h-.26l-.12.48-.23.08-.22-.14V7.2a.88.88 0 0 0-.69-.85l-.17-.03v-.73h.54v-.01h-.54v-.55h-.01v.55h-.55v.01h.55v.73l-.18.03a.88.88 0 0 0-.69.85v.05l-.21.13-.23-.08-.12-.48h-.26c-.8 0-1.51.54-1.73 1.31l-.22.05-.22-.11v-.02a3.1 3.1 0 0 0-.67-2 3.63 3.63 0 0 0-1.72-1.14l-.2-.07.17-.65h-1.7l-.15.57h-1.54l-.05-.03-.14.03.31-.37c.15-.18.23-.42.23-.66 0-.47-.31-.88-.77-1l-.17-.04v-.77h.73v-.19h-.73V1h-.19v.73h-.73v.19h.73v.77l-.16.04a1.04 1.04 0 0 0-.54 1.66l.3.37-.13-.03-.05.03h-1.54L65 4.19h-1.7l.17.64-.21.06a3.28 3.28 0 0 0-2.38 3.14l-.22.14-.22-.08a1.82 1.82 0 0 0-.63-.91 1.84 1.84 0 0 0-1.08-.36h-.26l-.12.48-.22.08-.23-.13V7.2a.87.87 0 0 0-.68-.85l-.18-.03v-.73h.55v-.01h-.55v-.55h-.01v.55h-.54v.01h.54v.73l-.17.03a.88.88 0 0 0-.69.85v.04l-.22.14-.23-.08-.12-.48h-.26a1.8 1.8 0 0 0-1.79 1.8c0 .54.22 1 .68 1.39l.07.07v1.06h-.86l.55.99-.32.06c-.56.09-1.36.3-1.94.75-.56.44-.77.99-.65 1.7.03.21.1.39.2.59a4.5 4.5 0 0 1 2.59-.79h.1l.15.19-.05.24-1.4.69a3.43 3.43 0 0 0 3.32.53l.18-.07 1.79 3.2-.35.03-1.34.07v3.24l-.26-.05a9.1 9.1 0 0 1-1.56-.38l-.1-.03-.01-.01h-.01c-1.2-.45-1.74-1.09-1.85-2.21a4.38 4.38 0 0 0-1.58-3.21 5.67 5.67 0 0 0-3.15-1.03l-.64-.02a9.4 9.4 0 0 0-4.31 1.06 16.82 16.82 0 0 0-3.67 2.61l-1.01.92A50.72 50.72 0 0 1 2 32.86a4.1 4.1 0 0 0 1.01 2.95 3.1 3.1 0 0 0 2.3.86h.08a57.8 57.8 0 0 0 2.63-.11l.18-.01.05.18c.34 1.33 1.14 2.09 2.44 2.3.27.05.56.07.87.07.3 0 .62-.02.98-.06.55-.06 1.09-.16 1.62-.25l.26-.05.07.18c.47 1.27 1.32 1.93 2.58 2.02l.34.02c.42 0 .9-.06 1.44-.17.55-.11 1.1-.26 1.63-.4l.18-.06.08.17c.59 1.19 1.46 1.77 2.69 1.77h.02c.5-.01 1.06-.1 1.73-.3.55-.16 1.11-.37 1.56-.54l.17-.07.1.16a3.32 3.32 0 0 0 1.87 1.46l.08.21-.14.23h-8.36v.29c-.01.77-.45 1.68-1.67 1.68h-.3v10.19h.3c.77.01 1.67.45 1.67 1.67v.3h93.83l.01-.3c0-.77.45-1.67 1.67-1.67h.3l-.01-10.19h-.29c-.77-.01-1.67-.46-1.67-1.68v-.29h-8.36l-.14-.23.07-.21a3.34 3.34 0 0 0 1.88-1.46l.09-.16.18.07c.45.17 1 .38 1.56.54.66.2 1.23.29 1.72.3h.03c1.22 0 2.1-.58 2.68-1.77l.09-.17.18.06c.53.14 1.07.29 1.62.4a7.43 7.43 0 0 0 1.79.15c1.26-.09 2.11-.75 2.58-2.02l.06-.18.26.05c.53.09 1.08.19 1.63.25.36.04.68.06.97.06.32 0 .61-.02.88-.07 1.29-.21 2.09-.97 2.44-2.3l.04-.18.19.01c.87.06 1.75.09 2.63.11h.08c.96 0 1.73-.29 2.29-.86a4.1 4.1 0 0 0 1.02-2.95 50.73 50.73 0 0 1-36.13-12.65z"/><path fill="#b99459" d="M45.98 53.44h-5.02v-7.47h5.02v2.33h-1.6v-.73h-1.82v4.27h1.82v-.72h1.6zm12.15-1.6h1.82v-4.27h-1.82zm-1.6-5.87h5.02v7.47h-5.02zm-5.75 7.47h-1.6v-7.47h4.44v1.6h-2.84zm-16.55-1.6h1.82v-4.27h-1.82zm-1.6-5.87h5.02v7.47h-5.02zm65.69 4.11h1.49l-.24-2.51h-1.01zm-.3 3.36h-1.6l.73-7.47h3.83l.73 7.47h-1.6l-.16-1.76h-1.77zm-15.56-5.87h-1.71v-1.6h5.02v1.6h-1.71v5.87h-1.6zm-12.58 5.87h-5.02v-7.47h5.02v2.33h-1.6v-.73h-1.82v4.27h1.82v-.72h1.6zm8.23 0h-5.03v-7.47h5.03v2.33H76.5v-.73h-1.81v4.27h1.81v-.72h1.61zm48.94-18.45c1.74.13 3.7.01 4.02-2-5.19.18-9.66-.48-13.39-1.35-6.44-1.48-10.59-3.73-11.95-4.38-.89 1.1-1.63 1.24-1.81 1.3a53.4 53.4 0 0 0 15.55 5.5c2.7.52 5.22.75 7.58.93zm-5.72 2.38c1.44.21 2.9.29 3.52-1.62a54.53 54.53 0 0 1-21.62-6.51 3.69 3.69 0 0 1-1.81 1.27c9.93 5.67 19.23 6.76 19.91 6.86zm-5.5 1.93c1.58.29 2.53-.6 2.81-1.45a57.5 57.5 0 0 1-18.02-6.74 3.84 3.84 0 0 1-1.86 1.23 61.76 61.76 0 0 0 17.07 6.96zm-6.3 1.24c1.29.34 2.23-.02 2.89-1.2-7.5-2.15-12.86-5.47-14.57-6.48-.6.62-1.15 1-1.88 1.18a68.54 68.54 0 0 0 9.83 5.1c1.02.44 2.59 1.1 3.73 1.4zm-6.35.67c1.63.72 2.4-.09 3.01-.92-2.11-.86-6.08-2.46-11.25-5.81a3.85 3.85 0 0 1-1.91 1.14c4.29 2.81 6.31 3.76 6.71 3.96.37.18 1.63.84 3.44 1.63zm-82.73 2.25a2.33 2.33 0 0 1-1.92 1.92v8.66c.77.16 1.72.68 1.93 1.92h92.3c.15-.77.68-1.72 1.91-1.93v-8.66c-.77-.16-1.72-.67-1.92-1.91zm6.57-3.17c.6.83 1.38 1.64 3 .92 1.81-.79 3.08-1.45 3.44-1.63.4-.2 2.42-1.15 6.72-3.96a3.86 3.86 0 0 1-1.92-1.14c-5.16 3.35-9.13 4.95-11.24 5.81zm-3.34.25c1.14-.3 2.71-.96 3.72-1.4a68.01 68.01 0 0 0 9.83-5.1 3.77 3.77 0 0 1-1.87-1.18c-1.71 1.01-7.07 4.33-14.57 6.48.65 1.18 1.59 1.54 2.89 1.2zm-6.31-1.24a61.7 61.7 0 0 0 17.07-6.96c-.8-.2-1.5-.81-1.85-1.23a57.62 57.62 0 0 1-18.02 6.74c.27.85 1.23 1.74 2.8 1.45zm-5.5-1.93c.68-.1 9.98-1.19 19.92-6.86a3.76 3.76 0 0 1-1.82-1.27 54.43 54.43 0 0 1-21.61 6.51c.61 1.91 2.08 1.83 3.51 1.62zm-5.71-2.38c2.35-.18 4.87-.41 7.58-.93 4.05-.76 8.9-2.05 15.54-5.5-.18-.06-.91-.2-1.81-1.3-1.35.65-5.5 2.9-11.94 4.38-3.73.87-8.2 1.53-13.39 1.35.32 2.01 2.27 2.13 4.02 2zM35.2 22.33a55.78 55.78 0 0 1-6.95 4.51c.47.58 1.53 1.37 2.93.64 1.03-.54 2.71-1.6 6.03-4.18-1.12-.18-1.66-.72-2.01-.97zm2.72-2.25c-.65.59-1.33 1.15-2.01 1.7a2.3 2.3 0 0 0 2.99.11c.96-.84 1.89-1.71 2.79-2.62l.8.52a56.22 56.22 0 0 1-4.11 3.75c.81.67 1.96.86 3.01.05l.6-.54c.77-.71 1.53-1.45 2.27-2.21l.84.47c-.94.97-1.91 1.91-2.91 2.81l-1.2 1.04a2.3 2.3 0 0 0 3.01.01 61.9 61.9 0 0 0 2.95-2.92l.89.42a61.41 61.41 0 0 1-3.03 3.01l-1.06.96c.83.65 1.99.8 3.01-.05a86.15 86.15 0 0 0 3.03-3.09l.92.36a60.19 60.19 0 0 1-3.15 3.24l-.92.87a2.3 2.3 0 0 0 3.02-.12 67.8 67.8 0 0 0 3.11-3.28l.96.3a65.29 65.29 0 0 1-4.06 4.26c.86.61 2.04.72 3.03-.18.9-.93 1.75-1.86 2.57-2.81v-3.51a10.2 10.2 0 0 1-1.85-.45l-.15-.04c-1.57-.59-2.29-1.54-2.43-2.95-.28-2.9-2.4-3.56-4.82-3.45-3.01.14-5.08 1.63-7.08 3.42l-1.02.92zm7.14 15.63a70.19 70.19 0 0 0 6.04-5.18 3.77 3.77 0 0 1-2.07-.79h-.01a69.07 69.07 0 0 1-6.95 5.68c1.03.98 2.15.91 2.99.29zm9.25-4.24a3.7 3.7 0 0 1-2.09-.74h-.01a72.6 72.6 0 0 1-7 6.02c1.19 1.06 2.42.71 3.04.18 1.52-1.28 3.14-2.56 6.06-5.46zm-1.46-1.37c.7.48 1.59.62 2.42.18v-2.75c-.78.88-1.59 1.74-2.42 2.57zm2.42 5.81a63.41 63.41 0 0 1-3.29 2.92c.64.57 2.07 1.02 3.16-.07l.13-.14zm-3.7 2.07a79.9 79.9 0 0 0 3.7-3.36v-2.81a71.71 71.71 0 0 1-6.74 6.07c.8.71 1.97.91 3.04.1zm-5.59-9.42A64.06 64.06 0 0 1 39 33.99c.7.72 1.95 1.1 3.01.35a76.73 76.73 0 0 0 6.03-4.94 3.65 3.65 0 0 1-2.06-.84zm-2.91-1.33a62.14 62.14 0 0 1-6.96 5.16 2.3 2.3 0 0 0 2.99.42 66.8 66.8 0 0 0 6.02-4.71 3.82 3.82 0 0 1-2.05-.87zM30.74 28.8c.68.86 1.99 1.19 2.95.57 1.67-1.08 3.09-1.99 6.02-4.33a3.65 3.65 0 0 1-2.02-.95 53.66 53.66 0 0 1-6.95 4.71zm9.57-3.07c-3.55 2.91-6.22 4.47-6.96 4.93.67.77 1.96 1.17 2.97.5a67.52 67.52 0 0 0 6.02-4.52 3.7 3.7 0 0 1-2.03-.91zM55.9 39.54c-1.06 1.16-3.31 1.42-4.85-.07a3.49 3.49 0 0 1-3.52-1.03 3.54 3.54 0 0 1-3.38-1.22 3.46 3.46 0 0 1-2.89-1.01 66.17 66.17 0 0 1-10.77 6l-.6.21h33.37a49.04 49.04 0 0 1-7.12-3.14l-.24.26zm.47-1.38l.04.02c1.49.77 5.89 3.18 10.19 3.98 4.46-.85 9.27-3.5 10.24-4V19.38c-2.46-.12-3.92-.63-5.65-2.44-1.52.17-3.05.28-4.59.28s-3.06-.11-4.59-.28c-1.73 1.81-3.19 2.32-5.64 2.44zm1.14-19.98c.41-.06.78-.13 1.13-.25l-.96-1.53a1.1 1.1 0 0 1-.88.51zm-1.2-2.15c.31.53 1.14.08.9-.39l-.77-1.23c-.26.12-.55.21-.9.25zm-1.11-1.98c1.19-.06 1.67-.68 1.78-1.45l-.62.01c-.16.45-.59.69-.98.7l-.41-.7h-.58zm-1.18 1.06c.34 0 .65-.05.95-.15l-.15-.27-.39-.7-1.7.84c.41.21.81.28 1.29.28zm0-1.86l-.46-.81-.36-.66c-1.1.14-2.72.61-2.49 2.03a5.18 5.18 0 0 1 2.38-.56zm-.83-5.41c0 .39.17.74.43.99h1.48l-.59-2.37a1.4 1.4 0 0 0-1.32 1.38zm.76 1.63v.67l4.63.01v-.68zm2.31-1.95a1.1 1.1 0 0 1-.99-.62l.49 1.93h1l.49-1.93a1.1 1.1 0 0 1-.99.62zm0-1.55a.47.47 0 0 0-.46.46c0 .25.21.45.46.45s.46-.2.46-.45a.47.47 0 0 0-.46-.46zm1.16 2.86h1.48c.27-.25.43-.6.43-.99 0-.74-.58-1.34-1.31-1.38zm3.37 7.75c.25-.23.52-.49.8-.79l-1.13-1.21a1 1 0 0 1-.35.42c-.14.09-.28.14-.42.17zm-2.02-.68c-.15.11-.33.18-.52.2l.99 1.59c.35-.17.69-.39 1.06-.69l-1.17-1.5c-.08.16-.2.3-.36.4zm-1.35-2.59c-.11.28-.26.52-.46.72l.77 1.24.02.03c.3.47 1.16-.08.78-.56zm1.04-.86c-.25.06-.52.1-.8.12l1.4 1.79c.39.46 1.19.03.66-.57l-.05-.05zm-1.02-.49c.82 0 1.82-.28 2.18-1.17h-6.25l.66 1.17zm2.52-3.94a1.98 1.98 0 0 1-.74 1.38v.75h1.16c-.11 1.14-.59 1.75-1.26 2.08l3.45 3.66c1.34.14 2.67.24 4.03.24 1.36 0 2.71-.1 4.05-.24l3.45-3.66c-.67-.33-1.15-.94-1.26-2.08H74V9.4a2 2 0 0 1-.75-1.43 3.53 3.53 0 0 1-2.56 2.71v1.43h-8.16v-1.43a3.52 3.52 0 0 1-2.57-2.66zm2.63-3.51a2.88 2.88 0 0 0 .81 5.64h.71zm.48-.68l1.71 6.32h.84l-1.71-6.32zm1.66.56l1.55 5.76h.65l1.55-5.76h-.69L66.6 8.65l-1.18-4.26zm2.48-.33a1.23 1.23 0 0 1-1.22 0l.61 2.21zm-.61-1.72a.62.62 0 0 0-.62.62c0 .34.28.62.62.62.35 0 .62-.28.62-.62a.61.61 0 0 0-.62-.62zm.98 7.81h.85l1.71-6.32h-.85zm-4.41 1.32h6.89v-.68h-6.89zm9.51-4.2c0-1.3-.87-2.41-2.06-2.76l-1.53 5.64h.71c1.6 0 2.88-1.29 2.88-2.88zm2.52-.81c-.73.04-1.31.64-1.31 1.38 0 .39.16.74.43.99h1.48zm-.56 3.01v.68h1.25l3.38-.01v-.67zm2.31-1.95c-.43 0-.81-.25-.98-.62l.48 1.93h1.01l.49-1.93a1.1 1.1 0 0 1-1 .62zm0-1.55a.46.46 0 0 0-.45.46c0 .25.21.45.45.45.26 0 .47-.2.47-.45a.47.47 0 0 0-.47-.46zm1.17 2.86h1.48c.26-.25.43-.6.43-.99a1.4 1.4 0 0 0-1.32-1.38zm1.53 3.61l-.45.81h.93c.82 0 1.66.18 2.37.56.24-1.42-1.38-1.89-2.48-2.03zm-.86 1.55l-.39.7-.16.27c.3.1.62.15.96.15.48 0 .88-.07 1.29-.28zm-2.55-1.39c.11.77.59 1.39 1.78 1.45l.81-1.44h-.58l-.42.7a1.06 1.06 0 0 1-.97-.7l-.62-.01zm1.44 2.06a2.81 2.81 0 0 1-.9-.25l-.77 1.23c-.24.47.59.92.9.39zm-4.77 2.35c.37.29.71.52 1.07.69l.99-1.6a1.1 1.1 0 0 1-.52-.2.99.99 0 0 1-.36-.4zm.62-1.84a1.16 1.16 0 0 1-.42-.17 1 1 0 0 1-.35-.42l-1.14 1.22c.29.3.56.56.81.79zm2.03-2.6a4.96 4.96 0 0 1-.8-.12l-1.21 1.29-.05.05c-.53.6.27 1.03.66.57zm-.87 2.17c-.39.48.48 1.03.78.56l.02-.03.77-1.24c-.2-.2-.35-.44-.46-.72zm4.5-2.77l.66-1.18H73.6c.36.89 1.27 1.12 2.19 1.17zm-2.77 4.94a1.1 1.1 0 0 1-.49-.14 1.18 1.18 0 0 1-.4-.37l-.95 1.54c.35.11.72.19 1.13.24zm.88 22.63l-.24-.26a47.7 47.7 0 0 1-7.14 3.14h33.39l-.6-.21a66.07 66.07 0 0 1-10.76-6 3.47 3.47 0 0 1-2.9 1.01 3.52 3.52 0 0 1-3.37 1.22 3.5 3.5 0 0 1-3.52 1.03c-1.54 1.49-3.8 1.23-4.86.07zm.63-.92l.14.14c1.09 1.09 2.52.64 3.15.07-.97-.8-2.16-1.86-3.29-2.92zm0-4a85.4 85.4 0 0 0 3.7 3.36c1.08.81 2.24.61 3.05-.1a73.1 73.1 0 0 1-6.75-6.07zm0-4.34c.83.44 1.73.3 2.42-.18a74.03 74.03 0 0 1-2.42-2.57zm0-4.14c.83.95 1.68 1.88 2.58 2.81.98.9 2.16.79 3.02.18a68.07 68.07 0 0 1-4.06-4.26l.96-.3h.01c.98 1.11 2.01 2.2 3.11 3.28 1 .88 2.17.75 3.01.12l-.92-.87a60.19 60.19 0 0 1-3.15-3.24l.93-.36.88.96c.69.71 1.41 1.42 2.14 2.13a2.3 2.3 0 0 0 3.02.05l-1.06-.96a53.76 53.76 0 0 1-3.03-3.01l.88-.42a45.44 45.44 0 0 0 2.95 2.92 2.3 2.3 0 0 0 3.01-.01 59 59 0 0 1-4.1-3.85l.84-.47c.74.76 1.5 1.5 2.27 2.21l.6.54a2.3 2.3 0 0 0 3-.05 58.36 58.36 0 0 1-4.11-3.75l.8-.52a57.5 57.5 0 0 0 2.8 2.62 2.3 2.3 0 0 0 2.99-.11 46.55 46.55 0 0 1-3.03-2.62c-2-1.79-4.07-3.28-7.08-3.42-2.42-.11-4.54.55-4.82 3.45-.14 1.41-.86 2.36-2.44 2.95l-.15.04c-.59.21-1.21.35-1.85.45zm21.59 3.23c.95.62 2.27.29 2.94-.57a54.4 54.4 0 0 1-6.95-4.71c-.61.52-1.24.87-2.02.95 2.93 2.34 4.36 3.25 6.03 4.33zm-2.64 1.79c1.01.67 2.31.27 2.97-.5-.73-.46-3.4-2.02-6.95-4.93-.64.52-1.32.85-2.03.91a67.4 67.4 0 0 0 6.01 4.52zm-2.77 1.65c1.07.72 2.3.33 2.99-.42a62.44 62.44 0 0 1-6.97-5.16c-.66.52-1.37.82-2.04.87a66.8 66.8 0 0 0 6.02 4.71zm-8.94-3.41a78.65 78.65 0 0 0 6.02 4.94c1.06.75 2.32.37 3.01-.35a64 64 0 0 1-6.97-5.43c-.59.46-1.32.81-2.06.84zM88 36.75c-2.64-2-4.97-4.02-7-6.02h-.01c-.66.46-1.35.73-2.09.74 2.91 2.9 4.54 4.18 6.06 5.46.62.53 1.84.88 3.04-.18zm-5.9-6.22a73.38 73.38 0 0 0 6.04 5.18c.85.62 1.97.69 2.99-.29a70.21 70.21 0 0 1-6.95-5.68c-.65.47-1.35.76-2.08.79zm22.85-3.69A55.78 55.78 0 0 1 98 22.33c-.34.25-.89.79-2.01.97 3.32 2.58 5.01 3.64 6.04 4.18 1.39.73 2.45-.06 2.92-.64zm27.25 5.2c.02 2.16-.99 4.12-3.61 4.08-.88-.02-1.77-.05-2.64-.11-.42 1.61-1.43 2.27-2.62 2.47-.61.09-1.26.07-1.91 0a21.2 21.2 0 0 1-1.71-.26c-.57 1.51-1.61 2.08-2.78 2.17-.6.05-1.23-.03-1.84-.15-.56-.12-1.13-.27-1.65-.42-.7 1.43-1.76 1.9-2.91 1.9a7 7 0 0 1-1.79-.31c-.54-.16-1.07-.36-1.58-.55a3.6 3.6 0 0 1-2 1.56h8.59v.52c0 1.36 1.2 1.44 1.45 1.44l.51.01v10.64h-.52c-1.35 0-1.44 1.21-1.44 1.45l-.01.51-.52.01H19.46v-.53c0-1.36-1.21-1.44-1.45-1.44l-.51-.01-.01-.51V44.38h.52c1.36 0 1.45-1.2 1.45-1.44v-.52h8.58a3.6 3.6 0 0 1-2-1.56c-.5.19-1.04.39-1.57.55-.6.17-1.2.3-1.79.31-1.16 0-2.22-.47-2.91-1.9-.53.15-1.09.3-1.65.42-.62.12-1.25.2-1.84.15-1.18-.09-2.21-.66-2.78-2.17-.54.1-1.13.2-1.71.26-.65.07-1.3.09-1.91 0-1.2-.2-2.21-.86-2.62-2.47-.88.06-1.76.09-2.64.11C2 36.16.98 34.2 1 32.04v-.19l.19.01a50.36 50.36 0 0 0 36-12.59l1.02-.92c2.49-2.23 5.2-3.95 8.78-3.71 2.45.17 4.63 1.21 4.94 4.44.09.96.5 1.57 1.71 2.03l.1.03c.49.16 1 .29 1.53.38v-3.19l1.54-.08-1.52-2.73c-.39.15-.82.23-1.27.23-1.14 0-1.69-.37-2.57-1.01l1.74-.85h-.1c-.75 0-1.57.17-2.22.57l-.44.33c-.16-.29-.3-.56-.35-.89-.29-1.73 1.33-2.47 2.78-2.71l-.58-1.05h1.03V9.4a1.97 1.97 0 0 1-.76-1.56c0-1.12.91-2.02 2.02-2.02H55l.17.65v-.04c0-.53.37-.97.86-1.07v-.32h-.55v-.46h.55v-.55h.46v.55h.55v.46h-.55v.32c.49.1.87.54.87 1.07v.04l.16-.65h.44c.9 0 1.67.61 1.92 1.43a3.53 3.53 0 0 1 2.54-3.36l-.19-.7h2.17l.15.57h1.08a1.26 1.26 0 0 1 .65-2.02v-.37h-.73V.73h.73V0h.65v.73h.72v.64h-.72v.37c.53.14.93.63.93 1.22 0 .3-.1.58-.28.8h1.07l.16-.57h2.16l-.19.73c1.47.48 2.55 1.65 2.55 3.35v.02a2.01 2.01 0 0 1 1.94-1.47h.43l.16.65v-.04c0-.53.38-.97.87-1.07v-.32h-.55v-.46h.55v-.55h.46v.55h.54v.46h-.54v.32c.49.1.87.54.87 1.07l.15-.61h.44a2.01 2.01 0 0 1 1.26 3.58v.74h1.04l-.6 1.05c1.45.24 3.08.98 2.79 2.71-.05.33-.19.6-.35.89l-.44-.33a4.32 4.32 0 0 0-2.22-.57h-.11l1.74.85c-.87.64-1.42 1.01-2.56 1.01-.45 0-.88-.08-1.27-.23l-1.53 2.73 1.53.08v3.19c.53-.09 1.05-.22 1.54-.38l.1-.03c1.21-.46 1.61-1.07 1.71-2.03.31-3.23 2.49-4.27 4.93-4.44 3.58-.24 6.29 1.48 8.79 3.71l1.01.92a50.39 50.39 0 0 0 36.01 12.59l.18-.01zM90.31 49.6h1.82v-2.03h-1.82zm0 3.84h-1.6v-7.47h5.02v5.23h-3.42zm13.8 0l1.38-3.77-1.27-3.7h1.71l.87 2.9h.43l.88-2.9h1.71l-1.28 3.7 1.38 3.77h-1.71l-.98-2.96h-.43l-.98 2.96zm-78.16-5.87h1.82v2.03h-1.82zm3.42 3.63v-5.23h-5.02v7.47h1.6V51.2z"/><path fill="#7e1b1f" d="M75.45 21.96a9.55 9.55 0 0 1-2.19-.76 7.3 7.3 0 0 1-1.94-1.34l-.02-.02-.03.01c-.44.04-2.06.18-3.8.18h-.02c-1.75 0-3.36-.14-3.81-.18l-.03-.01-.01.02c-.27.27-.87.8-1.94 1.34-.93.47-1.93.71-2.21.76v-.65c.51-.12 1.19-.3 1.92-.67a6.07 6.07 0 0 0 1.87-1.33l.11-.13.17.02c.02 0 1.85.19 3.94.19 2.08 0 3.92-.19 3.93-.19l.18-.02.11.13c.02.03.56.67 1.87 1.33.71.36 1.39.54 1.9.67zm-2.87 5.61v-.96h1.6v5.18h.68v.85h-2.28v-.85h.74v-4.22zm-4.58 0v-.96h3.59v3.33h-2.74v1.85h2.6v.85H68v-3.66h2.73v-1.41zm-4.69 2.37v-3.33h3.7v6.03h-3.7v-.85h2.84v-1.85zm-3.26-2.37v-.96h1.6v5.18h.67v.85h-2.27v-.85h.74v-4.22zm7.41 12.91l-.06-.02a30.68 30.68 0 0 1-7.95-2.97v-.71c.42.23 4.26 2.29 8 3.04l.01.01.01-.01c3.6-.72 7.54-2.8 7.98-3.04v.71a31.42 31.42 0 0 1-7.93 2.97zm-.01-22.23c-1.43 0-2.87-.09-4.29-.25A7.7 7.7 0 0 1 58 20.36v17.57c.41.23 5.42 2.93 9.45 3.68 4.04-.75 9.04-3.45 9.45-3.68V20.36A7.7 7.7 0 0 1 71.74 18c-1.41.16-2.86.25-4.29.25zm-3.28 9.32h1.98v1.41h-1.98z"/></svg>