<svg xmlns="http://www.w3.org/2000/svg" width="167" height="32" viewBox="0 0 167 32"><path fill="#91212d" d="M39.5 9.48h3.08c.84 0 1.51-.18 2.01-.52.5-.35.75-.87.75-1.59 0-.8-.31-1.35-.92-1.64.46-.4.69-.91.69-1.52 0-1.2-.82-1.81-2.45-1.81H39.5zm108.76 19.64l2.57-3.25v3.25h.81v-4.69h-.68l-2.57 3.25v-3.25h-.81v4.69zm-5.01 0l2.58-3.25v3.25h.81v-4.69h-.68l-2.58 3.25v-3.25h-.8v4.69zm-2.12-1.34c-.32.38-.78.62-1.37.62-.95 0-1.62-.65-1.62-1.63 0-.97.62-1.61 1.59-1.61.51 0 .95.18 1.27.54l.53-.51c-.32-.47-.99-.81-1.84-.81a2.31 2.31 0 0 0-2.4 2.39c0 1.46.94 2.4 2.42 2.4a2.3 2.3 0 0 0 1.9-.87zm-4.94 0c-.32.38-.78.62-1.36.62-.96 0-1.63-.65-1.63-1.63 0-.97.62-1.61 1.59-1.61.51 0 .95.18 1.26.54l.54-.51c-.32-.47-.99-.81-1.84-.81a2.31 2.31 0 0 0-2.4 2.39c0 1.46.94 2.4 2.41 2.4.8 0 1.52-.32 1.91-.87zm-7.19-3.4a2.36 2.36 0 0 0-2.39 2.4 2.35 2.35 0 0 0 2.39 2.39c1.34 0 2.4-1.01 2.4-2.39 0-1.39-1.06-2.4-2.4-2.4zm0 4.02c-.83 0-1.55-.65-1.55-1.62 0-.98.72-1.62 1.55-1.62.82 0 1.56.64 1.56 1.62 0 .97-.68 1.62-1.56 1.62zm-6.32.72v-1.61h1.08c1.46 0 1.96-.77 1.96-1.54 0-.74-.37-1.54-1.95-1.54h-1.9v4.69zm1.12-3.93c.79 0 1.07.33 1.07.77 0 .49-.33.79-1.12.79h-1.07v-1.56zm-8.97-.76h-.81v4.69h1.62c1.25 0 1.99-.53 1.99-1.55 0-.9-.64-1.48-1.93-1.48h-.87zm.85 2.41c.72 0 1.1.24 1.1.73 0 .58-.38.79-1.11.79h-.84v-1.52zm2.87 2.28h.81v-4.69h-.81zm-9.47-3.92h1.57v3.92h.82V25.2h1.57v-.77h-3.96zm-4.43 3.92h3.55v-.76h-2.74v-1.25h2.5v-.74h-2.5V25.2h2.67v-.77h-3.48zm-1.76 0h.81v-4.69h-3.39v1.04c0 2.63-.43 2.93-.95 2.87v.79l.28.02c.74.01 1.46-.69 1.46-3.32v-.64h1.79zm-6.49-4.74a2.36 2.36 0 0 0-2.39 2.4 2.35 2.35 0 0 0 2.39 2.39c1.34 0 2.4-1.01 2.4-2.39 0-1.39-1.06-2.4-2.4-2.4zm0 4.02c-.83 0-1.55-.65-1.55-1.62 0-.98.72-1.62 1.55-1.62.82 0 1.56.64 1.56 1.62 0 .97-.69 1.62-1.56 1.62zm-6.88-3.2h1.57v3.92h.81V25.2h1.57v-.77h-3.95zm-3.86 3.92v-1.61h1.08c1.46 0 1.96-.77 1.96-1.54 0-.74-.37-1.54-1.95-1.54h-1.89v4.69zm1.12-3.93c.79 0 1.07.33 1.07.77 0 .49-.33.79-1.12.79h-1.07v-1.56zm-6.49 3.93h3.56v-.76h-2.74v-1.25h2.49v-.74h-2.49V25.2h2.66v-.77h-3.48zm-4.75 0h1.94c1.09 0 1.84-.39 1.84-1.37 0-.6-.28-.95-.72-1.09.34-.21.56-.56.56-1.05 0-.68-.38-1.18-1.64-1.18h-1.98zm1.88-3.92c.69 0 .9.2.9.59 0 .36-.3.57-.82.57h-1.15V25.2zm.06 1.9c.71 0 .99.19.99.61 0 .45-.3.65-1.04.65h-1.08V27.1zm-7.45 2.02h.81V25.2h2.6v-.77h-3.41zm-1.75 0h.81v-4.69h-.81v1.94h-2.46v-1.94h-.81v4.69h.81v-1.99h2.46zm-7.62 0l2.57-3.25v3.25h.82v-4.69h-.69l-2.57 3.25v-3.25h-.81v4.69zm-6.54.83h.79v-.83h3.34v.83h.78v-1.59h-.57v-3.93h-3.31v.68c0 2.09-.22 2.79-.53 3.25h-.5zm1.8-4.76h1.73v3.17h-2.18c.29-.54.45-1.42.45-2.88zm-3.61 3.93h.81v-4.69h-3.39v1.04c0 2.63-.43 2.93-.95 2.87v.79l.28.02c.75.01 1.46-.69 1.46-3.32v-.64h1.79zm-6.54-4.74a2.36 2.36 0 0 0-2.39 2.4 2.35 2.35 0 0 0 2.39 2.39c1.34 0 2.4-1.01 2.4-2.39 0-1.39-1.06-2.4-2.4-2.4zm0 4.02c-.83 0-1.55-.65-1.55-1.62 0-.98.72-1.62 1.55-1.62.82 0 1.56.64 1.56 1.62 0 .97-.69 1.62-1.56 1.62zm-2.5-3.97h-.98l-1.2 1.64-1.2-1.64h-.97l1.68 2.31-1.75 2.38h.98l1.25-1.72 1.25 1.72h1l-1.76-2.38zM14.03 0l.86 9.05L30.98.36a.2.2 0 0 0 .1-.22.2.2 0 0 0-.18-.14zM9.91 0H0v19.95L13.79 9.37zM4.02 31.81h27.79V7.98L15.4 10.33zm160.77-11.68h1.56v-7.07h-2.95c-.96 0-1.7.22-2.2.67a2.15 2.15 0 0 0-.77 1.72c0 .51.14.95.41 1.3.27.35.66.6 1.17.76l-2.08 2.62h1.85l1.81-2.33h1.2zm-1.54-3.8c-.36 0-.64-.08-.86-.25a.8.8 0 0 1-.33-.65c0-.6.41-.9 1.24-.9h1.49v1.8zm-9.33 3.8l3.45-4.31v4.31h1.57v-7.07h-1.31l-3.42 4.34v-4.34h-1.57v7.07zm-3.78 0h1.57v-7.07h-1.57v2.78H147v-2.78h-1.56v7.07H147V17.3h3.14zm-13.02 0h1.61l.58-1.31h2.96l.57 1.31h1.64l-3.1-7.07h-1.16zm3.66-4.75l.91 2.12h-1.83zm-6.18 4.75h1.56v-7.07h-6.26v7.07h1.57v-5.6h3.13zm-12.92 0h1.57v-4.27l1.9 2.85h.41l1.84-2.82v4.24h1.57v-7.07h-1.42l-2.15 3.38-2.27-3.38h-1.45zM114.45 14a3.52 3.52 0 0 0-1.06 2.6c0 1.04.35 1.91 1.06 2.61.71.7 1.57 1.04 2.59 1.04 1.02 0 1.87-.35 2.58-1.05.7-.7 1.05-1.57 1.05-2.6 0-1.05-.35-1.92-1.05-2.61a3.52 3.52 0 0 0-2.58-1.05 3.5 3.5 0 0 0-2.59 1.06zm1.15 4.14c-.38-.4-.58-.91-.58-1.55 0-.63.2-1.14.58-1.54.4-.4.88-.59 1.44-.59.54 0 1.01.19 1.41.59.4.4.6.91.6 1.54 0 .65-.19 1.16-.58 1.56-.38.39-.86.59-1.43.59-.56 0-1.04-.2-1.44-.6zm-8.15 1.99h1.56v-2.37l.5-.52 2.4 2.89h2.06l-3.27-3.94 3.07-3.13h-2.04l-2.72 2.76v-2.76h-1.56zm-5.47 0h1.57v-7.07h-2.96c-.95 0-1.69.22-2.2.67a2.17 2.17 0 0 0-.76 1.72c0 .51.14.95.41 1.3.26.35.65.6 1.17.76l-2.09 2.62h1.85l1.81-2.33h1.2zm-1.54-3.8c-.35 0-.64-.08-.86-.25a.81.81 0 0 1-.32-.65c0-.6.41-.9 1.24-.9h1.48v1.8zm-11.61 3.8h1.61l.58-1.31h2.96l.58 1.31h1.63l-3.1-7.07h-1.16zm3.67-4.75l.91 2.12h-1.84zm-6.17 4.75h1.56v-7.07h-1.56v2.78h-3.14v-2.78h-1.57v7.07h1.57V17.3h3.14zm-6.59-2.33c-.5.63-1.15.94-1.95.94-.61 0-1.12-.2-1.52-.6-.4-.4-.6-.91-.6-1.54 0-.65.2-1.17.59-1.56.4-.39.91-.58 1.55-.58.31 0 .61.07.92.2.31.14.57.34.77.59l1.06-.97c-.26-.4-.64-.72-1.15-.97a3.94 3.94 0 0 0-1.71-.37c-1.08 0-1.96.35-2.64 1.06a3.6 3.6 0 0 0-1.02 2.6c0 1.1.33 1.97.99 2.65.66.67 1.53 1 2.63 1 .63 0 1.21-.12 1.74-.37.53-.26.95-.62 1.27-1.08zm-11.66 2.33l3.44-4.31v4.31h1.57v-7.07h-1.3l-3.42 4.34v-4.34H66.8v7.07zm-8.07 0h3.09c.84 0 1.51-.17 2.01-.51.49-.35.75-.88.75-1.59 0-.81-.31-1.35-.93-1.64.46-.4.69-.9.69-1.52 0-1.2-.81-1.81-2.44-1.81h-3.17zm2.91-5.6c.41 0 .69.05.84.16.16.11.23.29.23.53 0 .19-.07.34-.24.44-.16.11-.4.16-.7.16h-1.47v-1.29zm.1 2.7c.43 0 .74.06.92.17.19.11.28.29.28.54 0 .26-.1.45-.3.56-.19.11-.52.17-.99.17h-1.35v-1.44zm-8.3 2.9v-2.22h1.36c1.03 0 1.79-.23 2.27-.7.49-.47.73-1.04.73-1.72a2.31 2.31 0 0 0-.59-1.64 2.15 2.15 0 0 0-.94-.57 4.3 4.3 0 0 0-1.47-.22h-2.93v7.07zm1.4-5.6c.89 0 1.33.32 1.33.96 0 .63-.46.96-1.39.96h-1.34v-1.92zm-9.4 5.6h5.5v-1.46h-3.93v-1.41h3.59v-1.42h-3.59v-1.31h3.84v-1.47h-5.41zm-1.88-2.33c-.49.63-1.14.94-1.95.94-.61 0-1.12-.2-1.51-.6-.41-.4-.61-.91-.61-1.54 0-.65.2-1.17.59-1.56.4-.39.91-.58 1.55-.58.3 0 .61.07.92.2.31.14.57.34.77.59l1.06-.97c-.26-.4-.64-.72-1.15-.97a3.9 3.9 0 0 0-1.71-.37 3.55 3.55 0 0 0-3.65 3.66c0 1.1.32 1.97.98 2.65.66.67 1.53 1 2.63 1 .64 0 1.21-.12 1.75-.37.52-.26.95-.62 1.26-1.08zm70.7-8.32h1.56V2.41h-2.96c-.95 0-1.69.22-2.19.66a2.18 2.18 0 0 0-.77 1.72c0 .51.14.95.41 1.3.27.35.66.6 1.17.76l-2.08 2.63h1.85l1.81-2.34h1.2zm-1.55-3.81c-.35 0-.63-.08-.85-.25a.8.8 0 0 1-.33-.65c0-.6.41-.9 1.24-.9h1.49v1.8zm-11.68 3.81h1.61l.58-1.32h2.96l.58 1.32h1.63l-3.1-7.08h-1.16zm3.66-4.75l.91 2.11h-1.84zm-6.16 4.75h1.57V2.41h-1.57v2.77h-3.14V2.41H95.1v7.07h1.57V6.64h3.14zM88.08 3.87h2.26v5.61h1.56V3.87h2.28V2.4h-6.1zm-6.33 5.61h5.49V8.01h-3.92V6.59h3.58V5.18h-3.58V3.87h3.84V2.4h-5.41zm-2.5 0h1.57V2.4h-5.31l-.01.8a28.2 28.2 0 0 1-.18 3.29c-.09.7-.23 1.14-.42 1.32-.18.19-.46.26-.85.21v1.46c.13.01.26.03.4.03.33 0 .59-.03.8-.08a1.82 1.82 0 0 0 1.18-1.12c.13-.33.25-.8.35-1.39.11-.6.18-1.32.22-2.19l.04-.81h2.21zM67.24 3.34a3.57 3.57 0 0 0-1.05 2.6c0 1.04.35 1.91 1.06 2.61a3.5 3.5 0 0 0 2.58 1.04 3.5 3.5 0 0 0 2.58-1.05 3.5 3.5 0 0 0 1.06-2.6c0-1.05-.35-1.91-1.06-2.62a3.54 3.54 0 0 0-2.58-1.04c-1.02 0-1.89.36-2.59 1.06zm1.16 4.14c-.39-.4-.59-.91-.59-1.54 0-.64.2-1.15.59-1.55.4-.4.87-.59 1.43-.59.54 0 1.01.19 1.41.59.4.4.6.91.6 1.55a2.1 2.1 0 0 1-.58 1.55c-.38.39-.86.59-1.43.59-.56 0-1.03-.2-1.43-.6zm-8.83-3.61h2.27v5.61h1.56V3.87h2.28V2.4h-6.11zM54.3 9.48V7.25h1.36c1.03 0 1.79-.23 2.27-.7.49-.47.73-1.04.73-1.71 0-.32-.05-.61-.14-.88a2.1 2.1 0 0 0-1.39-1.35c-.41-.14-.9-.21-1.47-.21h-2.93v7.08zm1.4-5.61c.89 0 1.33.32 1.33.96 0 .64-.46.96-1.39.96H54.3V3.87zm-9.41 5.61h5.49V8.01h-3.93V6.59h3.59V5.18h-3.59V3.87h3.84V2.4h-5.4zM42.4 3.87c.41 0 .69.05.85.17.15.11.23.28.23.53 0 .18-.08.33-.24.44-.16.1-.4.15-.71.15h-1.46V3.87zm-1.33 2.71h1.43c.44 0 .75.05.93.16.18.11.27.29.27.54 0 .27-.09.45-.29.56-.2.12-.53.17-.99.17h-1.35z"/></svg>