<svg xmlns="http://www.w3.org/2000/svg" width="147" height="22" viewBox="0 0 147 22"><path fill="#264b68" d="M.36 10.88C.36 5.09 4.92.38 10.53.38c5.6 0 10.16 4.71 10.16 10.5 0 5.8-4.56 10.51-10.16 10.51C4.92 21.39.36 16.68.36 10.88zm10.17 10.89c5.8 0 10.52-4.88 10.52-10.89 0-6-4.72-10.88-10.52-10.88C4.72 0 0 4.88 0 10.88c0 6.01 4.72 10.89 10.53 10.89z"/><path fill="#264b68" d="M12.41 12.53c-1.09.24-2.59.52-3.08.6-1.29.22-1.71.34-2.6.6a12.8 12.8 0 0 1-1.3-.58c.41-.17.86-.32 1.28-.43 2.19-.55 4.1-.66 6.75-1.39a8.2 8.2 0 0 0 2.77-1.19l.26-.21c.76 1.23-2.11 2.17-4.08 2.6zm2.16-4.64c-.58-.18-1.1-.38-1.79-.5.41-.17.7-.35.95-.55.55.15 1.08.34 1.49.54-.07.1-.54.56-.65.51zM2.96 11.5c-.92-1.31 2.27-2.24 2.87-2.42a28.4 28.4 0 0 1 4.98-1.04 5.95 5.95 0 0 1 2.78.28c-2.73.76-5.43.99-8 1.77-2.08.63-2.63 1.42-2.63 1.41zm1.5 3.44c-.09.13-.15.22-.19.36-.31-.27-.45-.48-.45-.73.21.13.42.26.64.37zm-.31-1c.12-.12.28-.24.45-.35.38.19.75.36 1.12.51-.27.11-.5.23-.69.35-.3-.16-.59-.33-.88-.51zm11.71-4.65c-.3.24-.69.44-1.12.6-1.3.48-3.65.99-4.91 1.2-1.26.2-2.3.37-3.71.76a6.1 6.1 0 0 0-1.74.73c-.3-.17-.47-.23-.73-.45.96-.85 2.92-1.32 3.64-1.49 2.29-.51 4.41-.83 5.28-1.05 1.07-.28 1.81-.53 2.33-.78.03-.04.87.38.96.48zm.23-1.39c.34.29.44.5.28.82-.23-.17-.46-.26-.71-.39.16-.13.3-.27.43-.43zM3.42 13.37c-.21-.12-.4-.38-.3-.61.2.14.35.23.58.36l-.28.25zm12-6.65c-.38-.15-.77-.29-1.15-.4.13-.14.31-.35.36-.53.34.23.74.58.79.93zM2.55 8.05l-.21.6a13.38 13.38 0 0 1 10.24-2.08c-1.28.46-2.8.56-4.07.86-1.09.26-1.67.34-3.11.83-1.48.51-2.34 1.02-2.89 1.67-.25.31-.46.66-.5 1.05-.02.23-.01.43.06.64.06.18.2.35.35.53-.18.3-.33.7-.08 1.16.12.22.39.44.66.64l-.06.24c-.05.27-.08.58.1.86.29.47.65.79 1.21 1.1.09.4.23.72.52 1a7.1 7.1 0 0 0 4.55 1.92 7.2 7.2 0 0 0 3.74-.71l.61-.33c-1.05.43-2.81.69-4.26.56-2.1-.17-3.98-1.59-4.21-2 .07.05.17.09.25.12 2.46 1.23 5.64 1.89 9.71.19l.33-.34c-3.69 1.19-6.93 1.15-10.4-.72a.7.7 0 0 1 .27-.46c.89.4 1.73.74 2.78.95 1.21.23 2.6.28 3.74.23 1.14-.05 3.42-.64 4.5-1.22.09-.09.14-.25.24-.35-2.11.79-4.6 1.16-6.1 1.05a11.45 11.45 0 0 1-4.51-1.11c.33-.15.67-.26 1.02-.36 1.13.36 2.29.57 3.67.64 1.35.06 4.54-.46 6.53-1.72l.13-.37s-2.79 1.54-5.93 1.54c-1.47 0-2.38-.23-3.04-.39 1.48-.28 3.34-.51 5.45-1.06a8.44 8.44 0 0 0 2.96-1.45c.51-.48.9-1.09.77-1.71a1.18 1.18 0 0 0-.52-.71c.26-.34.23-.63.2-.89-.02-.2-.11-.42-.23-.61-.17-.22-.32-.4-.66-.6.05-.3 0-.56-.1-.79-.26-.47-.73-.86-1.53-1.28-.05-.18-.14-.4-.31-.6A6.08 6.08 0 0 0 10.35 3a9.25 9.25 0 0 0-3.99.76c-.42.2-.74.41-1.07.63 2.59-1.18 5.75-1.1 7.44-.32.52.25.89.4 1.04.71a11.27 11.27 0 0 0-3.98-.54c-2.08.04-4.86.9-5.93 1.55l-.46.59c1.52-.93 4.38-1.54 5.97-1.58 1.76-.03 3.13.13 4.39.6-.07.34-.23.5-.51.67-5.04-.9-8.01.16-10.7 1.98zM34.18 8.88l.4 2.91h-.8zm-1.01 6.65l.26-1.65h1.5l.26 1.65h2.17L35.52 6h-2.69L31 15.53zM39.4 9.86c.35 0 .99-.23.99-.93 0-.83-.74-.89-.95-.89-.24 0-.71.04-1.17.27l-.02-2.06A6.82 6.82 0 0 1 40.11 6c1.75 0 2.54 1.27 2.54 2.5 0 1.21-.68 1.94-1.32 2.22v.09c.61.2 1.46.83 1.46 2.29 0 1.79-1.22 2.78-2.77 2.78-.83 0-1.37-.12-2.02-.49l.04-1.98c.6.27 1.01.29 1.42.29a.9.9 0 0 0 .96-.91c0-.53-.33-.89-1.06-.89h-.87V9.86h.91M122.4 9.86c.35 0 .99-.23.99-.93 0-.83-.74-.89-.95-.89-.24 0-.71.04-1.17.27l-.02-2.06a6.8 6.8 0 0 1 1.87-.25c1.74 0 2.53 1.27 2.53 2.5 0 1.21-.68 1.94-1.32 2.22v.09c.61.2 1.46.83 1.46 2.29 0 1.79-1.22 2.78-2.77 2.78-.83 0-1.37-.12-2.02-.49l.04-1.98c.6.27 1 .29 1.42.29a.9.9 0 0 0 .96-.91c0-.53-.33-.89-1.06-.89h-.87V9.86h.91M43 6h5.83v9.53H46.7V8.29h-1.56v7.24H43V6M53.14 8.1h.51c.48 0 .79.3.79 1.09 0 1.03-.52 1.1-.79 1.1h-.51zm0 7.43v-3.14h.72c2.11 0 2.77-1.97 2.77-3.22 0-1.23-.75-3.17-2.77-3.17H51v9.53zM60.39 13.48c-.75 0-1.14-.91-1.14-2.59 0-1.68.39-2.59 1.14-2.59.75 0 1.14.91 1.14 2.59 0 1.68-.39 2.59-1.14 2.59zm3.39-2.59c0-2.44-.86-4.89-3.39-4.89C57.86 6 57 8.45 57 10.89c0 2.45.86 4.89 3.39 4.89 2.53 0 3.39-2.44 3.39-4.89zM75.09 13.62v-2.17h.32c.24 0 .92.02.92 1 0 1-.68 1.17-.92 1.17zm.46 1.91c.56 0 2.87-.24 2.87-3.12.01-2.44-1.79-2.86-2.95-2.86h-.38V8.29h2.83V6H73v9.53zM86 6h2.09v3.43h1.5V6h2.09v9.53h-2.09v-3.81h-1.5v3.81H86V6M134 6h2.09v3.43h1.5V6h2.09v9.53h-2.09v-3.81h-1.5v3.81H134V6M93 6h2.09v3.43h.45L96.74 6h2.28l-1.64 4.52 1.87 5.01h-2.46l-1.2-3.83h-.5v3.83H93V6M27 6h4.38l.01 2.38h-2.21v7.15H27V6M142 6h4.38l.01 2.38h-2.21v7.15H142V6M65 6h1.81l1.61 2.24L70.03 6h1.81v9.53h-2.13V9.71l-1.29 1.67-1.28-1.67v5.82H65V6M82.18 8.88l.4 2.9h-.81zm-1.01 6.65l.26-1.65h1.49l.26 1.65h2.17L83.52 6h-2.69L79 15.53zM114.98 11.18L117.03 6h2.01v9.57h-2.01v-5.16l-.94 2.37-1.11 2.78H113V6.03h1.98v5.15M128.97 11.18L131.03 6h2.01v9.57h-2.01v-5.16l-.94 2.37-1.11 2.78H127V6.03h1.97v5.15M111.3 15.51h-2.09V8.33h-.89v3.98c0 .79-.15 1.53-.24 1.84a2.21 2.21 0 0 1-2.86 1.43c-.09-.03-.22-.11-.22-.11v-2.14l.1.01c.86.02 1.12-.03 1.12-.9v-.91-5.04V6h5.08v9.51"/></svg>