<svg xmlns="http://www.w3.org/2000/svg" width="72" height="71" viewBox="0 0 72 71"><path fill="#008bc1" d="M0 70.94h71.13V0H0z"/><path fill="#fff" d="M31.73 30.7c0-.44 0-1.6-.47-2.15-.19-.2-.53-.44-1.12-.44-.47 0-.88.16-1.12.44-.32.36-.48 1.07-.48 2.15v.95c0 1.09.16 1.8.48 2.17.24.28.65.44 1.12.44.46 0 .87-.16 1.11-.45.32-.36.48-1.07.48-2.16zm22.62-1.6l1.19-1.53-.35-.35c-.34-.33-.64-.53-.75-.61a3.9 3.9 0 0 0-2.28-.61c-.69 0-1.7.09-2.48.84v.01c-.84.83-.84 1.93-.84 2.29 0 .73.19 1.33.56 1.8.47.61 1.19.88 1.54 1.01l.41.14.4.15.31.1c.3.09.56.17.72.32.22.19.27.39.27.67a.8.8 0 0 1-.22.59c-.28.3-.69.34-1.02.34a2.2 2.2 0 0 1-.93-.2 5 5 0 0 1-1.01-.63l-.42-.33-1.27 1.71.41.34a4.98 4.98 0 0 0 3.25 1.21c1.14 0 2.09-.33 2.75-.94.88-.82.98-1.78.98-2.43 0-.81-.2-1.39-.64-1.91a3.3 3.3 0 0 0-1.65-.98l-.94-.29a2.86 2.86 0 0 1-.8-.35c-.1-.08-.21-.21-.21-.52a.8.8 0 0 1 .19-.56c.16-.18.41-.27.74-.27.35 0 .72.09.99.23.51.25 1.1.76 1.1.76zm-32.07-2.93L20.4 30.2l-1.88-4.03H16V36.2h2.52v-5.09l.73 1.56.35.74.28.62h1.04l1.36-2.92v5.09h2.52V26.17zM44.6 36.2h2.52V26.17H44.6zm-3.79-4.63c0 .88-.17 1.5-.53 1.9-.36.42-.95.62-1.74.62h-.52v-5.82h.52c.8 0 1.37.21 1.75.62.46.52.52 1.22.52 1.91zm1.31-4.08a4.92 4.92 0 0 0-3.58-1.32H35.5V36.2h3.04c1.52 0 2.69-.42 3.57-1.28a4.97 4.97 0 0 0 1.33-3.74c0-1.12-.15-2.55-1.32-3.69zm-8.89-.15c1.01 1.16 1.12 2.75 1.12 3.84 0 1.1-.11 2.69-1.12 3.85a3.88 3.88 0 0 1-3.09 1.33 3.9 3.9 0 0 1-3.11-1.33c-1-1.16-1.11-2.75-1.11-3.85 0-1.09.11-2.68 1.11-3.84A3.9 3.9 0 0 1 30.14 26c1.62 0 2.58.73 3.09 1.34zM63.01 19.14h.59l-.59.14v.15l.59.15h-.59v.13h.75v-.22l-.51-.13.51-.13V19h-.75zm.09.79c-.07.07-.1.15-.1.27 0 .1.03.19.1.26.07.06.16.09.28.09.12 0 .22-.03.29-.09.07-.07.1-.16.1-.27a.41.41 0 0 0-.03-.16c-.01-.03-.04-.06-.07-.09a.36.36 0 0 0-.1-.07.49.49 0 0 0-.19-.04.41.41 0 0 0-.28.1zm.48.11c.04.04.06.09.06.16 0 .06-.02.11-.06.14-.04.04-.11.06-.19.06a.3.3 0 0 1-.2-.06.2.2 0 0 1-.06-.14c0-.07.02-.11.06-.15a.29.29 0 0 1 .19-.06c.09 0 .16.02.2.05zm-.57.63v.28l.02.13a.2.2 0 0 0 .06.11l.13.08a.7.7 0 0 0 .33 0 .35.35 0 0 0 .12-.07.19.19 0 0 0 .07-.12.41.41 0 0 0 .02-.14v-.27zm.62.22l-.01.12a.1.1 0 0 1-.03.07.16.16 0 0 1-.07.04.46.46 0 0 1-.27 0c-.03-.01-.06-.02-.07-.04-.02-.01-.03-.03-.03-.06l-.01-.09v-.11h.49zm-.62.67h.75v-.15h-.75zm.06.2c-.05.05-.07.12-.07.21 0 .07.01.12.03.16.01.05.04.08.08.1a.2.2 0 0 0 .12.04c.05 0 .09-.01.12-.03a.18.18 0 0 0 .07-.08.91.91 0 0 0 .06-.16c.01-.08.03-.12.05-.14.01-.02.02-.02.04-.02s.04 0 .05.02c.02.02.03.06.03.1 0 .04-.01.08-.03.1a.15.15 0 0 1-.08.04v.15c.07 0 .13-.03.17-.08.04-.04.06-.11.06-.21 0-.05-.01-.1-.03-.14a.16.16 0 0 0-.07-.09.2.2 0 0 0-.11-.03.2.2 0 0 0-.15.06c-.03.03-.05.09-.07.17a.5.5 0 0 0-.03.12c-.01.03-.02.04-.04.05l-.04.02c-.03 0-.05-.01-.07-.04-.02-.02-.03-.06-.03-.11 0-.04.01-.08.03-.1.02-.03.06-.05.11-.06l-.02-.14a.26.26 0 0 0-.18.09zm-.06.78h.14v-.14h-.14zm0 .29h.31V22.94a.18.18 0 0 1-.04.05l-.1.08-.17.1v.18l.15-.09.12-.08.06-.08c.01.06.03.11.07.14.04.03.08.05.14.05l.12-.03a.22.22 0 0 0 .07-.09.6.6 0 0 0 .02-.17v-.32h-.75zm.62 0V23.06l-.03.06a.14.14 0 0 1-.06.02l-.06-.02-.03-.04-.01-.13v-.12zm.13.75h-.41l-.12.01a.08.08 0 0 0-.07.04.17.17 0 0 0-.03.1l.02.1.07.04h.54v.15h-.39l-.19-.01a.2.2 0 0 1-.1-.05l-.06-.08a.59.59 0 0 1 0-.31.27.27 0 0 1 .07-.08c.02-.02.05-.04.08-.04a.84.84 0 0 1 .19-.02h.4z"/><path fill="#fff101" d="M23.91 40.03h.18v.7h-.35v-.36h-1.39v.36H22v-.7h.18l.71-1.57h.31zm-.39 0l-.47-1.08-.48 1.08zm2.43.34h-.39l-.52-1.42-.53 1.42h-.39l.76-1.91h.31zm1.39 0h-.35v-.74h-.01l-.51.74h-.41l.53-.7c-.3-.04-.52-.25-.52-.58 0-.19.08-.63.72-.63h.55zm-.56-1.56c-.28 0-.35.14-.35.28s.07.28.35.28h.21v-.56zm3.19 1.56h-.39l-.52-1.42-.53 1.42h-.39l.76-1.91h.31zm.87-1.14a1 1 0 1 1 .97 1.19.99.99 0 0 1-.99-.84h-.3v.79h-.36v-1.91h.36v.77zm1.61.19a.65.65 0 0 0-.64-.65c-.36 0-.64.3-.64.65 0 .36.28.66.64.66.37 0 .64-.31.64-.66zm2.36.61h.18v.7h-.35v-.36h-1.39v.36h-.35v-.7h.18l.71-1.57h.31zm-.39 0l-.47-1.08-.48 1.08zm.76-1.57h1.03v.35h-.67v.44h.64v.34h-.64v.44h.67v.34h-1.03zm1.7 0v1.35l.86-1.35h.35v1.91h-.35v-1.34l-.86 1.34h-.35v-1.91zm.26-.46c.01.09.09.13.17.13.08 0 .15-.04.17-.13h.29c-.03.21-.2.36-.46.36s-.43-.15-.47-.36zm1.31 2.03h.35v.33c0 .08 0 .19-.1.28a.34.34 0 0 1-.24.09v-.17c.08 0 .15-.05.15-.14v-.05h-.16zm1.32-1.57h.35v.83l.6-.83h.42l-.72.94.72.97h-.42l-.6-.83v.83h-.35zm2.24 0h.29l.79 1.91h-.39l-.19-.49h-.71l-.19.49h-.39zm.36 1.08l-.22-.56-.21.56zm.92-1.08h.35v.83l.6-.83h.42l-.72.94.72.97h-.42l-.6-.83v.83h-.35zm2.2 0h.49l.53 1.46.53-1.46h.48v1.91h-.35v-1.43l-.51 1.43h-.3l-.51-1.43v1.43h-.36zm2.74 0v.74h.28c.48 0 .64.3.64.59 0 .35-.26.58-.64.58h-.63v-1.91zm0 1.57h.29c.16 0 .27-.09.27-.24 0-.16-.11-.25-.27-.25h-.29zm1.11.34h.36v-1.91h-.36z"/></svg>