<svg xmlns="http://www.w3.org/2000/svg" width="137" height="23" viewBox="0 0 137 23"><path fill="#7e1d34" d="M50.55 13.07c0 1.8 0 3.3-.11 4.12-.05.51-.15.92-.51 1.03-.21.05-.42.05-.57.05l-.09.01-.07-.01c-.2 0-.46 0-.77-.11-.36-.1-.92-.41-1.59-2.11-1.18-2.83-4.1-10.66-4.41-11.38-.2-.62-.3-.67-.41-.67-.1 0-.2.1-.41.72l-4.29 11.73c-.36.97-.72 1.64-1.6 1.79h-.56c-.11 0-.16.06-.16.16s.1.1.36.1c.87.05 1.9.01 2.11.01.21-.06 1.03 0 1.49 0 .16 0 .26 0 .26-.1 0-.11-.05-.16-.15-.16h-.21c-.31 0-.72-.16-.72-.52s.1-.82.26-1.28l1.14-3.34c.05-.11.1-.16.2-.16l4.07.01c.1 0 .15.05.15.1l1.8 4.69v.26c0 .15-.11.25-.16.25a.1.1 0 0 0-.1.1c0 .11.2.11.56.16H49c.1.01.19 0 .27-.01l.24.02c.57.05 1.75 0 1.8 0 .11-.05 1.29 0 2.32 0 .21 0 .31-.05.31-.1 0-.1-.05-.15-.16-.15-.15 0-.56 0-.87-.06-.57-.1-.67-.51-.72-1.03-.1-.82-.1-2.31-.09-4.12l.01-7.77c0-.2.05-.3.15-.36.16-.05.52-.1.83-.1.41 0 1.59-.1 2.57.93a3.98 3.98 0 0 1 1.07 2.94c0 1.75-1.44 3.08-3.29 3.08-.36 0-.52 0-.52.15 0 .11.15.16.21.16h.41c2.67 0 4.63-1.79 4.64-4.47a3.3 3.3 0 0 0-.93-2.27c-.3-.31-1.13-1.08-3.49-1.08-.88 0-1.96.04-2.37.04-.16 0-1.29-.05-2.16-.05-.21 0-.31.05-.31.15 0 .06.1.11.15.11.16 0 .52 0 .67.05.62.15.77.46.77 1.08.05.62.05 1.13.05 4.07zm12.16-7.85c0-.15.05-.15.1-.15l2.22.05c1.13 0 1.54.36 1.69.62.11.26.16.57.16.72 0 .11.05.21.1.21.1 0 .15-.1.15-.21.06-.2.11-1.03.11-1.23.05-.52.15-.77.15-.88 0-.1-.05-.2-.1-.2s-.15.05-.26.1c-.1 0-.51.05-.82.05-.31 0-2.26.05-4.27.04-.1 0-1.34-.05-2.16-.05-.21 0-.31.05-.31.15 0 .05.1.1.15.1.16.01.52.01.62.06.67.15.77.41.82.87.05.31.05 1.14.05 4.27l-.01 3.35c0 2.32-.06 3.86-.16 4.32-.1.57-.21.72-.47.83-.2.05-.41.05-.61.05-.11 0-.11.05-.11.15 0 .1.06.1.26.1.46.06 1.39.01 1.9.01.52 0 1.81.1 4.64.11.77 0 .92 0 1.03-.51.1-.36.26-1.65.26-1.81 0-.15 0-.3-.11-.3-.1-.01-.15.1-.2.3-.11.77-.31 1.14-.83 1.34-.51.21-1.34.2-1.8.2-1.85 0-2.21-.31-2.21-1.54l.01-4.89c0-.11.05-.16.15-.16.31 0 2.17.06 2.68.11.77.1.92.41.98.67.1.26.1.41.1.62 0 .1 0 .15.1.15.16 0 .16-.15.16-.36 0-.92.21-2.16.21-2.26 0-.11 0-.16-.11-.16-.05 0-.1.11-.26.26-.15.21-.41.26-.87.26-.46.05-2.78.04-3.04.04-.1 0-.1-.05-.1-.2zm14.75 13.66c1.18 0 2.62-.15 3.39-.45.31-.16.36-.16.47-.52.2-.67.41-2.31.41-2.42 0-.15 0-.31-.1-.31s-.15.11-.2.31a4.26 4.26 0 0 1-.68 1.6c-.77.77-1.9.92-3.29.92a6.83 6.83 0 0 1-6.83-6.96c0-3.35 1.19-6.28 6.08-6.27 2.37 0 4.58.78 4.57 2.99 0 .26 0 .42.11.42.15 0 .2-.31.2-1.19.01-1.13.16-2.01.16-2.21 0-.16-.05-.21-.26-.21-.71 0-2.41-.52-4.68-.52-6.02-.01-7.88 4.1-7.88 7.14-.01 4.37 2.76 7.67 8.53 7.68zm8.92-13.77l3.04.05c1.13 0 1.59.37 1.7.62.1.26.15.57.15.72 0 .11.05.21.15.21.11 0 .11-.1.16-.21l.05-1.23c.11-.52.16-.77.16-.88 0-.1 0-.2-.1-.2-.06 0-.16.05-.26.1-.05 0-.52.05-.83.05l-4.94.04c-.56 0-1.54-.05-2.31-.05-.16 0-.26.05-.26.15 0 .05.1.1.15.1.16.01.47.01.62.06.62.15.72.41.77.87.05.31.05 1.14.05 4.28l-.01 3.34c0 2.32-.01 3.86-.11 4.32-.1.57-.21.72-.51.83-.21.05-.42.05-.57.05-.1 0-.16.05-.16.15 0 .1.11.1.31.1.57.06 1.75.01 1.85.01.16 0 2.06.1 2.48.1 3.24.01 4.84-2.1 4.84-4.1.01-3.5-3.29-4.08-5.35-4.08-.51 0-.87-.05-1.02-.05-.16 0-.26-.11-.26-.21l.01-4.99c0-.1.1-.15.2-.15zm-.21 6.07c0-.16.05-.16 1.18-.15.67 0 1.29.05 2.01.56 1.44.98 1.84 2.68 1.84 3.82 0 2.11-1.65 2.67-2.68 2.67-.36 0-1.18-.06-1.69-.26-.57-.31-.67-.67-.67-2.06zm11.78 1.2c-.05 0-.1-.05-.05-.15l1.65-5.1c.06-.1.11-.2.16-.2s.1.05.15.21l1.8 5.09c0 .11 0 .16-.11.16zm22.03-2.48c0-2.99.01-3.5.06-4.12.05-.67.21-.98.72-1.08.21-.05.31-.05.46-.05.06 0 .16-.05.16-.1 0-.11-.1-.16-.31-.16-.57 0-1.75.05-1.85.05-.1 0-1.29-.05-2.16-.05-.21 0-.31.05-.31.15 0 .05.1.1.15.1.16 0 .52 0 .67.06.62.15.77.46.77 1.08.05.62.05 1.33.05 4.32v.36c0 .1-.06.15-.11.15l-8.03-.01c-.05 0-.1-.05-.1-.15v-.36l.01-4.33c.05-.67.21-.97.72-1.08.21-.05.36-.05.46-.05.11 0 .16-.05.16-.1 0-.1-.1-.15-.31-.15-.57-.01-1.75.04-1.85.04-.11 0-1.29-.05-2.11-.05-.21 0-.31.05-.31.15 0 .05.05.11.15.11.16 0 .47 0 .62.05.62.15.77.46.82 1.08.05.62.05 1.13.05 4.12l-.01 3.29c0 1.8-.01 3.3-.11 4.12-.1.51-.16.92-.57 1.03-.15.05-.41.05-.56.05h-.11c-.2 0-.46-.01-.77-.11-.36-.1-.92-.41-1.59-2.11-1.18-2.83-4.1-10.66-4.41-11.38-.2-.62-.3-.67-.41-.67-.1 0-.15.1-.41.72l-4.29 11.73c-.36.97-.72 1.64-1.6 1.79h-.57c-.1 0-.15.05-.15.16 0 .1.1.1.36.1.87.05 1.9 0 2.11 0 .21-.05 1.03.01 1.49.01.16 0 .31 0 .31-.11 0-.1-.1-.15-.2-.15h-.21c-.31 0-.72-.16-.72-.52s.1-.82.26-1.28l1.14-3.35c.05-.1.1-.15.2-.15l4.07.01c.1 0 .15.05.15.1l1.8 4.69v.25c0 .16-.11.26-.16.26a.1.1 0 0 0-.1.1c0 .11.2.11.56.16H107.46c.57.06 1.75.01 1.85.01.11-.05 1.29 0 2.37 0 .21 0 .26-.05.26-.1 0-.1 0-.15-.16-.16-.15 0-.56 0-.82-.05-.57-.1-.67-.52-.72-1.03-.1-.82-.1-2.31-.09-4.12v-1.75c0-.1.05-.15.1-.15l8.03.01c.05 0 .1.06.1.16v1.75c0 1.8-.01 3.29-.11 4.11-.05.52-.16.93-.52 1.03-.2.06-.41.06-.56.05-.16 0-.16.06-.16.16s.05.1.31.1c.57.05 1.75 0 1.85 0 .11-.05 1.29.01 2.32.01.2 0 .31-.05.31-.1 0-.11-.05-.16-.16-.16-.15 0-.61 0-.87-.05-.57-.11-.67-.52-.72-1.03-.1-.83-.1-2.32-.1-4.12zm4.37 3.3c0 1.8-.01 3.29-.11 4.12-.05.51-.16.92-.52 1.02-.2.06-.41.06-.56.05-.16 0-.16.05-.16.16 0 .1.05.1.26.1.62.05 1.7 0 1.85 0 .16-.05 1.24.01 2.16.01.21 0 .31-.05.31-.1 0-.11-.05-.16-.15-.16-.21 0-.47 0-.77-.05-.57-.11-.67-.52-.72-1.03-.1-.83-.1-2.32-.1-4.12l.01-1.85h.1a97.31 97.31 0 0 0 5.75 6.13c.82.67 1.29 1.09 2.31 1.19h2.27c.31 0 .41-.05.41-.1 0-.1-.1-.15-.25-.15-.11 0-.68 0-1.19-.21-.87-.41-1.23-.72-2.77-2.17-.83-.72-4.73-4.79-5.24-5.36.41-.46 3.71-3.65 4.17-4.11.88-.82 1.29-1.28 2.06-1.64.36-.16.77-.26 1.08-.26.16 0 .16-.05.16-.15 0-.05-.05-.1-.26-.1-.46-.01-1.75.04-1.85.04-.41 0-1.03-.05-1.39-.05-.15 0-.21.05-.21.1 0 .1.06.16.16.16.15.05.25.2.25.41 0 .31-.51.82-1.03 1.39a445 445 0 0 1-4.43 4.52h-.1V9.86c0-2.94 0-3.45.06-4.07.05-.67.2-.98.72-1.08.2-.05.31-.05.46-.05.05 0 .16-.05.16-.1 0-.11-.11-.16-.31-.16-.57 0-1.65.05-1.86.05-.1 0-1.18-.05-2.05-.05-.21 0-.31.05-.31.15 0 .05.1.1.15.1.16 0 .52 0 .67.06.62.15.77.46.77 1.08.05.61.05 1.13.04 4.06zM39.9 12.13l1.65-5.09c.06-.11.11-.21.16-.21s.1.05.15.21l1.8 5.09c0 .11 0 .16-.11.16l-3.6-.01c-.05 0-.1-.05-.05-.15zM21.96 13.16c-1.53-1.1-4.44-2.07-4.44-2.07L12.57.01 8.08 0v.98h.47s.55.01 1 .4c.26.23.69 1.09 1.01 1.72l3.31 7.72s-4.47-.1-8.05 2.66C1.54 16.77 0 22.02 0 22.02l6.09.01.01-.94-.99-.01a.79.79 0 0 1-.62-.28c-.34-.5.09-1.49.35-2.09.26-.58 1.16-2.61 3.58-4.49 2.63-2.06 5.9-2.37 5.9-2.37l2.11 5.13s1.12 2.61 2.29 3.81a4.3 4.3 0 0 0 3.59 1.48c1.17 0 3.67-.52 3.68-3.66 0-2.56-2.82-4.58-4.03-5.45zm-.81 5.94c-.49-1.05-3.15-7-3.15-7s2.34.62 4.09 1.72c1.4.87 3.65 2.68 3.63 4.6a2.43 2.43 0 0 1-2.36 2.37c-1.05-.02-1.71-.65-2.21-1.69z"/></svg>