<svg xmlns="http://www.w3.org/2000/svg" width="146" height="26" viewBox="0 0 146 26"><path fill="#777776" d="M128.01 24.13l-1.16-.63C122.5 21.1 120 17 120 12.26c0-4.84 2.63-9.29 6.85-11.62l1.16-.64zm-6.45-11.87c0 3.72 1.77 6.99 4.89 9.15V2.74a11.7 11.7 0 0 0-4.89 9.52zM132.27 0c-2.54 0-3.27.43-3.27.43V25l.38.23a5.2 5.2 0 0 0 2.72.71 6.4 6.4 0 0 0 1.78-.24l.54-.17V12.94h2.15v-1.57h-3.71v12.95c-.56.08-1.46.13-2.3-.23V1.69c.56-.08 1.13-.13 1.71-.13 6.47 0 11.73 4.87 11.73 11.33 0 5.1-3.27 9.05-7.82 10.67v1.64c5.42-1.67 9.38-6.34 9.38-12.31C145.56 5.57 139.6 0 132.27 0"/><path fill="#777776" d="M135 9h2.25l2.76 2.76-2.79 2.78h-1.98l2.54-2.81L135 9M43 5h5.2c1.03 0 1.8.04 2.3.13a3.33 3.33 0 0 1 2.36 1.62c.27.45.4.96.4 1.52a3.13 3.13 0 0 1-1.83 2.83c.79.23 1.4.62 1.83 1.18.43.55.64 1.21.64 1.96 0 .59-.14 1.17-.41 1.73-.28.55-.65 1-1.13 1.34a3.7 3.7 0 0 1-1.76.61 41 41 0 0 1-3.17.09H43zm2.63 2.17v3.01h1.72c1.02 0 1.66-.02 1.91-.05.45-.05.8-.21 1.06-.47.26-.25.38-.59.38-1.01 0-.4-.11-.73-.33-.98a1.5 1.5 0 0 0-.99-.46c-.26-.03-1.01-.04-2.24-.04zm0 8.65h2.43c.95 0 1.55-.03 1.8-.08.39-.07.71-.24.96-.52.24-.28.36-.64.36-1.11 0-.39-.09-.72-.28-.99a1.65 1.65 0 0 0-.82-.6 9.27 9.27 0 0 0-2.33-.18h-2.12zM56 18.01V5h9.65v2.2h-7.02v2.88h6.53v2.2h-6.53v3.54h7.27v2.19H56M68 5.09h2.63v5.54c.58-.06.98-.21 1.19-.46.21-.24.52-.91.96-2.02.54-1.41 1.09-2.28 1.64-2.63a5.13 5.13 0 0 1 2.63-.51l.39-.01v1.94h-.38c-.54 0-.93.06-1.18.2-.25.13-.45.33-.6.6-.15.28-.38.83-.68 1.68-.16.45-.34.83-.52 1.13-.19.3-.52.58-.99.85.58.17 1.07.5 1.45 1 .38.51.8 1.22 1.25 2.13l1.78 3.57h-3.09l-1.55-3.36a4.4 4.4 0 0 1-.15-.28c-.04-.04-.14-.25-.33-.61a4.06 4.06 0 0 0-.83-1.2 1.75 1.75 0 0 0-.99-.25v5.7H68V5.09M82.86 18.01V7.2H79V5h10.34v2.2h-3.85v10.81h-2.63M90 11.81c0-1.33.2-2.44.6-3.34a5.8 5.8 0 0 1 2.89-2.95 7.03 7.03 0 0 1 2.8-.52c1.92 0 3.46.6 4.61 1.79 1.15 1.19 1.72 2.84 1.72 4.96 0 2.1-.57 3.74-1.71 4.93a6.09 6.09 0 0 1-4.58 1.78 6.16 6.16 0 0 1-4.62-1.77C90.57 15.51 90 13.88 90 11.81zm3.73 3.26a3.32 3.32 0 0 0 2.59 1.14 3.3 3.3 0 0 0 2.58-1.13c.67-.75 1.01-1.89 1.01-3.39 0-1.5-.33-2.61-.98-3.34a3.32 3.32 0 0 0-2.61-1.1c-1.08 0-1.95.37-2.62 1.11-.66.74-.99 1.86-.99 3.36 0 1.47.34 2.59 1.02 3.35zM104 18.01V5h4.22c1.59 0 2.64.06 3.12.19.75.2 1.37.62 1.87 1.28.51.65.76 1.5.76 2.53 0 .8-.15 1.47-.44 2.02a3.65 3.65 0 0 1-2.46 1.9c-.63.12-1.54.18-2.73.18h-1.71v4.91zm2.63-7.12h1.44c1.03 0 1.72-.07 2.07-.2.35-.14.62-.35.82-.64.2-.29.3-.63.3-1.01 0-.48-.14-.87-.42-1.17a1.8 1.8 0 0 0-1.05-.58c-.32-.06-.95-.09-1.89-.09h-1.27zM0 5h2.7v4.91h5.08V5h2.7v12.92h-2.7v-5.77H2.7v5.77H0V5M13 5h2.59v8.8h.04L20.74 5h2.74v12.92h-2.6V9.18h-.03l-5.11 8.74H13V5M26 5h2.59v8.8h.04L33.74 5h2.73v12.92h-2.59V9.18h-.03l-5.11 8.74H26V5"/></svg>