<svg xmlns="http://www.w3.org/2000/svg" width="76" height="86" viewBox="0 0 76 86"><defs><linearGradient id="a" x1="1267.39" x2="1321.39" y1="2556" y2="2556" gradientUnits="userSpaceOnUse"><stop offset="0" stop-color="#6a5327"/><stop offset=".58" stop-color="#8d8235"/><stop offset="1" stop-color="#fceaa4"/></linearGradient></defs><path fill="#fdd74a" d="M45.65 38.37L21.4 31.3 41.7 2.64s-3.12-1.01-5.33-1.38c-2.2-.37-4.87-.46-8.26.46-3.4.92-7.26 3.22-9 5.33C17.36 9.07 7.08 23.76 4.5 27.53a25.28 25.28 0 0 0-2.29 3.95 16.05 16.05 0 0 0-1.2 6.61 7.19 7.19 0 0 0 4.5 5.97l26.82 7.9c4.78 1.38 10.75-.09 13.13-1.47.1 0 .1 0 .19-.09a24.25 24.25 0 0 0 7.8-6.89l1.57-2.39-9.37-2.75"/><path fill="#fdd74a" d="M45.46 4.09L45.18 4 36 17.04l9.46 2.85 4.87 1.38-4.87 6.88-3.95 5.61 3.95 1.19 11.66 3.4 18-25.53-29.66-8.73"/><path fill="#fdeaa4" d="M41.67 2.28L21.38 30.93H20L40.48 2l1.19.28M75.64 12.09c-.45 0-1.01-.09-1.46-.09L57 36.15l.64 1.48 18-25.54"/><path fill="#918235" d="M51.34 20.22L37.01 16l-1.01.92 14.33 4.22 1.01-.92M57.61 38.51l-.64-1.47L43.01 33l-1.01.92 15.61 4.59"/><path fill="url(#a)" d="M1321.02 2556.77l-1.57 2.38a24.69 24.69 0 0 1-7.99 6.98c-2.38 1.38-8.35 2.85-13.13 1.47l-26.82-7.9a7.19 7.19 0 0 1-4.5-5.97c-.09-2.02.28-4.31 1.2-6.61h.09v-.18h.09v-.19l.09-.09v-.09l.09-.09v-.09l.1-.1v-.09l.09-.09v-.18h.09v-.09l.09-.1v-.18h.09v-.09l.1-.09v-.1l.09-.09v-.09h.09v-.09l.09-.09v-.09l.09-.1v-.09h.09v-.18h.1v-.09l.09-.1v-.09h.09v-.18h.09l-.18.37c-5.33 9.27-.28 13.04 1.1 13.87 1.29.82 24.98 7.53 28.01 8.35 6.15 1.66 14.6-1.93 18.46-6.98.46-.73 2.02-2.84 2.02-2.84h1.66" transform="translate(-1266 -2516)"/><path fill="#fbd74a" d="M21.47 31l33.52 9.83h-1.65L20 31h1.47"/><path fill="#b49d45" d="M21.47 31l33.52 9.83h-1.65L20 31h1.47"/><path fill="#6e682e" d="M50.82 20.92L42 33.41l1.01-.92L51.83 20l-1.01.92"/><path fill="#00406d" d="M16.49 65.7h2.85c.64 0 1.1.19 1.37.37.28.28.46.55.46 1.01 0 .28-.09.65-.36.92-.19.28-.37.46-.74.64-.18.09-.46.09-.82.19h-3.5zm.92-4.86h1.93c.64 0 1.01 0 1.19.09.37 0 .55.27.73.46.19.18.28.37.28.64 0 .28-.09.55-.28.83-.18.36-.45.55-.82.64a4.2 4.2 0 0 1-1.19.18h-2.39zm1.1 9.82h.74c.82 0 1.65-.18 2.11-.36a3.6 3.6 0 0 0 1.65-1.38 3.9 3.9 0 0 0 .55-2.02c0-.55-.09-1.01-.46-1.38-.27-.55-.73-.83-1.47-1.01a2.94 2.94 0 0 0 1.75-1.01c.09-.18.18-.28.27-.37.19-.46.28-.92.28-1.37 0-.46-.09-.83-.28-1.29 0 0-.09 0-.09-.09a2.58 2.58 0 0 0-.83-.92 4.32 4.32 0 0 0-1.47-.46h-5.87l-2.02 9.83-.37 1.83zM56.08 63.32c-.27.27-.55.55-1.01.73-.18 0-.55.09-.92.09-.45.1-1.01.1-1.65.1h-.73l.73-3.4h1.65c.83 0 1.38 0 1.56.09.19.18.37.27.56.46.09.18.18.37.18.64 0 .46-.18.83-.37 1.29zm2.39.27c.27-.55.37-1.1.37-1.74 0-.55-.19-1.2-.46-1.66-.09-.18-.28-.36-.46-.55-.18-.18-.46-.27-.74-.37a5.43 5.43 0 0 0-1.93-.27h-4.77L48 70.66h2.48l.83-4.5h3.76c.64-.09 1.1-.27 1.47-.36.37-.19.74-.46 1.1-.83.1-.09.19-.19.28-.37.27-.27.37-.64.55-1.01zM29.52 63.13l1.01-1.74.74 4.77h-3.49zm-4.04 7.53l1.38-2.57h4.68l.37 2.57h2.29L32.28 59h-2.67l-.09.18-6.15 10.93-.37.55zM61.78 66.16l1.74-3.03 1.01-1.74.64 4.77zM63.61 59l-.09.09-5.6 9.92-.92 1.65h2.48l1.47-2.57h4.5l.55 2.57h2.11L66.37 59zM6.4 65.61c.73 0 1.1.28 1.28.64.28.46.37.74.37.74l1.01 3.67h2.48l-1.1-3.67c-.09-.09-.09-.18-.09-.18-.28-1.11-.74-1.93-1.56-2.12.45-.09.82-.36 1.19-.73a13.3 13.3 0 0 0 1.56-2.39c.19-.37.37-.73.55-.83.19-.09.37-.09.65-.09h.36l.19-.55.45-1.1h-.73c-.73 0-1.28 0-1.65.18-.37.19-.83.46-1.11.74-.27.37-.73 1.01-1.28 2.02-.46.92-.83 1.56-1.19 1.74-.19.19-.56.28-1.01.28L7.78 59h-2.3L3 70.66h2.39l1.01-5.05M38.68 68.73a36.1 36.1 0 0 0 2.67-7.89h3.4L43 68.73zm4.78 5.24h1.93l1.1-5.24h-1.1L47.5 59h-8.17a30.79 30.79 0 0 1-3.22 9.73H35.1L34 73.97h1.93l.64-3.31h7.53zM18.19 75.55h1.02c.27 0 .45 0 .55.09.09 0 .18.09.18.09.09.1.09.19.09.37s-.09.28-.18.46c-.09.09-.19.19-.37.27-.09.1-.27.1-.46.1h-1.1zm.65 1.84h.18c.19 0 .28 0 .55-.09.09 0 .19-.09.28-.09.18-.1.27-.19.37-.28.09-.1.18-.18.18-.37.09-.18.09-.37.09-.46 0-.18 0-.37-.09-.55-.09-.27-.18-.37-.37-.37-.09-.09-.37-.18-.64-.18h-1.66L17 79.04h.46l.37-1.65zM16.58 75.55l.09-.55h-2.84L13 79.04h3.03l.09-.46h-2.48l.28-1.37h2.2l.09-.46h-2.2l.18-1.2h2.39M47.76 75.55h.73l-.28 1.28h-.73c-.37 0-.55 0-.73-.08-.1 0-.19-.1-.28-.19 0-.09-.09-.18-.09-.28 0-.18.09-.27.18-.45.09-.1.19-.19.37-.19.09-.09.28-.09.55-.09h.28zm-1.66.09c-.27.19-.27.46-.27.64 0 .28.18.47.27.65.19.18.37.28.74.28-.28.09-.46.27-.74.73l-1.1 1.1h.73l1.02-1.1c.18-.28.36-.46.46-.55 0-.09.09-.09.18-.09h.09c.09 0 .18-.09.37-.09h.27l-.36 1.83h.55l.91-4.04h-1.74c-.46.09-.73.09-.92.18-.18.1-.37.19-.46.46zM28.55 78.67s-.18 0-.36-.09l-.1.46h.55c.19 0 .28 0 .37-.09.18-.09.28-.28.46-.46l.28-.46 1.56-2.66.18-.37h-.55l-1.19 2.3-.19.36L28.55 75H28l1.1 3.12-.09.09c-.18.28-.27.46-.46.46"/><path fill="#00406d" d="M26.29 75.55h.91c.37 0 .55 0 .65.09.09 0 .18.09.18.09.09.1.09.19.09.37s-.09.28-.18.46c-.09.09-.19.19-.37.27-.09.1-.37.1-.55.1h-1.1zm.55 1.84h.18c.18 0 .37 0 .64-.09.09 0 .19-.09.28-.09.09-.1.27-.19.37-.28.09-.1.18-.18.18-.37.09-.18.09-.37.09-.46 0-.18 0-.37-.09-.55-.09-.27-.18-.37-.37-.37-.09-.09-.37-.18-.64-.18h-1.65L25 79.04h.55l.37-1.65zM24.03 79.04l.92-4.04h-.55l-2.67 3.12.65-3.12h-.46L21 79.04h.46l2.75-3.03-.64 3.03h.46M33.49 81.46l-.28 1.38h-.82c-.28 0-.46-.09-.65-.09h-.09c-.09 0-.18-.1-.27-.19 0-.09-.09-.18-.09-.28 0-.18.09-.36.18-.45l.27-.28c.1 0 .1 0 .1-.09h.92zm-2.02-.37c-.18.09-.37.28-.46.46-.18.28-.18.46-.18.73 0 .28.09.47.18.56.18.18.37.27.73.36-.27.1-.45.28-.73.65l-.83.92-.18.18h.74l.91-1.1.09-.09c.19-.19.28-.28.28-.37.09-.09.18-.09.28-.19H33.12l-.36 1.75h.55l.73-3.95h-2.3c-.09.09-.18.09-.27.09zM8.3 75.55h1.19l.09-.55H6.73l-.36 1.75-.19 1.28L6 79.04h2.94l.09-.46H6.55l.28-1.37h2.29l.09-.46H6.92l.27-1.2H8.3M29.95 81h-.46l-2.76 3.12.65-3.12h-.46l-.64 2.85-.28 1.1h.46l2.75-2.94-.64 2.94h.46l.74-3.03.18-.92M19.47 83.39l.64-1.11c.19-.27.28-.54.37-.82 0 .28.09.64.09 1.01l.19.92zm.64-2.21l-1.38 2.58-.55.91-.18.28h.64l.09-.18.56-.83h1.47l.18 1.01h.64L20.85 81h-.64zM41.87 75.73l.18-.73h-.46l-.73 3.58h-1.38l.73-3.58h-.46l-.73 3.58h-1.38l.83-3.58h-.64L37 79.04h4.13l-.09.83h.37l.27-1.29h-.36l.55-2.85M43.38 77.48l.73-1.2c.19-.27.28-.55.37-.73 0 .28.09.55.09.92l.18 1.01zm.73-2.11l-2.02 3.4-.09.27h.55l.64-1.1h1.66l.18 1.1h.46L44.85 75h-.55zM35.68 77.75c-.09.28-.27.46-.55.65-.18.18-.36.27-.55.27h-.18c-.37 0-.55-.09-.83-.27a1.7 1.7 0 0 1-.28-1.01c0-.56.1-1.01.46-1.38.28-.37.55-.55.83-.55.09 0 .19-.09.28-.09.27 0 .45.18.73.46.19.18.28.45.28.92 0 .36-.09.64-.19 1zM34.58 75c-.37.09-.83.18-1.1.55-.28.28-.55.73-.64 1.28h-.74l.37-1.83h-.64l-.65 3.12-.18.92h.55l.37-1.74h.82v.09c0 .45.19.92.46 1.19.19.37.65.55 1.1.55h.28c.46-.09.83-.27 1.2-.64.36-.46.54-1.1.54-1.74 0-.47-.09-.83-.36-1.2a1.32 1.32 0 0 0-1.1-.55h-.28zM25.03 82.65h-2.02l.27-1.65h-.45L22 84.95h.55l.37-1.84h2.02l-.37 1.84h.55l.74-3.95h-.46l-.37 1.65M6.4 81.28l.09-.28h-.64c-.19.09-.28.18-.37.28-.09.09-.19.27-.46.73-.09.18-.28.27-.37.46l-.27.28h-.37L4.38 81h-.55L3 84.95h.55l.37-1.84a.7.7 0 0 1 .46.19c.09.09.27.36.36.82l.37.83h.64l-.36-1.01c-.28-.55-.55-.92-.83-1.01a.5.5 0 0 0 .46-.28c.27-.09.37-.37.64-.64.09-.18.19-.46.28-.55 0 0 .09-.09.18-.09l.09.09h.19v-.18M4.19 75.55h2.12L6.4 75H3.83L3 79.04h.55l.64-3.49"/><path fill="#00406d" d="M18.86 81h-3.13L15 84.95h.46l.82-3.49h2.02l-.73 3.49h.46l.73-3.31.1-.64M9.12 83.48c-.09.27-.18.55-.36.74-.1.18-.28.27-.46.36-.19.09-.28.09-.37.19h-.18c-.28 0-.46-.1-.65-.19a1.13 1.13 0 0 1-.46-.46c-.09-.18-.09-.46-.09-.73 0-.55.19-1.01.46-1.29.28-.37.55-.55.92-.55 0-.09.09-.09.18-.09.37 0 .65.09.83.46.18.18.27.46.27.83 0 .27 0 .54-.09.73zM7.93 81c-.55.09-.92.37-1.29.64-.27.37-.55.83-.64 1.29v.82l.28.56c.09.27.27.46.55.64a2 2 0 0 0 .92.18h.18c.18 0 .37-.09.64-.18.19-.09.37-.18.55-.37.19-.18.28-.36.37-.64.18-.37.28-.74.28-1.1 0-.56-.19-.92-.46-1.38a1.6 1.6 0 0 0-1.2-.46h-.18zM11.94 77.11l-.37 1.93h.55l.83-4.04h-.55l-.37 1.75h-2.02l.37-1.75h-.55L9 79.04h.55l.37-1.93h2.02M13.95 81l-1.47 2.48c-.27.46-.37.83-.55 1.1 0-.27 0-.64-.09-1.01L11.47 81h-.64L10 84.95h.55l.55-2.48c0-.19 0-.46.09-.92 0 .46 0 .64.09.92l.37 2.48h.46l1.56-2.57c.1-.28.28-.55.37-.83-.18.55-.27 1.1-.37 1.47l-.45 1.93h.55l.82-3.95h-.64"/></svg>