<svg xmlns="http://www.w3.org/2000/svg" width="100" height="20" viewBox="0 0 100 20"><path fill="#6f8f9d" d="M0 19.94h2.28v-6.85h2.97v6.85h2.28V11H0v8.94M37.35 14.38h-3.07V11H32v8.94h2.28v-3.43h3.07v3.43h2.27V11h-2.27v3.38M45.27 16.47h4.03V14.4h-4.03v-1.33h4.58V11H43v8.94h6.91v-2.07h-4.64v-1.4M52 13.13h2.6v6.81h2.28v-6.81h2.6V11H52v2.13M83.25 16.15V11H81v8.94h2.07l3.43-5.14v5.14h2.26V11h-2.05l-3.46 5.15M12.48 11h-.16L10 19.94h2.33l1.78-6.85h2.12v6.85h2.27V11h-6.02M62.32 11L60 19.94h2.33l.69-2.64h3.31l.69 2.64h2.32L67.02 11zm1.23 4.23l.57-2.17h1.11l.56 2.17zM22.32 11L20 19.94h2.33l.69-2.64h3.31l.69 2.64h2.32L27.02 11zm1.23 4.23l.57-2.17h1.11l.56 2.17zM97.71 11l-3.46 5.15V11H92v8.94h2.07l3.43-5.14v5.14h2.26V11h-2.05M94 9.95h3.86V8H94zM71 11v8.94h2.27v-3.48h5.49V11zm2.27 2.06h3.43v1.34h-3.43zM.5 1.75l1.72 2.32h.03l1.67-2.32v3.54h.5V1h-.45L2.25 3.39.47 1H0v4.29h.5V1.75M15.5 3.23c0-1.29-.91-2.23-2.25-2.23C11.92 1 11 1.94 11 3.23s.92 2.23 2.25 2.23c1.34 0 2.25-.94 2.25-2.23zm-.52 0c0 1.04-.72 1.77-1.73 1.77-1 0-1.73-.74-1.73-1.77 0-1.04.74-1.76 1.73-1.76 1.01 0 1.73.73 1.73 1.76zM24.27 5.46c.63 0 1.26-.23 1.62-.69l-.25-.36c-.29.34-.78.59-1.33.59-1 0-1.78-.68-1.78-1.77a1.7 1.7 0 0 1 1.68-1.76c.5 0 .98.12 1.36.47l.24-.41C25.4 1.14 24.8 1 24.14 1 22.92 1 22 1.98 22 3.23c0 1.36.94 2.23 2.27 2.23M33 5.29h.5V1H33zM36.89 5.29L34.6 3.05 36.72 1h-.64L34 3.08l2.22 2.21h.67M47.5 3.23c0-1.29-.91-2.23-2.25-2.23C43.92 1 43 1.94 43 3.23s.92 2.23 2.25 2.23c1.34 0 2.25-.94 2.25-2.23zm-.52 0c0 1.04-.72 1.77-1.73 1.77-1 0-1.73-.74-1.73-1.77 0-1.04.74-1.76 1.73-1.76 1.01 0 1.73.73 1.73 1.76zM56.29 3.11v-.02a.98.98 0 0 0 .87-.98c0-.79-.61-1.11-1.78-1.11-.58 0-1.01.03-1.38.03v4.29c.39 0 .87.03 1.4.03 1.28 0 1.92-.43 1.92-1.21 0-.57-.3-.92-1.03-1.03zm-1.8-1.62l.95-.02c.65 0 1.19.14 1.19.71 0 .46-.38.76-1 .76h-1.14zm1.03 1.86c.86 0 1.27.23 1.27.74 0 .54-.46.79-1.33.79l-.97-.02V3.35zM66.27 5.46c.63 0 1.26-.23 1.62-.69l-.25-.36c-.29.34-.78.59-1.33.59-1 0-1.78-.68-1.78-1.77a1.7 1.7 0 0 1 1.68-1.76c.5 0 .98.12 1.36.47l.24-.41C67.4 1.14 66.8 1 66.14 1 64.92 1 64 1.98 64 3.23c0 1.36.94 2.23 2.27 2.23M74 5.29h.5V1H74zM77.89 5.29L75.6 3.05 77.72 1h-.64L75 3.08l2.22 2.21h.67M87.36 1.72v3.57h.49V1h-.49L84.5 4.58V1H84v4.29h.5l2.86-3.57M98.36 1.72v3.57h.49V1h-.49L95.5 4.58V1H95v4.29h.5l2.86-3.57M96 .4h1.79V0H96z"/></svg>