<svg xmlns="http://www.w3.org/2000/svg" width="72" height="45" viewBox="0 0 72 45"><path fill="#059b4d" d="M60.58 37.24l-.8.51L57 33.4l.71-.45.34.54a1.38 1.38 0 0 1 .64-1.23c.4-.26.81-.32 1.21-.2.41.13.77.44 1.1.96.35.55.47 1.06.36 1.52-.1.38-.32.68-.68.91a1.3 1.3 0 0 1-.65.22c-.18 0-.35-.04-.53-.12l.33.5zm-1.15-2.25c.24.09.45.07.65-.06a.7.7 0 0 0 .32-.56c.03-.25-.06-.52-.24-.82a1.4 1.4 0 0 0-.64-.56.68.68 0 0 0-.65.06.7.7 0 0 0-.32.56c-.03.25.05.52.24.82.19.28.4.47.64.56zM53.24 35.51L53 34.8a3.16 3.16 0 0 1 1.2-.66c.63-.21 1.13-.19 1.48.07.21.15.37.4.49.76l.73 2.18-.89.3-.17-.51c-.04.26-.18.48-.4.66-.14.11-.31.2-.51.27-.42.14-.78.13-1.08-.03a1.04 1.04 0 0 1-.5-.62c-.11-.33-.08-.63.08-.89.21-.34.62-.61 1.26-.82l.26-.09.24-.08.08-.03-.05-.14c-.07-.2-.19-.33-.37-.37a.97.97 0 0 0-.6.04c-.19.06-.36.14-.52.24-.16.1-.32.25-.49.43zm2.06.42c-.36.12-.61.23-.75.32-.27.18-.37.4-.28.65.04.13.11.23.22.28.12.06.28.06.48-.01a.86.86 0 0 0 .51-.39c.11-.22.11-.49.01-.81l-.03-.09zM48.41 35.45l2.83-.45.46 2.91.59-.09.26 1.63-.87.13-.15-.93-2.55.4.15.93-.87.14-.26-1.63.41-.06c.12-.2.2-.43.25-.68a3.9 3.9 0 0 0-.06-1.13zm2.34 2.61l-.35-2.22-1.04.17.08.54.03.19c.05.3.07.55.06.74a1.8 1.8 0 0 1-.21.8zM45.73 35.28l-.51 3.62-.95-.14.19-1.36-.43-.06-.9 1.26-1.13-.16 1.11-1.34c-.28-.12-.48-.3-.59-.54-.09-.2-.12-.4-.09-.63.05-.29.19-.53.43-.7.27-.2.6-.27 1-.21zm-1.67.41a.56.56 0 0 0-.43.08.46.46 0 0 0-.21.35c-.02.14.02.26.11.38.1.11.23.18.39.21l.63.09.14-1.02zM38.07 34l.91.28-.38 1.24.71.22c.56.17.92.42 1.09.76.11.25.13.51.04.81-.1.31-.28.54-.55.67-.32.17-.72.18-1.2.03L37 37.49zm.03 3.17l.58.17c.21.06.39.06.54-.02a.46.46 0 0 0 .26-.3.55.55 0 0 0-.03-.4.81.81 0 0 0-.46-.32l-.57-.17zM34.32 32l1.67.65c.3.11.52.25.67.4.25.26.31.55.18.89a.83.83 0 0 1-.39.45.9.9 0 0 1-.54.07c.22.09.37.25.46.46.09.21.09.44-.01.69a.9.9 0 0 1-.6.57c-.29.08-.64.05-1.04-.11L33 35.4zm.67.94l-.29.74.55.21c.19.07.33.09.43.07.1-.03.17-.11.22-.24.05-.12.05-.23-.01-.32-.05-.09-.17-.18-.35-.25zm-.87 2.22l.57.22c.15.06.27.09.36.09.19 0 .33-.1.41-.3.06-.16.06-.29-.01-.4-.07-.11-.2-.2-.41-.28l-.57-.22zM28.16 31.24c.21-.53.53-.9.96-1.1.44-.19.93-.19 1.48.03.55.21.92.54 1.11.98.18.44.17.92-.03 1.45-.21.53-.53.9-.97 1.1-.43.19-.92.19-1.47-.03a1.85 1.85 0 0 1-1.11-.98c-.18-.44-.17-.92.03-1.45zm.85 1.27c.07.25.24.43.48.52a.8.8 0 0 0 .7-.06c.23-.14.42-.38.55-.73.14-.35.17-.65.09-.91a.78.78 0 0 0-.48-.52.79.79 0 0 0-.7.06 1.4 1.4 0 0 0-.56.73c-.13.35-.16.66-.08.91zM22.93 33.23l-.93-.24L23.32 28l.81.21-.16.62a1.38 1.38 0 0 1 1.34-.36c.46.12.78.37.96.76.18.38.2.86.04 1.45-.16.64-.46 1.07-.88 1.3-.34.19-.71.22-1.12.12a1.35 1.35 0 0 1-.61-.34 1.3 1.3 0 0 1-.27-.46l-.14.58zm.86-2.37c.1.24.26.38.49.44a.7.7 0 0 0 .63-.14c.2-.15.35-.4.44-.74.08-.33.08-.61-.02-.84a.72.72 0 0 0-.48-.45.73.73 0 0 0-.64.15c-.2.15-.34.39-.43.73-.09.33-.08.61.01.85zM18.03 28.62c.08-.56.31-.99.69-1.28.38-.29.86-.4 1.44-.31.59.08 1.02.32 1.3.7.28.39.38.87.3 1.43-.08.56-.31.99-.69 1.28-.38.29-.86.4-1.44.31a1.84 1.84 0 0 1-1.3-.7 1.9 1.9 0 0 1-.3-1.43zm1.11 1.05c.13.23.33.36.59.4.25.04.47-.04.66-.22.2-.18.33-.46.38-.83.05-.37.01-.67-.12-.9a.78.78 0 0 0-.58-.41.79.79 0 0 0-.68.22 1.4 1.4 0 0 0-.37.83c-.06.38-.02.68.12.91zM12.53 27.34l2.84-.34.35 2.93.59-.07.2 1.63-.88.11-.11-.94-2.56.3.11.94-.88.1-.19-1.63.41-.05c.13-.2.22-.42.27-.67.05-.26.05-.63-.01-1.14zm2.24 2.7l-.27-2.23-1.05.13.06.54.03.19c.03.31.05.55.03.74-.02.29-.1.56-.24.8zM8.22 31.35l-.21-.64.47-.15c.2-.07.33-.16.38-.27.04-.08.04-.16.01-.26a.35.35 0 0 0-.21-.22c-.12-.05-.29-.03-.51.04a2.48 2.48 0 0 0-.92.55L7 29.74a3.61 3.61 0 0 1 1.09-.6c.51-.17.92-.18 1.21-.05.22.1.37.27.45.51a.8.8 0 0 1-.02.63.87.87 0 0 1-.32.34c.21-.02.39-.01.54.05.25.08.41.26.5.52.1.29.05.58-.13.86-.21.32-.58.56-1.08.72a3.15 3.15 0 0 1-1.4.15l-.14-.68a3.38 3.38 0 0 0 1.29-.11.96.96 0 0 0 .42-.27.43.43 0 0 0 .07-.41.38.38 0 0 0-.23-.25c-.14-.05-.33-.04-.56.04l-.47.16"/><path fill="#059b4d" d="M0 42.31c2.87-2.39 5.55-4.13 9.1-5.3 12.41-4.1 21.47 4.54 33.11 6.82 11.2 2.19 19.54-2.18 24.4-9.89 3.96-6.29 5.07-13.63 4.9-20.94-1.12 13.33-5.82 23.37-14.95 26.76-18.55 6.89-30.5-10.03-45.49-5.43-4.59 1.4-8.15 4.2-11.07 7.98"/><path fill="#059b4d" d="M3 28.03c.02-8.89 2.49-19.02 9.26-24.35C18.18-.99 24.52-.1 31.36.81c4.93.66 10.96 1.48 15.38 1.45 2.18-.02 4.53-.13 6.3-1.78-.04 1.41-1.02 3.41-2.09 4.57 5.23.09 13.09.24 17.28-5.05 1.04 8.58-1.08 17.06-5.69 22.96a20.5 20.5 0 0 1-14.36 7.94c-9.68.85-19.01-5.15-28.28-7.21C13.46 22.26 7.76 23 3 28.03"/><path fill="#fff" d="M28 24.03c7.12 1.35 15.08 3.11 20.91-.03-2.41 7.68-13.32 3.57-20.91.03M50.3 16.3c0 .68.03 1.37.73.72.26-.21.41-.02.33.27-.1.33-.45.69-.85.93-.45.27-1.04.44-1.49.08-.27-.22-.4-.57-.47-.92-.5.8-1.65 1.51-2.68 1.12-.9-.35-1.19-1.68-.45-2.6.26-.33.6-.62.99-.86l1.87-1.14c.25-.15.22-.11.22-.4v-.65c0-.41.01-1.27-.57-1.27-.37 0-.67.33-.9 1.01-.35 1.1-1.95 1.51-1.95.77 0-.53.47-1.17.85-1.49 1.31-1.17 4.37-1.43 4.37.94zm-2.84-1.1c-.9.72-.79 1.83-.23 2.08.38.18.89-.12 1.09-.46.14-.23.18-.5.18-.81l-.01-1.52c-.05.05-.48.3-1.03.71zM55.06 12.09c.89-.96 2.03-1.3 3.11-.43 1.78 1.42 1.81 4.75.17 6.37-.91.9-2.21 1.29-3.28.35v2.53c0 .41.31.63.68.7.14.03.24.07.31.13.18.17.13.51-.19.51H52.3c-.34 0-.37-.37-.19-.53a.5.5 0 0 1 .23-.11c.39-.06.77-.28.77-.7v-6.77c0-.44.09-1.08-.51-1.14-.16-.01-.37-.02-.37-.24s.15-.28.33-.33a3.82 3.82 0 0 0 2-1.17l.13-.16c.2-.21.35-.06.36.18.02.26.01.55.01.81zm1.77 5.63c.94-1.16.83-3.82 0-4.96-.6-.81-1.78-.56-1.78.52 0 1.03-.01 2.14.01 3.17.02 1.8 1.06 2.14 1.77 1.27z"/><path fill="#fff" d="M40.93 11.89c-.24 0-.41.01-.51.05-.25.09-.21.44-.21.75v2.21c0 .63-.04 1.21-.1 1.74-.11.92-.57 1.99-1.62 2.1-.7.08-1.25-.41-1.35-1.06-.16.2-.39.39-.63.54-.45.27-1.04.44-1.49.08-.27-.22-.4-.57-.47-.92-.49.8-1.65 1.51-2.68 1.12-.9-.35-1.19-1.68-.45-2.6.26-.33.6-.62.99-.86l1.87-1.14c.25-.15.22-.11.22-.4v-.65c0-.41.01-1.27-.57-1.27-.37 0-.67.33-.9 1.01-.35 1.1-1.95 1.51-1.95.77 0-.53.47-1.17.85-1.49 1.31-1.17 4.36-1.43 4.36.94v3.49c0 .51.06.93.27.98.2.05.52-.26.71-.45.29-.6.94-.92 1.27-.39.2.31.23 1.01.59 1.02.38 0 .45-.95.48-1.22.12-1.13.04-2.6.04-3.44 0-.27-.02-.46-.04-.57-.06-.24-.23-.29-.43-.35-.13-.03-.31-.04-.4-.11-.21-.17-.13-.59.15-.59h5.75c.09 0 .15.04.2.1.17.21.05.56-.23.56-.25.04-.42.09-.5.13-.22.12-.18.27-.19.48l-.01 4.52c0 .64-.02.83.66.93.41 0 .47.65.09.65h-3.34c-.4 0-.31-.65.04-.65.67-.1.7-.26.7-.93v-4.54c0-.18.03-.47-.18-.52a4.4 4.4 0 0 0-.47-.02zm-7.47 3.31c-.91.72-.8 1.83-.24 2.08.39.18.9-.12 1.1-.46.14-.23.18-.5.18-.81l-.01-1.52c-.05.05-.48.3-1.03.71zM25.01 13.18c0-.48-.01-.8-.03-.99-.03-.18-.09-.31-.18-.38a1.18 1.18 0 0 0-.5-.17c-.19-.04-.29-.14-.3-.31-.01-.22.13-.33.39-.33h3.16c1.25.01 2.8.21 2.8 1.8 0 .95-.68 1.47-2.05 1.59 1.22.04 2.34.44 2.34 1.87 0 1.57-1.35 2.1-2.62 2.1l-3.76-.02a.27.27 0 0 1-.18-.08.29.29 0 0 1-.08-.21c0-.21.1-.33.3-.35.24-.03.41-.08.5-.16a.6.6 0 0 0 .18-.4c.02-.18.03-.51.03-.97zm2.08.9h.19c.75-.01 1.2-.43 1.18-1.34 0-.62-.28-1.15-.96-1.15h-.27c-.25.01-.37.03-.36.31v1.93c0 .18.02.25.22.25zm.45 3.61c1.17 0 1.5-1.35 1.07-2.16-.32-.62-.8-.79-1.45-.81-.17.01-.29-.02-.29.26v2.3c-.02.24.07.41.32.41zM16.78 18.75c2.08-.86 3.24-3.84 3.36-5.95-2.34 3.78-3.57-.25-5.72 1.22 2.28-4.17 3.64.15 5.73-1.74.06-3.82-2.47-6.22-4.23-1.45H13c1.73-4.64 7.28-5.28 9.14-.73 1.22 3 .16 7.66-4.01 9.27-.62.24-1.33.43-2.04.48a3.6 3.6 0 0 1-2.04-.4 2.03 2.03 0 0 1 1-3.78 2.02 2.02 0 0 1 1.73 3.08"/></svg>